/* XPM */
static char *result[] = {
/* columns rows colors chars-per-pixel */
"65 64 188 2 ",
"   c #000000",
".  c #06070A",
"X  c #12060E",
"o  c #161303",
"O  c #000D15",
"+  c #1B0A15",
"@  c #091519",
"#  c #191A19",
"$  c #221C05",
"%  c #240D1C",
"&  c #2F2706",
"*  c #37152B",
"=  c #262626",
"-  c #322B30",
";  c #323231",
":  c #3E343B",
">  c #451A35",
",  c #4C1C39",
"<  c #63570B",
"1  c #685612",
"2  c #3B3B46",
"3  c #551F42",
"4  c #4E2C45",
"5  c #6B2653",
"6  c #6F2856",
"7  c #7D3B78",
"8  c #4D4D4B",
"9  c #4F4D56",
"0  c #72566A",
"q  c #72407F",
"w  c #636362",
"e  c #757573",
"r  c #867012",
"t  c #8E7614",
"y  c #9F7D20",
"u  c #A27D26",
"i  c #8E336E",
"p  c #8A3D7C",
"a  c #933572",
"s  c #A13F7F",
"d  c #855262",
"f  c #7D8000",
"g  c #998D0C",
"h  c #A38D18",
"j  c #AD9616",
"k  c #B09C12",
"l  c #B29518",
"z  c #B6A90D",
"x  c #B9AC0D",
"c  c #B29328",
"v  c #BDAB33",
"b  c #C2B90B",
"n  c #C6B411",
"m  c #C49937",
"M  c #BBC000",
"N  c #CCC609",
"B  c #D1CB08",
"V  c #D9D607",
"C  c #E2DD0A",
"Z  c #DBE100",
"A  c #E4E504",
"S  c #F9FF00",
"D  c #E0E21E",
"F  c #AEB075",
"G  c #005D8B",
"H  c #005F90",
"J  c #26568D",
"K  c #006093",
"L  c #006399",
"P  c #0067A3",
"I  c #0069A6",
"U  c #006EB2",
"Y  c #166CB5",
"T  c #0070B4",
"R  c #0072B9",
"E  c #0972BD",
"W  c #2861A5",
"Q  c #2465AD",
"!  c #366CBB",
"~  c #5B4B8C",
"^  c #475498",
"/  c #515192",
"(  c #6B4483",
")  c #764789",
"_  c #7C7083",
"`  c #7C778D",
"'  c #466DBD",
"]  c #6F68BA",
"[  c #0076C2",
"{  c #1075C2",
"}  c #2073C1",
"|  c #3072C1",
" . c #4C6FC1",
".. c #586EC0",
"X. c #4070C1",
"o. c #4A70C1",
"O. c #706CC0",
"+. c #A23F82",
"@. c #AA3E82",
"#. c #8B4284",
"$. c #944B8A",
"%. c #A44489",
"&. c #B6458B",
"*. c #AA4B95",
"=. c #B64B95",
"-. c #B9519D",
";. c #8C7793",
":. c #A46A95",
">. c #805FA8",
",. c #905EAE",
"<. c #B654A4",
"1. c #8263B6",
"2. c #9069BF",
"3. c #9868BF",
"4. c #A567BF",
"5. c #BA74B0",
"6. c #C14B92",
"7. c #C756AB",
"8. c #D555A8",
"9. c #D25CB4",
"0. c #DC5DB7",
"q. c #E354AB",
"w. c #EC58B0",
"e. c #E25FBA",
"r. c #FF5FBE",
"t. c #C065BE",
"y. c #CD63BE",
"u. c #D666BD",
"i. c #E162BE",
"p. c #E961BE",
"a. c #E36DBF",
"s. c #806AC0",
"d. c #9069C0",
"f. c #A46DC1",
"g. c #CE6BC2",
"h. c #DF70C4",
"j. c #EB67C1",
"k. c #E46DC3",
"l. c #F469C1",
"z. c #E775C5",
"x. c #F679C7",
"c. c #0E82C8",
"v. c #1587CB",
"b. c #1B8DCE",
"n. c #37A4DA",
"m. c #46ACDC",
"M. c #7BADC0",
"N. c #7BB6D4",
"B. c #4EB3E0",
"V. c #52BBE5",
"C. c #5DC2E8",
"Z. c #63C8EC",
"A. c #73CDEA",
"S. c #6DD2F1",
"D. c #92928E",
"F. c #8B8095",
"G. c #979796",
"H. c #999996",
"J. c #B28AB1",
"K. c #A9A9A4",
"L. c #E084BD",
"P. c #9EA1DB",
"I. c #BBA9C4",
"U. c #BAABC8",
"Y. c #BAB2D4",
"T. c #DD8CCF",
"R. c #CE94CA",
"E. c #E385CC",
"W. c #E38BCE",
"Q. c #EE8FCF",
"!. c #F99BD4",
"~. c #C4B1CC",
"^. c #CAB6CF",
"/. c #D1B0CE",
"(. c #EFACDA",
"). c #F9B4DF",
"_. c #E0B6E0",
"`. c #B8D3D6",
"'. c #B8D6DD",
"]. c #94D5E8",
"[. c #C6C6C4",
"{. c #DACFD8",
"}. c #E9EADE",
"|. c #D9C5E5",
" X c #EFD0E8",
".X c #F7D0EA",
"XX c #D7E6E2",
"oX c #F5F6E7",
/* pixels */
"[ [ [ [ [ [ [ [ [ [ [ [ [ [ [ [ [ [ [ [ [ [ [ [ [ [ [ [ [ [ [ [ [ [ [ [ [ [ [ [ [ [ [ [ [ [ [ [ [ [ [ [ [ [ [ [ [ [ [ [ [ [ [ [ [ ",
"[ [ [ [ [ [ [ [ [ [ [ [ [ [ [ [ [ [ [ [ [ [ [ [ [ [ [ [ [ [ [ [ [ [ [ [ [ [ [ [ [ [ [ [ [ [ [ [ [ [ [ [ [ [ [ [ [ [ [ [ [ [ [ [ [ ",
"[ [ [ [ [ [ [ [ [ [ [ [ [ [ [ [ [ [ [ [ [ { [ [ [ [ [ [ [ [ [ [ [ [ [ [ [ [ [ [ [ [ [ [ [ [ [ [ [ [ [ [ [ [ [ [ [ [ [ [ [ [ [ [ [ ",
"[ [ [ [ [ [ [ [ [ [ [ [ [ [ [ [ [ [ } X. .|  .|  .X. . .| [ [ [ [ [ [ [ [ [ [ [ [ [ [ [ [ [ [ [ [ [ [ [ [ [ [ [ [ [ [ [ [ [ [ [ [ ",
"[ [ [ [ [ [ [ [ [ [ [ [ [ [ [ [ [ [ s.r.i.r.i.r.e.r.i.r.t.[ [ [ [ [ [ [ [ [ [ [ [ [ [ [ [ [ [ [ [ [ [ [ [ [ [ [ [ [ [ [ [ [ [ [ [ ",
"[ [ [ [ [ [ [ [ [ [ [ [ [ [ [ [ [ [ 3.r.p.r.e.r.e.r.e.r.y.X.| [ [ [ [ [ [ [ [ [ [ [ [ [ [ [ [ [ [ [ [ [ [ [ [ [ [ [ [ [ [ [ [ [ [ ",
"[ [ [ [ [ [ [ [ [ [ [ [ [ [ [ [ [ [ O.r.*.i 7 i 7 i <.r.p.r.t.[ [ [ [ [ [ [ [ [ [ [ [ [ [ [ [ [ [ [ [ [ [ [ [ [ [ [ [ [ [ [ [ [ [ ",
"[ [ [ [ [ [ [ [ [ [ [ [ [ [ [ [ } X.4.r.*.i 7 i 7 i <.r.p.r.y.[ [ [ [ [ [ [ [ [ [ [ [ [ [ [ [ [ [ [ [ [ [ [ [ [ [ [ [ [ [ [ [ [ [ ",
"[ [ [ [ [ [ [ [ [ [ [ [ [ [ [ [ s.r.i.r.*.i q [ [ [ ^ i <.r.t.[ [ [ [ [ [ [ [ [ [ [ [ [ [ [ [ [ [ [ [ [ [ [ [ [ [ [ [ [ [ [ [ [ [ ",
"[ [ [ [ [ [ [ [ [ [ [ [ [ [ [ [ d.r.p.r.*.i q [ [ [ / a 7.r.u.! X.[ [ [ [ [ [ [ [ [ [ [ [ [ } X...X. .X.| [ [ [ [ [ [ [ [ [ [ [ [ ",
"[ [ [ [ [ [ [ [ [ [ [ [ [ [ [ [ O.r.i.r.*.i ( [ [ [ ^ a -.r.u.r.r.[ [ [ [ [ [ [ [ [ [ [ [ [ O.r.r.r.0.r.t.[ [ [ [ [ [ [ [ [ [ [ [ ",
"[ [ [ [ [ [ [ [ [ [ [ [ [ [ } X.4.r.p.r.*.a ) X. .X.~ i -.r.u.r.r.! X.X. .X.| [ [ [ [ [ } o.4.r.r.r.e.r.y.o.| [ [ [ [ [ [ [ [ [ [ ",
"[ [ [ [ [ [ [ [ [ [ [ [ [ [ s.r.i.r.i.r.i.r.i.r.e.r.0.r.&.i s r.9.8.9.l.p.r.y.[ [ [ [ [ s.r.i.r.9.i 7 i <.r.4.[ [ [ [ [ [ [ [ [ [ ",
"[ [ [ [ [ [ [ [ [ [ [ [ [ [ 2.r.p.r.p.r.p.r.p.r.j.r.j.r.&.i &.r.0.8.0.r.j.r.g.|  .X.| [ s.r.e.r.9.i 7 i -.r.9.[ [ [ [ [ [ [ [ [ [ ",
"[ [ [ [ [ [ [ [ [ [ [ [ [ [ s.r.i.r.i.r.i.r.i.r.i.r.z..XJ.i 8.r.l..X|..X|..XT.r.e.r.t.[ s.r.9.i ( [ [ [ ^ i <.r.g.[ [ [ [ [ [ [ [ ",
"[ [ c.b.v.[ c.b.v.[ [ [ [ [ 2.r.p.r.i.r.i.r.p.r.j.r.z..XJ.i 8.r.x..X_..X|..XE.r.j.r.g.[ d.r.0.i q [ [ [ ^ i <.r.t.[ [ [ [ [ [ [ [ ",
"[ [ n.S.V.[ n.S.V.[ [ [ [ [ s.r.i.r.i.r.i.r.h..X|..X~.  4 i &.r.6.  @   O   ` .X|..XT.r.j.r.0.i ( [ [ [ [ [ / @.$.[ [ [ [ [ [ [ [ ",
"[ [ m.S.C.[ m.S.C.b.v.[ [ [ s.r.i.r.i.r.p.r.k..X~.J.F.  * i &.r.6.      .   ` .X|..XT.r.j.r.9.i q [ [ [ [ [ ^ a ( [ [ [ v.b.v.[ [ ",
"[ [ N.oX'.[ N.oX].S.V.[ [ [ [ [ O.r.p.r.k..XU.  @       . % * > *               O   ;.).h.l.*.i ( [ [ [ [ [ Y Q Y [ [ [ n.S.V.[ [ ",
"[ [ N.oX'.[ N.oX].S.C.b.v.[ } X.4.r.p.r.k..XI.                                      ` .XT.r.*.i ( [ [ [ [ [ [ [ [ [ { b.V.S.V.[ [ ",
"[ [ I G L [ I G M.oX].S.Z.S.P.r.j.r.z..X~.  @                                       .   ;.).E.r.t.[ [ [ [ [ [ [ [ [ n.S.A.oX'.[ [ ",
"[ [ P G L R I G M.oX].S.A.P.g.r.j.r.z..XI.                                  X % +       ` .XT.r.g.[ [ [ [ [ [ [ [ [ m.S.A.oX'.[ [ ",
"[ [ I G L [ I G H G N.oXR.l.j.r.z..X^.  @       8 G.e                       > i 6       .   ;.).z.r.g.[ [ [ [ [ [ [ N.oX`.H P [ [ ",
"[ [ I G L [ P G H G M.oXR.r.j.r.z..X~.          8 G.e                   X % 3 i 6 % +       ` .XT.l.4.W Q [ [ [ [ [ N.oX`.H L [ [ ",
"[ [ [ [ [ [ I G K G K G R.r.x..X{.: 4       w [.H.= #                   > i v S D l u       ` .XE.r.<.i i [ [ [ [ [ I H H R R [ [ ",
"[ [ [ [ [ [ I G K G K G J.r.x..X/.  #       w [.G.      o & $       . % 3 a v S D l h % +   _ .XT.r.<.i i Q Y [ [ [ I G H [ [ [ [ ",
"[ [ I G L [ [ [ [ [ P G >.r.a..X~.  .       # ; =   f S z l r       % i m S A S V l y i 6   . : J. X_.r.*.i ( [ [ [ E U E [ [ [ [ ",
"[ [ I G L [ [ [ [ [ I G >.r.a..XI.  .               f S z l t       % i m S Z S V l y i 6 % %   `  X_.q.%.i ( [ [ [ [ [ [ [ [ [ [ ",
"[ [ R T R [ [ [ I G K G ,.r.=.a $.                  g S b k r       < S V n B S C l u   % i i   ;..XR.i i [ [ [ [ [ [ [ [ [ [ [ [ ",
"[ [ [ [ [ [ [ [ I G K G >.r.=.i s % +   X % +       < S x l r       g S V j x S V l u   % i i % _ /.5.i i b.v.[ [ [ [ [ [ [ [ [ [ ",
"[ [ [ [ [ [ [ [ R T U T $.i +./.:.i 6   , i c S Z S Z S A S Z S M   < n k l B S C l r       % i i i a r.k.S.V.[ [ [ [ [ [ [ [ [ [ ",
"[ [ [ [ [ [ [ [ [ [ [ [ $.p +. X:.i 6 # 3 i c A B A V S B V N A M   < l h l n S C l t       % i i i i r.g.S.V.[ [ [ [ [ [ [ [ [ [ ",
"[ [ [ [ [ [ [ [ [ [ ^ i p q.0..X~.  > i 6   < l h l k S k l l l g   o & & & g S A l u           F..XQ.l.t.[ [ [ [ [ [ [ [ [ [ [ [ ",
"[ [ [ [ [ [ [ [ [ [ ^ i p r.a..X~.  , i 6 % 1 l h l j S k l l l r           f S V l u           ` .XT.r.g.[ [ [ [ [ [ [ [ [ [ [ [ ",
"[ [ [ [ [ [ [ [ Q i i Q ,.l.k..XI.      > i 5   > i c S n l r               k S C l t           ;..XW.r.y.[ [ [ [ [ [ [ [ [ [ [ [ ",
"[ [ [ [ [ [ [ [ Q i a Q ,.r.k..X~.      , i 6 % 3 i c S z l r               h S C l r           ` .XT.r.t.[ [ [ [ [ [ [ [ [ [ [ [ ",
"[ [ [ [ [ [ [ [ E Q ~ i #.r.k..XI.          > i 5                       , i d F F               F..XE.r.g.[ [ [ [ [ [ [ [ [ [ [ [ ",
"[ [ [ [ [ [ [ [ [ [ ^ i #.r.k..X~.          , i 5                       > i 0 H.H.              ` .XT.r.t.[ [ [ [ [ [ [ [ [ [ [ [ ",
"[ [ [ [ [ [ [ [ [ [ [ [ s.r.k..XI.                      w [.G.          : [.[.{.{.[.[.      w .XT.r.j.r.y.[ [ [ [ [ [ [ [ [ [ [ [ ",
"[ [ [ [ [ [ [ [ [ [ [ [ O.r.h..XU.                      w [.G.          ; [.[.oX}.[.[.      ` .XT.l.i.r.t.[ [ [ [ [ v.b.{ [ [ [ [ ",
"[ [ [ [ [ [ [ [ [ [ [ [ } X.d.r.h..XY.              8 G.G.}.K.H.e       X ; 9 H.K.; ;       F..XE.r.g.X.| [ [ [ [ [ n.S.V.[ [ [ [ ",
"[ [ [ [ [ [ [ [ [ [ [ [ [ [ s.r.h..XY.              8 G.D.oXK.G.e           = H.H.        : J.(.z.r.9.[ [ [ [ [ c.b.B.S.V.[ [ [ [ ",
"[ [ [ [ [ [ [ [ [ [ [ [ [ [ } X.f.r.z..XU.          # = F [.K.= #           . = =       - .X).r.l.r.r.[ [ [ [ [ n.S.A.oX'.[ [ [ [ ",
"[ [ [ [ [ [ [ [ [ [ [ [ [ [ [ [ d.r.k..XU.  O           9 Y.D.      X > > % %         : 0 ).!.r.r.r.r.b.v.[ v.b.B.S.A.oX'.[ [ [ [ ",
"[ [ [ [ [ [ [ [ [ [ [ [ [ [ [ [ d.l.e.r.k..X~.  .       # ; =       > r.r.i i       : .X).l.r.r.r.r.r.S.V.[ n.S.A.oX`.G P [ [ [ [ ",
"[ [ [ [ [ [ { X.' Q Q [ [ [ [ [ 1.q.8.r.k..X^.: 9 : -               , r.r.i i   X : 0 ).!.r.r.r.r.r.r.S.V.b.B.S.A.oX`.G L [ [ [ [ ",
"[ [ [ [ [ [ X.r.r.i i [ [ [ [ [ / a #.r.p.r.x. X X.XU.  .           > r.r.i i   : .X).r.r.r.r.r.r.r.r.S.Z.S.A.oX`.G H G L [ [ [ [ ",
"[ [ [ [ } X.] r.r.i i [ [ [ Y Q ~ i $.r.p.r.l.).(.).R.: 9 : 2 : 9 : 0 r.r.i i : 0 ).!.l.r.r.r.r.r.r.r.S.A.S.A.oX`.G H G L [ [ [ [ ",
"[ [ [ [ s.r.9.i ( [ [ [ [ [ ^ i 7 i #.r.e.r.e.r.e.r.h..X|. X^..X.X.X).r.q.a i .X).r.r.r.r.r.r.r.r.oXXXoXXXoX`.G H G L [ [ [ [ [ [ ",
"[ [ [ [ 2.r.0.i 7 [ [ [ Y Q ~ i p @.=.r.p.r.e.r.e.r.a.).(.)./.).(.!.Q.r.w.s s T.L.r.r.r.r.q.8.r.r.oXXXoXXXoX`.G H G L U T [ [ [ [ ",
"[ [ [ [ O.r.9.i ( [ [ [ ^ i 7 i #.r.j.r.l.r.t.G H G >.r.e.r.e.r.9.8.q.r.r.r.r.i i G H G J i i r.r.G L G L G H G H G H G L [ [ [ [ ",
"[ [ [ [ d.r.0.i q Q Q Q ~ i #.@.*.r.l.r.l.r.9.G H G >.r.e.r.0.r.8.8.q.r.r.r.r.i i G G G J i i r.r.G H G H G H G H G L G L [ [ [ [ ",
"[ [ [ [ s.r.j.r.9.i 7 i 7 i #.r.i.r.0.r.e.r.g.[ [ [ [ [ [ [ [ [ [ [ [ [ X.r.r.i i [ [ [ J i i r.r.G H G H G L [ [ [ [ [ [ [ [ [ [ ",
"[ [ [ [ s.r.e.r.0.@.%.@.%.@.*.r.e.r.p.r.e.r.4.T R [ [ [ [ [ [ [ [ [ [ [ X.r.r.@.@.Q W W / i i r.r.G H G H G H R R [ [ [ [ [ [ [ [ ",
"[ [ [ [ [ [ s.r.i.r.i.r.i.r.e.r.k.r.e.r.t.[ I G L [ [ [ [ [ [ [ [ [ [ [  .r.r.r.r.i i i i i i r.r.G L [ I G H G L [ [ [ [ [ [ [ [ ",
"[ [ [ [ [ [ s.r.i.r.i.r.p.r.p.r.p.r.p.r.t.[ I G L [ [ [ [ [ [ [ [ [ [ [ ! r.r.r.r.i i i i i i r.r.G L T I G H G L [ [ [ [ [ [ [ [ ",
"[ [ [ [ [ [ [ [ [ [ s.r.i.r.i.r.i.r.t.[ [ [ [ [ [ [ [ [ [ [ [ [ [ [ [ [ { X.O.r.r.r.r.r.r.r.r.r.r.[ I G L [ [ [ [ [ [ [ [ [ [ [ [ ",
"[ [ [ [ [ [ [ [ [ [ s.r.i.r.i.r.i.r.t.[ [ [ [ [ [ [ [ [ [ [ [ [ [ [ [ [ [ [ X.r.r.r.r.r.r.r.r.r.r.[ I G L [ [ [ [ [ [ [ [ [ [ [ [ ",
"[ [ [ [ [ [ [ [ [ [ [ [ [ [ [ [ [ [ [ [ [ [ [ [ [ [ [ [ [ [ [ [ [ [ [ [ [ [ [ [ { X. .X. .X. .X.X.[ [ [ [ [ [ [ [ [ [ [ [ [ [ [ [ ",
"[ [ [ [ [ [ [ [ [ [ [ [ [ [ [ [ [ [ [ [ [ [ [ [ [ [ [ [ [ [ [ [ [ [ [ [ [ [ [ [ [ [ [ [ [ [ [ [ [ [ [ [ [ [ [ [ [ [ [ [ [ [ [ [ [ ",
"[ [ [ [ [ [ [ [ [ [ [ [ [ [ [ [ [ [ [ [ [ [ [ [ [ [ [ [ [ [ [ [ [ [ [ [ [ [ [ [ [ [ [ [ [ [ [ [ [ [ [ [ [ [ [ [ [ [ [ [ [ [ [ [ [ ",
"[ [ [ [ [ [ [ [ [ [ [ [ [ [ [ [ [ [ [ [ [ [ [ [ [ [ [ [ [ [ [ [ [ [ [ [ [ [ [ [ [ [ [ [ [ [ [ [ [ [ [ [ [ [ [ [ [ [ [ [ [ [ [ [ [ ",
"[ [ [ [ [ [ [ [ [ [ [ [ [ [ [ [ [ [ [ [ [ [ [ [ [ [ [ [ [ [ [ [ [ [ [ [ [ [ [ [ [ [ [ [ [ [ [ [ [ [ [ [ [ [ [ [ [ [ [ [ [ [ [ [ [ ",
"[ [ [ [ [ [ [ [ [ [ [ [ [ [ [ [ [ [ [ [ [ [ [ [ [ [ [ [ [ [ [ [ [ [ [ [ [ [ [ [ [ [ [ [ [ [ [ [ [ [ [ [ [ [ [ [ [ [ [ [ [ [ [ [ [ "
};
