/* XPM */
static char *result[] = {
/* columns rows colors chars-per-pixel */
"65 64 175 2 ",
"   c #000000",
".  c #000609",
"X  c #0B090A",
"o  c #12060E",
"O  c #000D15",
"+  c #1B0A15",
"@  c #091519",
"#  c #131313",
"$  c #1B1B1A",
"%  c #240D1C",
"&  c #37152B",
"*  c #262626",
"=  c #2E272C",
"-  c #323231",
";  c #3E343B",
":  c #461A36",
">  c #4C1C39",
",  c #3B3B46",
"<  c #541F41",
"1  c #4E2C45",
"2  c #6B2653",
"3  c #6F2856",
"4  c #7D3B78",
"5  c #4D4D4B",
"6  c #4F4D56",
"7  c #724B67",
"8  c #755B6C",
"9  c #72407F",
"0  c #636362",
"q  c #70706E",
"w  c #757573",
"e  c #8E336E",
"r  c #8A3D7C",
"t  c #933572",
"y  c #A13F7F",
"u  c #846D7A",
"i  c #005D8B",
"p  c #005F90",
"a  c #26568D",
"s  c #006093",
"d  c #006399",
"f  c #0067A3",
"g  c #0069A6",
"h  c #006EB2",
"j  c #166CB5",
"k  c #0070B4",
"l  c #0072B9",
"z  c #0972BD",
"x  c #2861A5",
"c  c #2465AD",
"v  c #444E87",
"b  c #5B4B8C",
"n  c #475498",
"m  c #575398",
"M  c #6B4483",
"N  c #7C4282",
"B  c #6C5197",
"V  c #7C7083",
"C  c #7C778D",
"Z  c #466DBD",
"A  c #6F68BA",
"S  c #0076C2",
"D  c #1075C2",
"F  c #2073C1",
"G  c #3072C1",
"H  c #4C6FC1",
"J  c #586EC0",
"K  c #4070C1",
"L  c #4A70C1",
"P  c #706CC0",
"I  c #AA3E82",
"U  c #8C4182",
"Y  c #87498E",
"T  c #944B8A",
"R  c #A44489",
"E  c #B6458B",
"W  c #A74C96",
"Q  c #AD4B94",
"!  c #B64B95",
"~  c #B9519D",
"^  c #816384",
"/  c #8C7793",
"(  c #A77397",
")  c #805FA7",
"_  c #905EAC",
"`  c #905FB1",
"'  c #B552A1",
"]  c #B858AB",
"[  c #8263B6",
"{  c #9069BF",
"}  c #A567BF",
"|  c #BA74B0",
" . c #C14B92",
".. c #C756AB",
"X. c #D850A8",
"o. c #D25BA8",
"O. c #D25CB4",
"+. c #DC5DB6",
"@. c #DD5EB8",
"#. c #E354AB",
"$. c #EC58B0",
"%. c #E25FBA",
"&. c #FF5FBE",
"*. c #C065BE",
"=. c #CD63BE",
"-. c #D666BD",
";. c #E162BE",
":. c #E961BE",
">. c #E36DBF",
",. c #806AC0",
"<. c #9069C0",
"1. c #A46DC1",
"2. c #CE6BC2",
"3. c #DF70C4",
"4. c #EA66C0",
"5. c #E46DC3",
"6. c #EE6BC3",
"7. c #F469C1",
"8. c #E472C4",
"9. c #EA78C7",
"0. c #F679C7",
"q. c #0E82C8",
"w. c #1587CB",
"e. c #1B8DCE",
"r. c #37A4DA",
"t. c #46ACDC",
"y. c #7BADC0",
"u. c #7BB6D4",
"i. c #4EB3E0",
"p. c #52BBE5",
"a. c #79BDE7",
"s. c #5DC2E8",
"d. c #63C8EC",
"f. c #73CDEA",
"g. c #6DD2F1",
"h. c #8D8D8A",
"j. c #8B8095",
"k. c #959594",
"l. c #999996",
"z. c #9B9B99",
"x. c #AD8CAA",
"c. c #BD86BF",
"v. c #A9A9A4",
"b. c #B6B7B3",
"n. c #E084BD",
"m. c #BFC0B9",
"M. c #9EA1DB",
"N. c #BBA9C4",
"B. c #BAABC8",
"V. c #BAB2D4",
"C. c #DD8CCF",
"Z. c #CE94CA",
"A. c #E385CC",
"S. c #E38BCE",
"D. c #EE8FCF",
"F. c #F99BD4",
"G. c #C3AEC6",
"H. c #C4B1CC",
"J. c #CAB6CF",
"K. c #D7B0D1",
"L. c #EFACDA",
"P. c #F9B4DF",
"I. c #E0B6E0",
"U. c #B8D3D6",
"Y. c #B8D6DD",
"T. c #94D5E8",
"R. c #C6C6C4",
"E. c #D9C9D9",
"W. c #DEDFD3",
"Q. c #E9EADE",
"!. c #D9C5E5",
"~. c #EFD0E8",
"^. c #F7D0EA",
"/. c #D7E6E2",
"(. c #F5F6E7",
/* pixels */
"S S S S S S S S S S S S S S S S S S S S S S S S S S S S S S S S S S S S S S S S S S S S S S S S S S S S S S S S S S S S S S S S S ",
"S S S S S S S S S S S S S S S S S S S S S S S S S S S S S S S S S S S S S S S S S S S S S S S S S S S S S S S S S S S S S S S S S ",
"S S S S S S S S S S S S S S S S S S S S S S S S S S S S S S S S S S S S S S S S S S S S S S S S S S S S S S S S S S S S S S S S S ",
"S S S S S S S S S S S S S S S S S S F K H K H G H K H L G S S S S S S S S S S S S S S S S S S S S S S S S S S S S S S S S S S S S ",
"S S S S S S S S S S S S S S S S S S ,.&.;.&.;.&.;.&.;.&.*.S S S S S S S S S S S S S S S S S S S S S S S S S S S S S S S S S S S S ",
"S S S S S S S S S S S S S S S S S S <.&.;.&.%.&.:.&.:.&.;.G G S S S S S S S S S S S S S S S S S S S S S S S S S S S S S S S S S S ",
"S S S S S S S S S S S S S S S S S S P &.W e 4 e N e ' &.;.&.*.S S S S S S S S S S S S S S S S S S S S S S S S S S S S S S S S S S ",
"S S S S S S S S S S S S S S S S F L } &.I e r e 4 e ' &.:.&.=.S S S S S S S S S S S S S S S S S S S S S S S S S S S S S S S S S S ",
"S S S S S S S S S S S S S S S S ,.&.;.&.W e M S S S n e ' &.| S S S S S S S S S S S S S S S S S S S S S S S S S S S S S S S S S S ",
"S S S S S S S S S S S S S S S S <.&.:.&.Q e 9 S S S m e ..&.=.Z K S S S S S S S S S S S S S F K J L H G G S S S S S S S S S S S S ",
"S S S S S S S S S S S S S S S S P &.;.&.W e M S S S n e ' &.=.&.&.S S S S S S S S S S S S S P &.&.&.;.&.*.S S S S S S S S S S S S ",
"S S S S S S S S S S S S S S F K } &.:.&.Q t N K H K B e ~ &.%.&.&.G K K H K G S S S S S F L } &.&.&.@.&.O.K G S S S S S S S S S S ",
"S S S S S S S S S S S S S S ,.&.;.&.;.&.;.&.;.&.@.&.;.&.! e y &...X.O.&.;.&.*.S S S S S ,.&.;.&.O.e 4 e ' &.*.S S S S S S S S S S ",
"S S S S S S S S S S S S S S { &.:.&.:.&.:.&.:.&.:.&.:.&.E e E &.%.X.@.&.4.&.2.K H K G S ,.&.%.&.O.e 4 e ' &.=.S S S S S S S S S S ",
"S S S S S S S S S S S S S S ,.&.;.&.;.&.;.&.;.&.;.&.8.^.x.e o.&.0.^.I.^.!.^.C.&.%.&.*.S ,.&.O.e M S S S n e ' &.2.S S S S S S S S ",
"S S q.e.w.S q.e.w.S S S S S { &.:.&.;.&.;.&.:.&.:.&.9.^.| e o.&.0.^.!.^.!.^.C.&.:.&.2.S <.&.+.e 9 S S S n e ' &.*.S S S S S S S S ",
"S S r.g.p.S r.g.p.S S S S S ,.&.;.&.;.&.;.&.3.^.!.^.H.  1 e E &. .  @   O   C ^.!.^.C.&.;.&.@.e M S S S S S m I Y S S S S S S S S ",
"S S t.g.s.S t.g.d.e.w.S S S ,.&.;.&.;.&.:.&.8.^.H.x.j.  & e E &. .  .   .   C ^.!.^.S.&.4.&.O.e 9 S S S S S n t M S S S w.e.w.S S ",
"S S u.(.Y.S u.(.T.g.p.S S S S S P &.:.&.5.^.B.. @       X % & : &               O   / P.A.&.W e M S S S S S j c j S S S r.g.p.S S ",
"S S u.(.Y.S u.(.T.g.p.e.w.S F K } &.:.&.5.^.N.  .                                   C ^.C.&.Q e M S S S S S S S S S D e.i.g.p.S S ",
"S S g i d S g i y.(.T.g.p.d.c.&.:.&.9.^.H.  @                                       .   / P.A.&.*.S S S S S S S q.l r.g.f.(.Y.S S ",
"S S f i d l g i y.(.T.g.a.T.c.&.4.&.9.^.N.                                  o % +       C ^.S.&.2.S S S S S S S S q.r.g.f.(.Y.S S ",
"S S g i d S g i p p u.(.Z.&.7.&.9.^.J.  @       5 l.w                       : e 2       .   / P.9.&.*.S S S S S S S u.(.Y.i d S S ",
"S S g i d S f i p p y.(.C.&.:.&.9.^.G.          5 l.q                   o % < e 3 % +       C ^.C.&.*.j c S S S S S M.(.U.i d S S ",
"S S S S S S g i s i s i c.&.0.^.K.; 1       0 R.b.W.b.R.k.              : e u k.u e 2       C ^.C.&...e e S S S S S g i d k k S S ",
"S S S S S S g i s i s i c.&.D.^.E.  $       0 R.b.(.m.R.k.          X % < e u l./ e 3 $ +   V ^.C.&.] t e c j S S S g i d S S S S ",
"S S g i d S S S S S f i ) &.>.^.H.  .       $ - q l.h.- *           % e ( R.k.* $   : e 3   X ; x.~.I.7.W e M S S S l k l S S S S ",
"S S g i d S S S S S g i ) &.>.^.N.  .           5 l.q               % e ( R.k.  o % < e 3 % %   C ~.K.#.R e M S S S S S S S S S S ",
"S S l k l S S S g i s i _ &.! e T .             # * $                   $ - =   : e 2   % e e   / ^.Z.e e S S S S S S S S S S S S ",
"S S S S S S S S g i s i ) &.! e y % +   o % +                               o % < e 2   % e e % ^ K.| e e e.w.S S S S S S S S S S ",
"S S S S S S S S l k h k T e R K.( e 2   : e 3                               > e 2           % e e e e &.8.g.p.S S S S S S S S S S ",
"S S S S S S S S S S S S Y t R ~.( e 2 % < e 2                               > e 2           % e e e e &.2.g.p.S S S S S S S S S S ",
"S S S S S S S S S S n e r #.-.^.H.  : e 2                                       : e 2           j.^.D.7.=.S S S S S S S S S S S S ",
"S S S S S S S S S S n e r &.>.^.H.  : e 3 % +   o % +                           : e 2           C ^.C.&.*.S S S S S S S S S S S S ",
"S S S S S S S S c e e c _ &.5.^.N.      : e 2   : e 2                       : e 3 % +           j.^.A.&.=.S S S S S S S S S S S S ",
"S S S S S S S S c e e c ` &.5.^.J.      : e 3 % < e 2                       : e 2               C ^.C.&.*.S S S S S S S S S S S S ",
"S S S S S S S S z c b e U &.5.^.N.          : e 2                       : e 7 z.l.              j.^.A.&.2.S S S S S S S S S S S S ",
"S S S S S S S S S S n e U &.8.^.H.          : e 2                       : e 4 l.k.          .   C ^.C.&.*.S S S S S S S S S S S S ",
"S S S S S S S S S S S S ,.&.5.^.N.                      0 R.l.          ; R.R.W.W.R.R.      0 ^.S.&.4.&.=.S S S S S S S S S S S S ",
"S S S S S S S S S S S S ,.&.3.^.B.                      0 R.k.          - R.R.(.Q.R.R.      C ^.C.&.-.&.2.S S S S S D w.w.S S S S ",
"S S S S S S S S S S S S F K <.&.8.^.V.              5 l.l.Q.v.z.w       X - 6 l.z.- -       j.^.A.&.2.K G S S S S S r.g.p.S S S S ",
"S S S S S S S S S S S S S S ,.&.3.^.V.              5 l.k.(.v.z.w           = z.l.        ; x.P.9.&.O.S S S S S w.e.i.g.s.S S S S ",
"S S S S S S S S S S S S S S F K 1.&.8.^.B.          # * w R.v.* $           X * *       = ^.P.&.7.&.&.S S S S S r.g.g.(.Y.S S S S ",
"S S S S S S S S S S S S S S S S <.&.5.^.B.  O           0 R.k.      X : : % %         ; 8 P.F.&.&.&.&.e.w.S w.e.i.g.f.(.Y.S S S S ",
"S S S S S S S S S S S S S S S S <.7.%.&.8.^.G.  .       $ - *       : &.&.e e       ; ^.P.&.&.&.&.&.&.g.p.S r.g.f.(.U.i d S S S S ",
"S S S S S S D K Z c c S S S S S [ #.X.&.5.^.J.; 6 ; -               > &.&.e e   # ; 8 P.F.&.&.&.&.&.&.g.s.e.i.g.f.(.U.i d S S S S ",
"S S S S S S K &.&.e e S S S S S n t U &.:.&.0.^.~.^.N.  .   .       : &.&.e e   ; ^.P.&.&.&.&.&.&.&.&.g.d.g.f.(.U.i p i d S S S S ",
"S S S S F K A &.&.e e S S S z c M e T &.:.&.6.P.L.P.Z.; 6 ; , ; 6 ; 7 &.&.e e ; 8 P.F.&.&.&.&.&.&.&.&.g.d.g.f.(.U.i i i d S S S S ",
"S S S S ,.&.O.e M S S S S S n e 4 e U &.;.&.%.&.%.&.3.^.!.~.J.^.^.^.P.&.#.t e ^.P.&.&.&.&.&.&.&.&.(./.(./.(.U.i p i d S S S S S S ",
"S S S S { &.+.e 4 S S S j c b e U I Q &.:.&.%.&.%.&.>.P.L.P.K.P.L.F.D.&.$.y y C.n.&.&.&.&.#.#.&.&.(./.(./.(.U.i p i d l k S S S S ",
"S S S S ,.&.O.e M S S S n e 4 e U &.4.&.7.&.*.i p i ) &.%.&.%.&.o.X.#.&.&.&.&.e e i i i a e e &.&.i p p p i p i p i p i d S S S S ",
"S S S S { &.+.e N j x c b e r I Q &.:.&.7.&.O.i p i ) &.%.&.@.&.O.X.#.&.&.&.&.e e i i i a e e &.&.i p i p p p i p p p i d S S S S ",
"S S S S ,.&.;.&.O.e 4 e 4 e U &.;.&.;.&.;.&.2.S S S S S S S S S S S S S K &.&.e e S S S x e e &.&.i p p p i d S S S S S S S S S S ",
"S S S S ,.&.;.&.@.I R I R I Q &.:.&.:.&.:.7.] k l S S S S S S S S S S S K &.&.I y x x x v e e &.&.i p i p i p k l S S S S S S S S ",
"S S S S S S ,.&.;.&.;.&.4.&.4.&.;.&.@.&.*.S g i d S S S S S S S S S S S H &.&.&.&.e e e e e e &.&.i p S g i p i d S S S S S S S S ",
"S S S S S S ,.&.;.&.;.&.;.&.;.&.:.&.;.&.2.S g i d S S S S S S S S S S S K &.&.&.&.e e e e e e &.&.i d l f i p p d S S S S S S S S ",
"S S S S S S S S S S ,.&.;.&.;.&.;.&.*.S S S S S S S S S S S S S S S S S D K P &.&.&.&.&.&.&.&.&.&.S f i d S S S S S S S S S S S S ",
"S S S S S S S S S S ,.&.;.&.;.&.;.&.*.S S S S S S S S S S S S S S S S S S S K &.&.&.&.&.&.&.&.&.&.S g i d S S S S S S S S S S S S ",
"S S S S S S S S S S S S S S S S S S S S S S S S S S S S S S S S S S S S S S S S D K H K H K H K K S S S S S S S S S S S S S S S S ",
"S S S S S S S S S S S S S S S S S S S S S S S S S S S S S S S S S S S S S S S S S S S S S S S S S S S S S S S S S S S S S S S S S ",
"S S S S S S S S S S S S S S S S S S S S S S S S S S S S S S S S S S S S S S S S S S S S S S S S S S S S S S S S S S S S S S S S S ",
"S S S S S S S S S S S S S S S S S S S S S S S S S S S S S S S S S S S S S S S S S S S S S S S S S S S S S S S S S S S S S S S S S ",
"S S S S S S S S S S S S S S S S S S S S S S S S S S S S S S S S S S S S S S S S S S S S S S S S S S S S S S S S S S S S S S S S S ",
"S S S S S S S S S S S S S S S S S S S S S S S S S S S S S S S S S S S S S S S S S S S S S S S S S S S S S S S S S S S S S S S S S "
};
