/* XPM */
static char *result[] = {
/* columns rows colors chars-per-pixel */
"66 64 238 2 ",
"   c black",
".  c #0F1408",
"X  c #0F160C",
"o  c #171906",
"O  c #171A06",
"+  c #1A1900",
"@  c #1A1A00",
"#  c #1C1C01",
"$  c #1D1C01",
"%  c #1D1D01",
"&  c #1E1D00",
"*  c #1F1E00",
"=  c #000B12",
"-  c #000B13",
";  c #020F16",
":  c #000E18",
">  c #000F18",
",  c #071212",
"<  c #041015",
"1  c #081212",
"2  c #1B2715",
"3  c #14231A",
"4  c #17281E",
"5  c #2C2E08",
"6  c #322F00",
"7  c #323000",
"8  c #353300",
"9  c #3D3B00",
"0  c #3B2E1C",
"q  c #233319",
"w  c #001722",
"e  c #001724",
"r  c #001726",
"t  c #001827",
"y  c #091D20",
"u  c #041F2D",
"i  c #001D30",
"p  c #0B2327",
"a  c #08212A",
"s  c #1B2F2D",
"d  c #002034",
"f  c #002035",
"g  c #00283C",
"h  c #112A36",
"j  c #1B343C",
"k  c #242F2B",
"l  c #243B27",
"z  c #2D3536",
"x  c #401B04",
"c  c #2A422A",
"v  c #484500",
"b  c #575400",
"n  c #585400",
"m  c #51560B",
"M  c #6E4804",
"N  c #5E610A",
"B  c #576015",
"V  c #646000",
"C  c #6C6700",
"Z  c #736F00",
"A  c #7B7600",
"S  c #4E4633",
"D  c #002E45",
"F  c #003049",
"G  c #00314C",
"H  c #003354",
"J  c #003355",
"K  c #00375A",
"L  c #00375B",
"P  c #073E5B",
"I  c #003B61",
"U  c #17464E",
"Y  c #114B5F",
"T  c #3F5343",
"R  c #004A79",
"E  c #366978",
"W  c #505E61",
"Q  c #5C6B6F",
"!  c #803708",
"~  c #8F3D08",
"^  c #8B450E",
"/  c #904C0F",
"(  c #964E0C",
")  c #994F08",
"_  c #97500E",
"`  c #9C5309",
"'  c #9D5409",
"]  c #9E5408",
"[  c #934E10",
"{  c #865310",
"}  c #A65209",
"|  c #A65309",
" . c #A0550E",
".. c #AA5709",
"X. c #A75808",
"o. c #BF520B",
"O. c #B4580A",
"+. c #B0580D",
"@. c #827D00",
"#. c #B9650A",
"$. c #AF6111",
"%. c #DF630D",
"&. c #DA670C",
"*. c #D7690C",
"=. c #D96E0B",
"-. c #DE6F0B",
";. c #DD6E0D",
":. c #DD7B0A",
">. c #E0670C",
",. c #EF660E",
"<. c #E26C0C",
"1. c #E86F0D",
"2. c #FF6D0F",
"3. c #FF6F0F",
"4. c #E0790A",
"5. c #F5740D",
"6. c #FF710E",
"7. c #FF710F",
"8. c #FF720E",
"9. c #FF720F",
"0. c #FB750E",
"q. c #F9760E",
"w. c #FF750E",
"e. c #FE770E",
"r. c #F3790D",
"t. c #FE780E",
"y. c #FF780E",
"u. c #FE7B0E",
"i. c #FE7C0D",
"p. c #FE7D0D",
"a. c #FE7E0D",
"s. c #FE7F0D",
"d. c #FE7D0E",
"f. c #FE7C16",
"g. c #FE7D16",
"h. c #FC761B",
"j. c #FF7C1A",
"k. c #FE7C1B",
"l. c #FF781D",
"z. c #FF7B20",
"x. c #FF7B21",
"c. c #8B8500",
"v. c #8F8900",
"b. c #928C00",
"n. c #9A9400",
"m. c #ADA700",
"M. c #AEA600",
"N. c #AFA800",
"B. c #B0A800",
"V. c #B9B200",
"C. c #D39806",
"Z. c #FE800D",
"A. c #FE830D",
"S. c #FE840C",
"D. c #FE850C",
"F. c #FD860C",
"G. c #FD870C",
"H. c #FE870C",
"J. c #FD8D0B",
"K. c #FD8D0C",
"L. c #F09509",
"P. c #FD920B",
"I. c #FC9A0A",
"U. c #FD9A0A",
"Y. c #FC9F09",
"T. c #FE8311",
"R. c #FE8313",
"E. c #FE8510",
"W. c #FE811C",
"Q. c #FD8B18",
"!. c #C2A902",
"~. c #FCA109",
"^. c #FBA509",
"/. c #FCA508",
"(. c #FCA509",
"). c #FBA908",
"_. c #FBAD08",
"`. c #FBB507",
"'. c #FABD06",
"]. c #FF8633",
"[. c #F48738",
"{. c #FE923B",
"}. c #FF913E",
"|. c #C9C000",
" X c #D8CF00",
".X c #F9C705",
"XX c #FAC705",
"oX c #F9C804",
"OX c #FAC805",
"+X c #F9CD04",
"@X c #F9CF04",
"#X c #E8DE00",
"$X c #F9D503",
"%X c #F8DB02",
"&X c #F8DD02",
"*X c #EFE600",
"=X c #F7E501",
"-X c #F8E501",
";X c #F8E701",
":X c #F8E507",
">X c #F7ED00",
",X c #FBCA2B",
"<X c #FCC852",
"1X c #005288",
"2X c #005388",
"3X c #005489",
"4X c #00548A",
"5X c #005D8B",
"6X c #005891",
"7X c #006092",
"8X c #006195",
"9X c #006296",
"0X c #006399",
"qX c #00609D",
"wX c #106598",
"eX c #226688",
"rX c #3A7890",
"tX c #0067A3",
"yX c #0069A6",
"uX c #0067AA",
"iX c #006FB6",
"pX c #0070B4",
"aX c #0071B8",
"sX c #0076C2",
"dX c #0E82C8",
"fX c #1587CB",
"gX c #1B8DCE",
"hX c #37A4DA",
"jX c #46ACDC",
"kX c #7BB5D1",
"lX c #7BB6D5",
"zX c #52BBE5",
"xX c #5DC1E7",
"cX c #6DD2F1",
"vX c #999990",
"bX c #B8D6DE",
"nX c #F5F6E7",
"mX c None",
/* pixels */
"sXsXsXsXsXsXsXsXsXsXsXsXsXsXsXsXsXsXsXsXsXsXsXsXsXsXsXsXsXsXsXsXsXsXsXsXsXsXsXsXsXsXsXsXsXsXsXsXsXsXsXsXsXsXsXsXsXsXsXsXsXsXsXsXsXmX",
"sXsXsXsXsXsXsXsXsXsXsXsXsXsXsXsXsXsXsXsXsXsXsXsXH i t i i f i t i i f i t i i f i i qXsXsXsXsXsXsXsXsXsXsXsXsXsXsXsXsXsXsXsXsXsXsXmX",
"sXsXsXsXsXsXsXsXsXsXsXsXsXsXsXsXsXsXsXsXsXsXsXsXi         1         >         >     6XsXsXsXsXsXsXsXsXsXsXsXsXsXsXsXsXsXsXsXsXsXsXmX",
"sXsXsXsXsXsXsXsXsXsXsXsXsXsXsXsXsXsXsX6X6X3X6X6X3         &         O         X     Y 6X4X6X6XiXsXsXsXsXsXsXsXsXsXsXsXsXsXsXsXsXsXmX",
"sXsXsXsXsXsXsXsXsXsXsXsXsXsXsXsXsXsXsX    ,     A >X>X>X>X>X>X>X>X>X>X>X>X>X>X>X>X>X    <     6XsXsXsXsXsXsXsXsXsXsXsXsXsXsXsXsXsXmX",
"sXsXsXsXsXsXsXsXsXsXsXsXsXsXsXsXsXsXsX    &     A >X>X>X>X>X>X>X>X>X>X>X>X>X>X>X>X>X    &     6XsXsXsXsXsXsXsXsXsXsXsXsXsXsXsXsXsXmX",
"sXsXsXsXsXsXsXsXsXsXsXsXsXsXi i d i u +.-.=.-.-.C.>X>X>X>X>X>X>X>X>X>X>X>X>X>X>X>X>XA A Z A A 2 i t i i R sXsXsXsXsXsXsXsXsXsXsXsXmX",
"sXsXsXsXsXsXsXsXsXsXsXsXsXsX    o     o.2.p.2.2._.>X>X>X>X>X>X>X>X>X>X>X>X>X>X>X>X>X>X>X>X>X>X          I sXsXsXsXsXsXsXsXsXsXsXsXmX",
"sXsXsXsXsXsXsXsXsXsXsXsXsXsX    &     o.2.p.2.2._.>X>X>X>X>X>X>X>X>X>X>X>X>X>X>X>X>X>X>X>X>X>X          P sXsXsXsXsXsXsXsXsXsXsXsXmX",
"sXsXsXsXsXsXsXsXsXsXsXa     ~ o.O.o.o.,.2.A.+X+X&X>X>X>X>X>X>X>X>X>X>X>X>X>X>X>X>X>X>X>X>X>X>XV.V.M.V.V.8     sXsXsXsXsXsXsXsXsXsXmX",
"sXsXsXsXsXsXsXsXsXsXsX4     o.2.p.2.2.2.2.J.>X>X>X>X>X>X>X>X>X>X>X>X>X>X>X>X>X>X>X>X>X>X>X>X>X>X>X>X>X>X9     sXsXsXsXsXsXsXsXsXsXmX",
"sXsXsXsXsXsXsXsXuXI I { ] ' [.}.{.p.p.S.J./.>X>X>X>X>X>X>X>X>X>X>X>X>X>X>X>X>X>X>X>X>X>X>X>X>X>X>X>X>X>Xv.9 5 P I 6XsXsXsXsXsXsXsXmX",
"sXsXsXsXsXsXsXsX6X    -.2.2.2.2.].2.2.+X>X>X>X>X>X>X>X>X>X>X>X>X>X>X>X>X>X>X>X>X>X>X>X>X>X>X>X>X>X>X>X>X>X>XV.    I sXsXsXsXsXsXsXmX",
"sXsXsXsXsXsXsXsX6X    -.2.2.2.2.].2.2.+X>X>X>X>X>X>X>X>X>X>X>X>X>X>X>X>X>X>X>X>X>X>X>X>X>X>X>X>X>X>X>X>X>X>XV.    I sXsXsXsXsXsXsXmX",
"sXsXsXsXsXsXsXsX2X    <.2.2.2.2.E.>X>X;X>X>X>X>X>X>X_.2.2.2.2.2.2.2.p.2.2.2.2.p.2.2.2.2.J.>X>X>X>X>X>X>X>X>XM.    J sXsXsXsXsXsXsXmX",
"sXsXdXgXfXsXdXgXwX    -.2.2.2.2.J.>X>X>X>X>X>X>X>X>X_.2.2.2.2.2.2.2.p.2.2.2.2.p.2.2.2.2.J.>X>X>X>X>X>X>X>X>XV.    I sXsXsXsXsXsXsXmX",
"sXsXhXcXzXsXeXE T M M 4.D.D.D.J./.>X>X>X>X>X>X>X$X+X^.D.D.s.D.s.D.D.F.D.s.D.D.Z.p.p.t.p.Q.<X<X:X>X>X>X>X>X>X|.9 9 c I I sXsXsXsXsXmX",
"sXsXjXcXxXsXh   x 2.2.p.2.2.+X>X>X>X>X>X>X>X>X>XJ.2.2.2.2.p.2.2.2.2.p.2.2.2.2.p.2.2.2.2.j.2.2.,X>X>X>X>X>X>X>X>X>X9     dXgXfXsXsXmX",
"sXsXlXnXbXsXk   x 2.2.p.2.2.+X>X>X>X>X>X>X>X>X>XJ.2.2.2.2.p.2.2.2.2.p.2.2.2.2.p.2.2.2.2.j.2.2.,X>X>X>X>X>X>X>X>X>X9     hXcXzXsXsXmX",
"sXsXkXvXz u #.-.1.p.p.P._._.&X>X>X>X>X>X>X'.J.J.Y._.(._._.)._.(._._.)._.(._._.)._._.u.p.W.j.j.T.J.J.>X>X>X>X>X>X>Xn.A V s j rXsXsXmX",
"sXsXyXD     -.2.2.2.2._.>X>X>X>X>X>X>X>X>X_.2.2._.>X>X>X>X>X>X>X>X>X>X>X>X>X>X>X>X>X2.2.p.2.2.2.2.2.>X>X>X>X>X>X>X>X>XV.    Q sXsXmX",
"sXsXtXg     <.2.2.2.2.(.>X>X>X>X>X>X>X+X+X~.2.2._.>X>X>X>X>X>X#XV.V.N.V.V.>X>X>X>X>X2.2.u.2.2.2.2.2.+X+X&X>X>X>X>X>X>Xm.    W sXsXmX",
"sXsXyXD     -.2.2.2.2._.>X>X>X>X>X>X>X2.2.J.>X>X>X>X>X>X>X>X>XV.    &     >X>X>X>X>X>X>X_.2.2.2.2.2.2.2._.>X>X>X>X>X>XV.    G sXsXmX",
"sXsXyXD     -.2.2.2.2._.>X>X>X>X>X>X>X2.2.J.>X>X>X>X>X>X>X>X>XV.    &     >X>X>X>X>X>X>X_.2.2.2.2.2.2.2._.>X>X>X>X>X>XV.    G sXsXmX",
"sXi i y % & >.7.3.7.7.P.>X>X>X>X'.J.J.~._.'.>X>X>X>X>X>X>X>X>XN.& & * & & >X>X>X>X>X>X>X+X_._.u.p.i.p.p.G.J.J.>X>X>X>X*Xb.A B i r mX",
"sX    X     %.2.2.2.2.K.>X>X>X>X_.2.2.+X>X>X>X>X>X>X>X>X>X>X>XV.    &     >X>X>X>X>X>X>X>X>X>X2.2.p.2.2.p.2.2.>X>X>X>X>X>X>XA     mX",
"sX    .     %.2.2.2.2.K.>X>X>X>X_.2.2.+X>X>X>X>X>X>X>X>X>X>X>XV.    &     >X>X>X>X>X>X>X>X>X>X2.2.p.2.2.p.2.2.>X>X>X>X>X>X>XA     mX",
"sX    ^ 2.2.0.2.2.`.`.@X>X>X>X>X%X2.2.XX>X>X>X>X>X>X>X>X>X      V.V.N.V.c.    A >X>X>X>X>X>X>X2.2.9.2.2.3.2.2.>X>X>X>X>X>X>XC     mX",
"sX    [ 2.2.p.2.2.>X>X>X>X>X>X>X&X2.2.+X>X>X>X>X>X>X>X>X>X      >X>X>X>XV.    A >X>X>X>X>X>X>X2.2.w.2.2.3.2.2.>X>X>X>X>X>X>XA     mX",
"sX: :  .p.p.p.p.p.>X>X>X>X>X>X>X'.p.p.OX>X>X>X>X>X>XV.A A + & + A A Z A b & & v A A  X>X>X>X>Xp.p.e.7.7.6.7.7.>X>X>X>X>X>X>XZ , = mX",
"sX    _ 2.2.p.2.2.>X>X>X>X>X>X>X_.2.2.+X>X>X>X>X>X>XA               &         &     V.>X>X>X>X2.2.p.2.2.p.2.2.>X>X>X>X>X>X>XA     mX",
"sX    _ 2.2.p.2.2.>X>X>X>X>X>X>X_.2.2.+X>X>X>X>X>X>XA               &         &     V.>X>X>X>X2.2.p.2.2.p.2.2.>X>X>X>X>X>X>XA     mX",
"sX    } 2.2.t.2.2.>X>X>X>X>X>X>X=X>X>X;X>X>X>X>X>X>X XV.V.      V.V.N.V.@.    n V.V.#X>X>X>X>X2.2.y.2.2.t.2.2.>X>X>X>X>X>X>XC     mX",
"sX    ] 2.2.p.2.2.>X>X>X>X>X>X>X>X>X>X>X>X>X>X>X>X>X>X>X>X      >X>X>X>XV.    A >X>X>X>X>X>X>X2.2.p.2.2.p.2.2.>X>X>X>X>X>X>XA     mX",
"sX: : X.p.p.p.p.p.>X>X>X>X>X>X>X+X_._.&X>X>X>X>XA A Z A A @ & + A A Z A n & & v A A C A n.>X>Xp.p.d.p.p.p.p.p.>X>X>X>X>X>X>XZ o = mX",
"sX    ] 2.2.p.2.2.>X>X>X>X>X>X>X_.2.2.+X>X>X>X>X    &               &         &         9 >X>X2.2.p.2.2.p.2.2.>X>X>X>X>X>X>XA     mX",
"sX    ] 2.2.p.2.2.>X>X>X>X>X>X>X_.2.2.+X>X>X>X>X    &               &         &         9 >X>X2.2.p.2.2.p.2.2.>X>X>X>X>X>X>XA     mX",
"sX> 1 X.p.p.p.p.p.>X>X>X>X>X>X>X).p.p.oX>X>X>X>XA A v & & n A C A A Z A C A A 7 & & n A n.>X>Xp.p.e.7.7.7.7.7.>X>X>X>X>X>X>XZ $ - mX",
"sX    ] 2.2.p.2.2.>X>X>X>X>X>X>X_.2.2.+X>X>X>X>X>X>XA     V.>X>X>X>X>X>X>X>X>X9     V.>X>X>X>X2.2.w.2.2.3.2.2.>X>X>X>X>X>X>XA     mX",
"sX    / 2.2.0.2.2.`.`.@X>X>X>X>X_.2.2.`.+X$X>X>X>X>XC     m.>X>X>X>X>X>X>X>X>X7     m.>X&X+X+X2.2.8.2.2.3.2.2.>X>X>X>X#XV.V.N     mX",
"sXsXsXI     %.2.2.2.2.K.>X>X>X>X>X>X>X2.2.J.>X>X>X>XA     V.>X>X>X>X>X>X>X>X>X9     V.>X_.2.2.2.2.p.2.2._.>X>X>X>X>X>XV.    U sXsXmX",
"sXsXsXI     %.2.2.2.2.K.>X>X>X>X>X>X>X2.2.J.>X>X>X>XA     V.>X>X>X>X>X>X>X>X>X9     V.>X_.2.2.2.2.p.2.2._.>X>X>X>X>X>XV.    I sXsXmX",
"sXsXsXL : & &.w.7.w.w.I.>X>X>X>X>X>X>X_._.Y.J.J.'.>XV.A A  X>X>X>X>X>X>X>X>X>Xn.A A :.J.H.p.p.y.p.i._._.+X>X>X>X>X>X>XB.& : L sXsXmX",
"sXsXsXI     -.2.2.2.2._.>X>X>X>X>X>X>X>X>X_.2.2._.>X>X>X>X>X>X>X>X>X>X>X>X>X>X>X>X>X2.2.p.2.2.2.2.2.>X>X>X>X>X>X>X>X>XV.    I sXsXmX",
"sXsXsXI     *.2.2.2.2.U.+X+X-X>X>X>X>X>X>X_.2.2.~.+X.X+X+XoX+X.X+X+XoX+X.X+X+XOX+X+X2.2.f.2.2.2.2.2.>X>X>X>X>X>X>X|.V.c.    I sXsXmX",
"sXsXsXsXsXsXp   x 2.2.p.2.2.+X>X>X>X>X>X>X>X>X>XJ.2.2.2.2.p.2.2.2.2.p.2.2.2.2.p.2.2.2.2.j.2.2.2.2.J.>X>X>X>X>X>X>X9     9XsXsXsXsXmX",
"sXsXsXsXsXsXi   x 2.2.p.2.2.+X>X>X>X>X>X>X>X>X>XJ.2.2.2.2.p.2.2.2.2.p.2.2.2.2.p.2.2.2.2.j.2.2.2.2.J.>X>X>X>X>X>X>X9     0XsXsXsXsXmX",
"sXsXsXsXsXsXH i 0 -.-.r.p.p.U._.'.>X>X>X>X>X>X>X/.J.G.J.J.a.p.t.p.p.d.p.t.p.p.d.p.p.y.p.g.x.x.R.J./.>X>X>X>X XA A q e w 0XsXsXsXsXmX",
"sXsXsXsXsXsXsXsX6X    -.2.2.2.2.J.>X>X>X>X>X>X>X>X>X>X>X>X2.2.2.2.2.p.2.2.2.2.p.2.2.2.2.p.2.2.+X>X>X>X>X>X>XV.    D 0XsXsXsXsXsXsXmX",
"sXsXsXsXsXsXsXsX6X    -.2.2.2.2.J.>X>X>X>X>X>X>X>X>X>X>X>X2.2.2.2.2.p.2.2.2.2.p.2.2.2.2.p.2.2.+X>X>X>X>X>X>XV.    D 8XpXaXsXsXsXsXmX",
"sXsXsXsXsXsXsXsX1X    <.2.2.2.2.l.2.2.+X>X>X>X>X>X>X>X>X>X+X+XXX+X+XOX+XXX+X+XOX+X+XXX+XoX+X+X-X>X>X>X>X>X>Xm.    g 7X5X0XsXsXsXsXmX",
"sXsXsXsXsXsXsXsX6X    -.2.2.2.2.z.2.2.+X>X>X>X>X>X>X>X>X>X>X>X>X>X>X>X>X>X>X>X>X>X>X>X>X>X>X>X>X>X>X>X>X>X>XV.    D 7X5X0XsXsXsXsXmX",
"sXsXsXsXsXsXsXsXqXi i $.-.;.h.z.k.p.p.I._.'.>X>X>X>X>X>X>X>X>X>X>X>X>X>X>X>X>X>X>X>X>X>X>X>X>X>X>X>X>X>Xn.A m u i R sXsXsXsXsXsXsXmX",
"sXsXsXsXsXsXsXsXsXsXsX4     2.2.p.2.2.2.2.J.>X>X>X>X>X>X>X>X>X>X>X>X>X>X>X>X>X>X>X>X>X>X>X>X>X>X>X>X>X>X9     pXaXsXsXsXsXsXsXsXsXmX",
"sXsXsXsXsXsXsXsXsXsXsXa     2.2.p.2.2.2.2.J.>X>X>X>X>X>X>X>X>X>X>X>X>X>X>X>X>X>X>X>X>X>X>X>X>X>X>X>X>X>X9     5X0XsXsXsXsXsXsXsXsXmX",
"sXsXsXsXsXsXsXsXsXsXsXR I U ( ] X.] ] q.p.A.J.J.'.>X>X>X>X>X>X>X>X>X>X>X>X>X>X>X>X>X>X>X>X>X>X9 9 6 9 9 l D F 5X0XsXsXsXsXsXsXsXsXmX",
"sXsXsXsXsXsXsXsXsXsXsXsXsXsX    o     2.2.p.2.2._.>X>X>X>X>X>X>X>X>X>X>X>X>X>X>X>X>X>X>X>X>X>X          G sXsXsXsXsXsXsXsXsXsXsXsXmX",
"sXsXsXsXsXsXsXsXsXsXsXsXsXsX    :     2.2.5.2.2.L.+X.X+X+XoX+X.X+X+XOX+X+XXX+XOX+X+X!.V.N.V.V.          G sXsXsXsXsXsXsXsXsXsXsXsXmX",
"sXsXsXsXsXsXsXsXsXsXsXsXsXsXsXsXsXsXsX    #     -.2.2.2.2.p.2.2.2.2.p.2.2.2.2.p.2.2.!   &     6XsXsXsXsXsXsXsXsXsXsXsXsXsXsXsXsXsXmX",
"sXsXsXsXsXsXsXsXsXsXsXsXsXsXsXsXsXsXsX    ;     -.2.2.2.2.p.2.2.2.2.p.2.2.2.2.p.2.2.!   1     6XsXsXsXsXsXsXsXsXsXsXsXsXsXsXsXsXsXmX",
"sXsXsXsXsXsXsXsXsXsXsXsXsXsXsXsXsXsXsXI I L I I { ] | ] ] X.] | ] ] X.] ) ..] X.] ` S I K I I uXsXsXsXsXsXsXsXsXsXsXsXsXsXsXsXsXsXmX",
"sXsXsXsXsXsXsXsXsXsXsXsXsXsXsXsXsXsXsXsXsXsXsXsXi         >         1         X     6XsXsXsXsXsXsXsXsXsXsXsXsXsXsXsXsXsXsXsXsXsXsXmX",
"sXsXsXsXsXsXsXsXsXsXsXsXsXsXsXsXsXsXsXsXsXsXsXsXi         >         >         >     6XsXsXsXsXsXsXsXsXsXsXsXsXsXsXsXsXsXsXsXsXsXsXmX",
"sXsXsXsXsXsXsXsXsXsXsXsXsXsXsXsXsXsXsXsXsXsXsXsXsXsXsXsXsXsXsXsXsXsXsXsXsXsXsXsXsXsXsXsXsXsXsXsXsXsXsXsXsXsXsXsXsXsXsXsXsXsXsXsXsXmX"
};
