/* XPM */
static char *result[] = {
/* columns rows colors chars-per-pixel */
"65 64 163 2 ",
"   c black",
".  c #00070C",
"X  c #0F1307",
"o  c #171A06",
"O  c #1E1D00",
"+  c #1A1B09",
"@  c #000F18",
"#  c #0A1213",
"$  c #02121A",
"%  c #0A1318",
"&  c #1D1B13",
"*  c #131718",
"=  c #1E1A1A",
"-  c #1B2819",
";  c #383507",
":  c #3D3B01",
">  c #273011",
",  c #333313",
"<  c #001827",
"1  c #001C2C",
"2  c #0D1D28",
"3  c #001D30",
"4  c #1D2326",
"5  c #002034",
"6  c #082030",
"7  c #0F2C3B",
"8  c #162E31",
"9  c #2F2927",
"0  c #322926",
"q  c #332D29",
"w  c #392C28",
"e  c #3F3827",
"r  c #37302D",
"t  c #3C312D",
"y  c #2E3334",
"u  c #3F3733",
"i  c #373738",
"p  c #453E2A",
"a  c #413631",
"s  c #453D31",
"d  c #453D39",
"f  c #374113",
"g  c #374D27",
"h  c #434000",
"j  c #565809",
"k  c #6C6700",
"l  c #736F00",
"z  c #7B7600",
"x  c #7C7A06",
"c  c #7E7318",
"v  c #5F5931",
"b  c #002C43",
"n  c #0C3645",
"m  c #1F3740",
"M  c #003455",
"N  c #00375B",
"B  c #073E5B",
"V  c #003B61",
"C  c #083E61",
"Z  c #263B75",
"A  c #29434A",
"S  c #074668",
"D  c #194868",
"F  c #004B78",
"G  c #214F6D",
"H  c #2C4079",
"J  c #5D4A44",
"K  c #655752",
"L  c #755D55",
"P  c #6F615B",
"I  c #496A74",
"U  c #746C68",
"Y  c #7F6F68",
"T  c #7A7B73",
"R  c #867A0F",
"E  c #8E7C11",
"W  c #816259",
"Q  c #93746A",
"!  c #9B7E75",
"~  c #A17B70",
"^  c #9A9400",
"/  c #A59E00",
"(  c #B9B200",
")  c #D2CF09",
"_  c #D9DC18",
"`  c #F3CE06",
"'  c #FCC900",
"]  c #FADD00",
"[  c #E2DE11",
"{  c #E5E40E",
"}  c #F6E802",
"|  c #F7ED00",
" . c #A58075",
".. c #AC8377",
"X. c #A7857A",
"o. c #FF9359",
"O. c #FF9C67",
"+. c #FFA676",
"@. c #005388",
"#. c #005D8B",
"$. c #0B5E88",
"%. c #005891",
"&. c #006093",
"*. c #00629B",
"=. c #0067A3",
"-. c #0069A6",
";. c #0067AA",
":. c #006FB6",
">. c #0070B4",
",. c #0072B9",
"<. c #0076C2",
"1. c #2362FF",
"2. c #7BACBE",
"3. c #0E82C8",
"4. c #1587CB",
"5. c #1B8DCE",
"6. c #37A4DA",
"7. c #46ACDC",
"8. c #7BADC0",
"9. c #7BB6D3",
"0. c #52BBE5",
"q. c #5EC2E8",
"w. c #6DD2F1",
"e. c #9F8B82",
"r. c #AE948A",
"t. c #BE9689",
"y. c #B59E94",
"u. c #BFA79C",
"i. c #B8B8AD",
"p. c gray75",
"a. c #CAA99C",
"s. c #E5AF9F",
"d. c #FFB994",
"f. c #CDB0A4",
"g. c #CFB5A9",
"h. c #E8B5A5",
"j. c #E4BDAF",
"k. c #EBBBAB",
"l. c #DFC3B6",
"z. c #F3C9B9",
"x. c #92A5DC",
"c. c #BEBADE",
"v. c #B8D6DD",
"b. c #94D5E8",
"n. c #ACC0F9",
"m. c #B2C6FB",
"M. c #CFC9C5",
"N. c #C8C0DC",
"B. c #EFD1C3",
"V. c #F7D1C1",
"C. c #F8D3C4",
"Z. c #FDDBCC",
"A. c #FFDFD0",
"S. c #F2DED8",
"D. c #FFE4D7",
"F. c #FFE7DC",
"G. c #C8C3E0",
"H. c #C8D8FF",
"J. c #DBE4FD",
"K. c #FFEDE4",
"L. c #F5F6E7",
"P. c #FFF8F4",
"I. c #FFFFFF",
/* pixels */
"<.<.<.<.<.<.<.<.<.<.<.<.<.<.<.<.<.<.<.=.%.@.%.;.<.<.<.<.<.<.<.<.<.<.<.<.<.<.<.<.<.<.<.<.<.<.<.<.<.<.<.<.<.<.<.<.<.<.<.<.<.<.<.<.<.",
"<.<.<.<.<.<.<.<.<.<.<.<.<.<.<.<.<.<.<.3   @   V <.<.<.<.<.<.<.<.<.<.<.<.<.<.<.<.<.<.<.<.<.<.<.<.<.<.<.<.<.<.<.<.<.<.<.<.<.<.<.<.<.",
"<.<.<.<.<.<.<.<.<.<.<.<.<.<.<.<.<.;.%.g : #   M <.<.<.<.<.<.<.<.<.<.<.<.<.<.<.<.<.<.<.<.<.<.<.<.<.<.<.<.<.<.<.<.<.<.<.<.<.<.<.<.<.",
"<.<.<.<.<.<.<.<.<.<.<.<.<.<.<.<.<.V . ( } -   V <.<.<.<.<.<.<.<.<.<.<.<.<.<.<.<.<.<.<.<.<.<.<.<.<.<.<.<.<.<.<.<.<.<.<.<.<.<.<.<.<.",
"<.<.<.<.<.<.<.<.<.<.<.<.<.<.<.;.%.A ; ) | >   n %.;.<.<.<.<.<.<.<.<.<.<.<.<.<.<.<.<.<.<.<.<.<.<.<.<.<.<.<.<.<.<.<.<.<.<.<.<.<.<.<.",
"<.<.<.<.<.<.<.<.<.<.<.<.<.<.<.V   c ' _ | _ | -   V <.<.<.<.<.<.<.<.<.<.<.<.<.<.<.<.<.<.<.<.<.<.<.<.<.<.<.<.<.<.<.<.<.<.<.<.<.<.<.",
"<.<.<.<.<.<.<.<.<.<.<.<.<.<.<.M   E ' [ | { | >   n %.@.%.@.%.@.%.@.%.@.%.@.%.@.%.@.@.%.@.%.%.<.<.<.<.<.<.<.<.<.<.<.<.<.<.<.<.<.<.",
"<.<.<.<.<.<.<.<.<.<.<.<.<.<.<.V   c ' _ | _ | _ | >   #   #                                   <.<.<.<.<.<.<.<.<.<.<.<.<.<.<.<.<.<.",
"<.<.<.<.<.<.<.<.<.<.<.<.<.<.<.M   E ' [ | { | | | :   O   O                                   $.%.<.<.<.<.<.<.<.<.<.<.<.<.<.<.<.<.",
"<.<.<.<.<.<.<.<.<.<.<.<.<.<.<.V   c ' } | | | | | | | | | | | | | | | | | | | | | | | | | | (     <.<.<.<.<.<.<.<.<.<.<.<.<.<.<.<.",
"<.<.<.<.<.<.<.<.<.<.<.<.<.<.<.M   E ' } | | | | | | | | | | | | | | | | | | | | | | | | | | (     $.@.%.@.%.@.%.*.<.<.<.<.<.<.<.<.",
"<.<.<.<.<.<.<.<.<.<.<.<.<.<.<.V   R ' ] | | | | | | | | | | | | | | | | | | | | | | | | | | | | (               3 <.<.<.<.<.<.<.<.",
"<.<.<.<.<.<.<.<.<.<.<.<.<.<.<.b . R ` } | | | | | | | | | | | | | | | | | | | | | | | | | | | | (               > %.*.<.<.<.<.<.<.",
"<.<.<.<.<.<.<.<.<.<.<.<.<.<.<.3   x | | | | | | | | | | | | | | | | | | | | | | | | | | | | | | | | | | | | | | z   3 <.<.<.<.<.<.",
"<.<.<.<.<.<.<.<.<.<.<.<.<.<.<.8 X j } | | | | | | | | | | | | | | | | | | | | | | | | | | | | | | | | | | | | | l o 5 <.<.<.<.<.<.",
"<.<.3.5.4.<.3.5.4.<.<.<.<.<.,.v   ; | | | | | | | | | | | | | | | | | | | | | | | | | | | | | | | | | | | | | | z   2 <.<.<.<.<.<.",
"<.<.6.w.q.<.6.w.0.<.<.<.<.%.V g ; j ) / z l z l z l z l z l z l z k z k z k z k z k z k k z k z k z z | | | | | ^ : f B F <.<.<.<.",
"<.<.7.w.q.<.7.w.q.5.4.<.<.V   @   @   X   O   O   O   O   O   O                                       | | | | | | | z   3 5.4.<.<.",
"<.<.9.L.v.<.9.L.b.w.0.%.V A y i y d a v e p p p e p e s u d u d u q u q u q u q u q a q q u q u q u , z z | | | | | l # 7 w.0.<.<.",
"<.<.9.L.v.<.9.L.b.w.q.S   a A.A.A.A.Z.Z.A.A.A.Z.A.A.A.A.A.A.A.A.A.A.A.A.A.A.A.A.A.A.D.Z.Z.D.A.A.A.A.u.    | | | | | z   7 w.q.<.<.",
"<.<.-.#.*.<.-.#.8.i.I U Q  .A.A.A.A.A.A.A.A.A.A.A.A.A.A.A.A.A.A.A.A.A.A.A.A.A.A.A.A.A.A.A.A.A.A.A.A.g.u , z z | | | l * m L.v.<.<.",
"<.<.-.#.&.<.-.#.2.T   Q s.k.A.A.A.A.A.A.A.A.A.A.A.A.A.A.A.A.A.A.A.A.A.A.A.A.A.A.A.A.A.A.A.A.A.A.A.A.A.A.u.    | | | z   y L.v.<.<.",
"<.<.-.#.*.<.-.#.&.7 * K h.k.A.A.A.A.A.A.A.A.A.A.A.A.A.A.A.A.A.A.A.A.A.A.A.A.A.A.A.A.A.A.A.A.A.A.A.A.A.A.y.+ O | | | l & i #.*.<.<.",
"<.<.-.#.&.<.=.#.&.b   r s.k.A.A.A.A.A.A.A.A.A.A.A.A.A.A.A.A.A.A.A.A.A.A.A.A.A.A.A.A.A.A.A.A.A.A.A.A.A.A.u.    | | | z . y #.*.<.<.",
"<.<.<.<.<.<.-.#.&.b # a h.k.D.A.A.A.A.A.A.A.A.A.A.A.A.A.A.A.A.A.A.A.A.A.A.A.A.A.A.A.A.A.A.A.A.A.A.A.A.A.u.& O | | | l X 1 >.,.<.<.",
"<.<.<.<.<.<.-.#.&.b   t s.k.Z.A.A.A.A.A.A.A.A.A.A.A.A.A.A.A.A.A.A.A.A.A.A.A.A.A.A.A.A.A.A.A.A.A.A.A.A.A.u.    | | | z   < <.<.<.<.",
"<.<.-.#.*.<.<.<.<.N * a h.k.A.A.A.A.A.A.A.A.A.A.A.A.A.A.A.A.A.A.A.A.A.A.A.A.A.A.A.A.A.A.A.A.A.A.A.A.Z.A.y.& O | | | l X 5 <.<.<.<.",
"<.<.-.#.*.<.<.<.<.V   t s.k.A.A.A.A.A.A.A.A.A.A.A.A.A.A.A.A.A.A.A.A.A.A.A.A.A.A.A.A.A.A.A.A.A.A.A.A.D.Z.u.    | | | z   3 <.<.<.<.",
"<.<.,.>.,.<.<.<.-.b = u h.k.A.A.A.A.A.A.A.A.A.A.A.A.A.A.A.A.A.A.A.A.A.A.A.A.A.A.A.A.A.A.A.A.A.A.A.A.A.A.l.Y v : k | l o 5 <.<.<.<.",
"<.<.<.<.<.<.<.<.-.b   t h.k.A.D.A.A.A.A.A.A.A.A.A.A.A.A.A.A.A.A.A.A.A.A.A.A.A.A.A.A.A.A.A.A.A.A.A.A.A.A.A.A.u.  : | z   3 <.<.<.<.",
"<.<.<.<.<.<.<.F 3 u L Q z.z.g.u q u q u q u P A.A.A.A.A.A.A.A.A.A.A.A.A.A.A.A.A.A.A.A.A.A.A.A.A.A.A.A.A.A.A.u.+ h | l o 5 <.<.<.<.",
"<.<.<.<.<.<.<.V   t h.k.Z.Z.u.              u A.A.A.A.A.A.A.A.A.A.A.A.A.A.A.A.A.A.A.A.A.A.A.A.A.A.A.A.A.Z.Z.u.  : | z   5 <.<.<.<.",
"<.<.<.<.<.<.<.N % a h.k.g.u r Y P Y P Y P Y K u L A.A.A.A.A.A.A.A.A.A.A.A.A.A.A.A.A.A.A.A.A.A.A.A.A.A.A.A.A.y.& h | l o 5 <.<.<.<.",
"<.<.<.<.<.<.<.V   w h.k.u.    A.A.A.A.A.A.A.Y   i A.A.A.A.A.A.A.A.A.A.A.A.A.A.A.A.A.A.A.A.A.A.A.A.A.A.A.A.A.u.  : | z   3 <.<.<.<.",
"<.<.<.<.<.<.<.N * a h.k.l.Y Y A.A.A.A.A.A.A.u.Y e.A.A.A.A.A.A.A.A.A.A.A.A.A.A.A.A.A.A.A.A.A.A.A.A.A.A.A.A.A.y.= : | l o 5 <.<.<.<.",
"<.<.<.<.<.<.<.V   u s.k.A.A.A.A.A.A.A.A.A.A.A.A.A.A.A.A.A.A.A.A.A.A.A.A.A.A.A.A.A.A.A.A.A.A.A.A.A.A.A.A.A.A.a.  , | z   3 <.<.<.<.",
"<.<.<.=.3 < 3 2 = a h.k.A.A.g.u q u q u q u P A.A.A.A.A.A.A.A.A.A.A.A.A.A.A.A.A.A.A.A.A.A.A.A.A.A.A.A.A.A.A.l.Y v , - @ 5 <.<.<.<.",
"<.<.<.%.      =   t s.k.A.A.u.              u A.A.A.A.A.A.A.A.A.A.A.A.A.A.A.A.A.A.A.A.A.A.A.A.A.A.A.A.A.A.A.A.A.Y   =   6 <.<.<.<.",
"<.%.    ..~ ..~ ..t.C.Z.u.  v I.I.I.H.1.1.1.Z   u A.A.A.A.A.A.A.A.A.A.A.A.A.A.A.A.A.A.A.A.A.A.A.A.A.A.A.A.A.A.A.l.u.y.u.K   3 <.<.",
"<.%.    s.s.s.h.s.k.A.A.u.. i I.I.I.H.1.1.1.H   u A.A.A.A.A.A.A.A.A.A.A.A.A.A.A.A.A.A.A.A.A.A.A.A.A.A.A.A.A.A.A.A.A.A.D.Y   3 <.<.",
"<.@.    s.s.C.V.C.C.D.A.S.I.I.I.I.I.H.1.1.1.x.p.M.A.A.A.A.A.A.A.A.A.A.A.A.A.A.A.A.A.A.A.A.A.A.A.A.A.A.A.A.A.A.A.Y   u A.P   < <.<.",
"<.%.    s.s.A.A.A.A.A.A.D.I.I.I.I.I.H.1.1.1.n.I.P.A.A.A.A.A.A.A.A.A.A.A.A.A.A.A.A.A.A.A.A.A.A.A.A.A.A.A.A.A.A.A.Y   u A.Y   3 <.<.",
"<.@.    s.s.A.A.A.A.A.A.F.I.I.I.I.I.H.1.1.1.m.I.P.A.A.A.A.A.A.A.A.A.A.A.A.A.A.A.A.A.A.A.A.A.A.A.A.A.A.A.A.A.u.  =   q A.P   < <.<.",
"<.%.    s.s.A.A.A.A.A.A.F.I.I.I.I.I.H.1.1.1.n.I.P.A.A.A.A.A.A.A.A.A.A.A.A.A.A.A.A.A.A.A.A.A.A.A.A.A.A.A.A.A.u.  =   u A.Y   3 <.<.",
"<.@.    s.s.A.A.A.A.A.A.D.F.K.I.H.1.1.1.1.H.J.F.F.A.A.A.A.A.A.A.A.A.A.A.A.A.A.A.A.A.A.A.A.A.A.A.A.A.A.A.A.A.B.u.y.u.g.A.P   < <.<.",
"<.%.    s.s.A.A.A.A.A.A.Z.A.F.I.H.1.1.1.1.I.I.A.A.A.A.A.A.A.A.A.A.A.A.A.A.A.A.A.A.A.A.A.A.A.A.A.A.A.A.A.A.A.A.A.A.A.A.A.Y   3 <.<.",
"<.,.%.D     s.h.s.h.s.k.A.A.D.F.F.c.c.N.G.K.F.D.A.A.A.A.A.A.A.A.A.A.A.A.A.A.A.A.A.A.A.A.A.A.A.A.A.A.A.A.A.A.C.s.h.s.L   4 %.*.<.<.",
"<.<.<.%.    s.h.s.h.s.k.A.A.A.A.Z.D.Z.Z.D.A.A.Z.A.A.A.A.A.A.A.A.A.A.A.A.A.A.A.A.A.A.A.A.A.A.A.A.A.A.A.A.A.A.C.s.h.s.L   < <.<.<.<.",
"<.<.<.:.%.G   w w J s.k.Z.A.A.A.A.A.d.o.O.o.O.o.+.A.A.A.A.A.A.A.A.A.A.A.A.A.A.A.A.A.A.A.A.A.A.A.A.A.A.A.A.A.a.w a   4 %.%.<.<.<.<.",
"<.<.<.<.<.%.  *   9 s.h.D.Z.A.A.A.A.d.o.O.o.O.o.+.A.A.A.A.A.A.A.A.A.A.A.A.A.A.A.A.A.A.A.A.A.A.A.A.A.A.A.A.A.u.  %   < >.,.<.<.<.<.",
"<.<.<.<.<.<.<.V   t s.k.A.A.A.A.A.A.A.A.A.A.A.A.A.A.A.A.A.A.A.A.A.A.A.A.A.A.A.A.A.A.A.A.A.A.A.A.A.A.A.A.A.A.y.  $ S F #.*.<.<.<.<.",
"<.<.<.<.<.<.<.M   0 s.k.A.A.A.A.A.A.A.A.A.A.A.A.A.A.A.A.A.A.A.A.A.A.A.A.A.A.A.A.A.A.A.A.A.A.A.A.A.A.A.A.Z.C.r.  $ #.&.#.*.<.<.<.<.",
"<.<.<.<.<.<.<.V   t s.k.A.D.Z.D.A.A.A.A.A.A.A.A.A.A.A.A.A.A.A.A.A.A.A.A.A.A.A.A.A.A.A.A.A.A.A.A.A.A.A.A.C.s...  5 <.<.<.<.<.<.<.<.",
"<.<.<.<.<.<.<.V   0 ..t.C.C.A.Z.A.A.A.A.A.A.A.A.A.A.A.A.A.A.A.A.A.A.A.A.A.A.A.A.A.A.A.A.A.A.A.A.A.A.Z.C.j...W   1 <.<.<.<.<.<.<.<.",
"<.<.<.<.<.<.<.<.<.C   t s.k.A.A.A.A.A.A.A.A.A.A.A.A.A.A.A.A.A.A.A.A.A.A.A.A.A.A.A.A.A.A.A.A.A.A.A.A.C.s...    #.*.<.<.<.<.<.<.<.<.",
"<.<.<.<.<.<.<.<.<.V   q ..t.C.C.A.A.A.A.A.A.A.A.A.A.A.A.A.A.A.A.A.A.A.A.A.A.A.A.A.A.A.A.A.A.Z.C.C.C.j...W     #.*.<.<.<.<.<.<.<.<.",
"<.<.<.<.<.<.<.<.<.<.<.D   t s.k.A.A.A.A.A.A.A.A.A.A.A.A.A.A.A.A.A.A.A.A.A.A.A.A.A.A.A.A.A.A.V.s.s.s...    <.<.<.<.<.<.<.<.<.<.<.<.",
"<.<.<.<.<.<.<.<.<.<.<.V   9 ..X.a.f.C.V.C.C.C.C.C.V.C.C.C.Z.A.A.A.A.A.A.A.C.C.C.C.C.C.C.z.C.l...~ ..W     <.<.<.<.<.<.<.<.<.<.<.<.",
"<.<.<.<.<.<.<.<.<.<.<.<.<.C   =   t h.h.s.h.s.h.s.h.s.h.s.z.A.A.A.D.A.D.A.s.s.s.s.s.s.s.h.s...        <.<.<.<.<.<.<.<.<.<.<.<.<.<.",
"<.<.<.<.<.<.<.<.<.<.<.<.<.V   %   0 .. ...~ .. ...~ ..~ ..a.C.C.C.z.C.z.C.....~ ..~ ..~ ~ ..W         <.<.<.<.<.<.<.<.<.<.<.<.<.<.",
"<.<.<.<.<.<.<.<.<.<.<.<.<.<.<.<.<.C   %   =   =   =   =   L s.h.s.s.s.h.s.                    <.<.<.<.<.<.<.<.<.<.<.<.<.<.<.<.<.<.",
"<.<.<.<.<.<.<.<.<.<.<.<.<.<.<.<.<.V   @   @   $   %   *   J .. ...! ..~ ..                    <.<.<.<.<.<.<.<.<.<.<.<.<.<.<.<.<.<.",
"<.<.<.<.<.<.<.<.<.<.<.<.<.<.<.<.<.<.<.<.<.<.<.<.<.<.<.<.<.6   %           %.<.<.<.<.<.<.<.<.<.<.<.<.<.<.<.<.<.<.<.<.<.<.<.<.<.<.<.",
"<.<.<.<.<.<.<.<.<.<.<.<.<.<.<.<.<.<.<.<.<.<.<.<.<.<.<.<.<.M 3 5 1 < 1 < 5 *.<.<.<.<.<.<.<.<.<.<.<.<.<.<.<.<.<.<.<.<.<.<.<.<.<.<.<."
};
