/* XPM */
static char *result[] = {
/* columns rows colors chars-per-pixel */
"65 64 167 2 ",
"   c black",
".  c #0F160C",
"X  c #171A06",
"o  c #1E1D01",
"O  c #171A0D",
"+  c #010D14",
"@  c #000F18",
"#  c #071212",
"$  c #0A1419",
"%  c #151815",
"&  c #1F1B19",
"*  c #1C2717",
"=  c #343307",
"-  c #3F3200",
";  c #3E3B00",
":  c #272A15",
">  c #071D24",
",  c #001D30",
"<  c #12393F",
"1  c #2D2928",
"2  c #352D23",
"3  c #332D2A",
"4  c #3F3826",
"5  c #3B322D",
"6  c #2F3133",
"7  c #3F3733",
"8  c #4B3C00",
"9  c #453E2B",
"0  c #453C39",
"q  c #4D500F",
"w  c #605E05",
"e  c #5D6818",
"r  c #696500",
"t  c #736F00",
"y  c #7B7600",
"u  c #646B12",
"i  c #7E7217",
"p  c #604C3D",
"a  c #003149",
"s  c #003355",
"d  c #003B61",
"f  c #083E61",
"g  c #263B75",
"h  c #194F58",
"j  c #214B4B",
"k  c #034767",
"l  c #134867",
"z  c #004A79",
"x  c #2C4079",
"c  c #534944",
"v  c #6A5A53",
"b  c #6F615B",
"n  c #7F7158",
"m  c #5C6B6F",
"M  c #776861",
"N  c #7F6F68",
"B  c #8B7817",
"V  c #C64800",
"C  c #CB5714",
"Z  c #CD5B1A",
"A  c #816259",
"S  c #92736A",
"D  c #8F7D75",
"F  c #A17B70",
"G  c #7C8518",
"H  c #958917",
"J  c #8B9011",
"K  c #A19611",
"L  c #AFA800",
"P  c #B0A800",
"I  c #B9B200",
"U  c #DDB90F",
"Y  c #DDBB11",
"T  c #DDBF18",
"R  c #BBC117",
"E  c #C9C406",
"W  c #D5CC00",
"Q  c #D8CF00",
"!  c #C8C914",
"~  c #DCC915",
"^  c #D9D614",
"/  c #DCDD11",
"(  c #D9DF18",
")  c #FCC900",
"_  c #E3DB0D",
"`  c #FBD300",
"'  c #E7CA15",
"]  c #F7ED00",
"[  c #E5E312",
"{  c #F0EA14",
"}  c #A48175",
"|  c #AC8377",
" . c #FF9359",
".. c #E08F63",
"X. c #E29368",
"o. c #FF9C68",
"O. c #005685",
"+. c #005489",
"@. c #005D8B",
"#. c #005891",
"$. c #0C5E92",
"%. c #006092",
"&. c #00629A",
"*. c #0067A3",
"=. c #0069A6",
"-. c #006FB6",
";. c #0071B7",
":. c #0076C2",
">. c #2362FF",
",. c #366CF8",
"<. c #3D71F9",
"1. c #4A78F7",
"2. c #0E82C8",
"3. c #188ACD",
"4. c #37A4DA",
"5. c #46ACDC",
"6. c #7BB6D3",
"7. c #5981F3",
"8. c #52BBE5",
"9. c #5DC1E7",
"0. c #6DD2F1",
"q. c #9F8B82",
"w. c #9D9A98",
"e. c #BA8E81",
"r. c #BF968A",
"t. c #B39D92",
"y. c #BFA79C",
"u. c gray75",
"i. c #E5AF9F",
"p. c #EFB394",
"a. c #FFB994",
"s. c #F1B99C",
"d. c #CFB5A9",
"f. c #E8B5A5",
"g. c #E9BCAC",
"h. c #DFC3B6",
"j. c #FFC9AD",
"k. c #FECCB3",
"l. c #F2C7B8",
"z. c #92A5DC",
"x. c #BDBADE",
"c. c #91A3EC",
"v. c #8BA9F8",
"b. c #91ACF9",
"n. c #96B4FF",
"m. c #C0BADE",
"M. c #B8D6DE",
"N. c #ACC0F9",
"B. c #B2C6FB",
"V. c #CFC9C5",
"C. c #C8C0DC",
"Z. c #D9CBDC",
"A. c #EFD5C9",
"S. c #F7D1C2",
"D. c #F8D3C4",
"F. c #FEDBCB",
"G. c #E3CFD6",
"H. c #FFDFD0",
"J. c #EFE1DB",
"K. c #FFE5D9",
"L. c #FFE7DC",
"P. c #C8D8FF",
"I. c #FBECE8",
"U. c #F5F6E7",
"Y. c #FFF1EB",
"T. c #FCF7F4",
"R. c #FFFFFE",
/* pixels */
":.:.:.:.:.:.:.:.:.:.:.:.:.:.:.:.:.:.:.;.#.+.#.#.:.:.:.:.:.:.:.:.:.:.:.:.:.:.:.:.:.:.:.:.:.:.:.:.:.:.:.:.:.:.:.:.:.:.:.:.:.:.:.:.:.",
":.:.:.:.:.:.:.:.:.:.:.:.:.:.:.:.:.:.:.#.  #   , :.:.:.:.:.:.:.:.:.:.:.:.:.:.:.:.:.:.:.:.:.:.:.:.:.:.:.:.:.:.:.:.:.:.:.:.:.:.:.:.:.",
":.:.:.:.:.:.:.:.:.:.:.:.:.:.:.:.:.;.#.l ; *   > :.:.:.:.:.:.:.:.:.:.:.:.:.:.:.:.:.:.:.:.:.:.:.:.:.:.:.:.:.:.:.:.:.:.:.:.:.:.:.:.:.",
":.:.:.:.:.:.:.:.:.:.:.:.:.:.:.:.:.#.  ; ] y   , :.:.:.:.:.:.:.:.:.:.:.:.:.:.:.:.:.:.:.:.:.:.:.:.:.:.:.:.:.:.:.:.:.:.:.:.:.:.:.:.:.",
":.:.:.:.:.:.:.:.:.:.:.:.:.:.:.-.#.l - t ] y   > #.*.:.:.:.:.:.:.:.:.:.:.:.:.:.:.:.:.:.:.:.:.:.:.:.:.:.:.:.:.:.:.:.:.:.:.:.:.:.:.:.",
":.:.:.:.:.:.:.:.:.:.:.:.:.:.:.#.  - ) ` ] ] ] e   , :.:.:.:.:.:.:.:.:.:.:.:.:.:.:.:.:.:.:.:.:.:.:.:.:.:.:.:.:.:.:.:.:.:.:.:.:.:.:.",
":.:.:.:.:.:.:.:.:.:.:.:.:.:.:.+.  8 ) ` ] ] ] u   > #.+.#.+.#.+.#.+.#.+.#.+.#.+.#.+.#.+.#.@.#.;.:.:.:.:.:.:.:.:.:.:.:.:.:.:.:.:.:.",
":.:.:.:.:.:.:.:.:.:.:.:.:.:.:.#.  - ) ` ] ] ] ( ] u   $   #   #   @   @   @   @   @   @   @   #.:.:.:.:.:.:.:.:.:.:.:.:.:.:.:.:.:.",
":.:.:.:.:.:.:.:.:.:.:.:.:.:.:.+.  8 ) ` ] ] ] ] ] y   o   o   o   o   o   o   o   X   X   .   j #.-.:.:.:.:.:.:.:.:.:.:.:.:.:.:.:.",
":.:.:.:.:.:.:.:.:.:.:.:.:.:.:.#.  - ) ` ] ] ] ] ] ] ] ] ] ] ] ] ] ] ] ] ] ] ] ] ] ] ] ] ] ] ]     #.:.:.:.:.:.:.:.:.:.:.:.:.:.:.:.",
":.:.:.:.:.:.:.:.:.:.:.:.:.:.:.+.  8 ) ` ] ] ] ] ] ] ] ] ] ] ] ] ] ] ] ] ] ] ] ] ] ] ] ] ] ] ]     h #.+.#.+.#.+.#.;.:.:.:.:.:.:.:.",
":.:.:.:.:.:.:.:.:.:.:.:.:.:.:.+.  - ) ) ] ] ] ] ] ] ] ] ] ] ] ] ] ] ] ] ] ] ] ] ] ] ] ] ] ] ] ] ]                 #.:.:.:.:.:.:.:.",
":.:.:.:.:.:.:.:.d d s s d s d j i K ' ) ] ] ] ] ] ] ] ] ] ] ] ] ] ] ] ] ] ] ] ] ] ] ] ] ] ] ] ] ]                 h #.-.:.:.:.:.:.",
":.:.:.:.:.:.:.:.              - ) ` ] ] ] ] ] ] ] ] ] ] ] ] ] ] ] ] ] ] ] ] ] ] ] ] ] ] ] ] ] ] ] ] ] ] ] ] ] ] ]     #.:.:.:.:.:.",
":.:.:.:.:.:.d d i i J J G J G K ~ ' [ ] ] ] ] ] ] ] ] ] ] ] ] ] ] ] ] ] ] ] ] ] ] ] ] ] ] ] ] ] ] ] ] ] ] ] ] ] ] o $ +.:.:.:.:.:.",
":.:.2.3.3.:.    ) ) ] ] ] ] ] ] ] ] ] ] ] ] ] ] ] ] ] ] ] ] ] ] ] ] ] ] ] ] ] ] ] ] ] ] ] ] ] ] ] ] ] ] ] ] ] ] ]     #.:.:.:.:.:.",
":.:.4.0.8.:.$ $ ' T [ [ ( ( R ! R ! ! W y r y t y t y t y t y t y t y t y t y t y t y t y t y t y r y Q ] ] ] ] ] ; = < d :.:.:.:.",
":.:.5.0.9.:.    ) ) ] ] ] ]                   o   o   o   o   o   o   o   o   o   o   o   X   O       I ] ] ] ] ] ] ]     3.3.:.:.",
":.:.6.U.m d B H ' ' { / I T 6 1 6 3 4 2 4 2 9 9 9 9 4 9 7 0 7 0 7 0 7 0 7 0 7 0 7 0 7 0 7 0 7 7 7 3 5 r y Q ] ] ] ] ] . $ 0.8.:.:.",
":.:.6.U.    ) ) ] ] ] ] +   A.K.H.H.H.H.H.H.H.F.F.F.K.H.K.F.F.K.F.K.H.H.F.K.H.H.F.K.H.H.H.K.H.H.F.F.K.    I ] ] ] ] ]     0.9.:.:.",
":.:.=.@.@ @ Y Y [ { ( ! S S H.H.H.H.H.H.H.H.H.H.H.H.H.H.H.H.H.H.H.H.H.H.H.H.H.H.H.H.H.H.H.H.H.H.K.F.H.7 4 w y Q ] ] ] * $ U.M.:.:.",
":.:.*.@.    ) ) ] ] 8 3 i.i.H.H.H.H.H.H.H.H.H.H.H.H.H.H.H.H.H.H.H.H.H.H.H.H.H.H.H.H.H.H.H.H.H.H.H.H.H.H.H.    I ] ] ]     U.M.:.:.",
":.:.=.@.+ @ U Y [ ^ q 3 f.f.H.H.H.H.H.H.H.H.H.H.H.H.H.H.H.H.H.H.H.H.H.H.H.H.H.H.H.H.H.H.H.H.H.H.H.H.H.H.H.& o P ] ] ] o & @.&.:.:.",
":.:.=.@.    ) ) ] ] 8   i.i.H.H.H.H.H.H.H.H.H.H.H.H.H.H.H.H.H.H.H.H.H.H.H.H.H.H.H.H.H.H.H.H.H.H.H.H.H.H.H.    I ] ] ]     %.&.:.:.",
":.:.:.:.@ @ Y Y _ / q & f.f.H.H.H.H.H.H.H.H.H.H.H.H.H.H.H.H.H.H.H.H.H.H.H.H.H.H.H.H.H.H.H.H.H.H.H.H.H.H.K.& o P ] ] ] X + -.;.:.:.",
":.:.:.:.    ) ) ] ] ;   i.i.H.H.H.H.H.H.H.H.H.H.H.H.H.H.H.H.H.H.H.H.H.H.H.H.H.H.H.H.H.H.H.H.H.H.H.H.H.H.F.    I ] ] ]     :.:.:.:.",
":.:.=.@.+ @ Y T [ ( q & f.f.H.H.H.H.H.H.H.H.H.H.H.H.H.H.H.H.H.H.H.H.H.H.H.H.H.H.H.H.H.H.H.H.H.H.H.H.H.H.F.& X P ] ] ] o + :.:.:.:.",
":.:.=.@.    ) ) ] ] ;   i.i.H.H.H.H.H.H.H.H.H.F.H.H.H.H.H.H.H.H.H.H.H.H.H.H.H.H.H.H.H.H.H.H.H.H.H.H.H.F.K.    I ] ] ]     :.:.:.:.",
":.:.;.;.@ @ Y T _ ~ O & f.f.H.H.H.H.F.K.F.H.F.K.H.H.H.H.H.H.H.H.H.H.H.H.H.H.H.H.H.H.H.H.H.H.F.F.H.H.H.H.H.N n = ; E ] o @ :.:.:.:.",
":.:.:.:.    ) ) ) )     i.i.H.H.H.H.F.K.H.H.F.K.H.H.H.H.H.H.H.H.H.H.H.H.H.H.H.H.F.K.H.H.H.F.K.K.H.H.H.H.H.H.H.    I ]     :.:.:.:.",
":.:.:.:.@ @ Y T : : p b k.l.H.7 7 3 7 3 7 3 7 d.H.H.H.H.H.H.H.H.H.H.H.H.H.H.H.H.q.5 0 7 0 7 0 7 b H.H.H.H.H.H.O o L ] o @ :.:.:.:.",
":.:.:.:.    ) )     | i.H.H.H.                y.H.H.H.H.H.H.H.H.H.H.H.H.H.H.H.H.S   &   &   &   7 H.H.H.H.H.H.    I ]     :.:.:.:.",
":.:.:.:.@ @ Y T # & F f.K.7 7 v N b N b N b N 3 7 d.H.H.H.H.H.H.H.H.H.H.H.H.q.7 c N M N M N M N v 7 b F.H.H.H.& o L ] o @ :.:.:.:.",
":.:.:.:.    ) )     } f.F.    y.H.H.H.H.K.F.K.    y.H.H.H.H.H.H.H.H.H.H.H.H.N   7 H.H.H.H.H.H.H.N   7 K.H.H.H.    I ]     :.:.:.:.",
":.:.:.:.@ @ Y ~ % & } f.F.S N h.H.H.H.H.F.F.F.S N h.H.H.H.H.H.H.H.H.H.H.H.H.y.N q.H.H.H.H.H.H.H.y.N } K.H.H.K.& O L ] o @ :.:.:.:.",
":.:.:.:.    ) )     } i.H.H.H.H.H.H.H.H.F.K.F.K.H.H.H.H.H.H.H.H.H.H.H.H.H.H.H.H.H.H.H.H.H.H.H.H.K.F.F.K.H.H.F.    I ]     :.:.:.:.",
":.:.:.:.@ @ O : % & } f.H.H.H.7 7 3 7 3 7 3 7 d.H.H.H.H.H.H.H.H.H.H.H.H.H.H.H.H.q.7 0 7 0 7 0 7 b F.F.H.H.H.H.N N = * + @ :.:.:.:.",
":.:.:.:.            | i.H.H.H.                y.H.H.H.H.H.H.H.H.H.H.H.H.H.H.H.H.N   &   &   &   7 H.K.F.H.H.H.H.H.        :.:.:.:.",
":.:.    A | F | F | g.S.H.    R.R.R.R.>.>.>.>.    y.H.H.H.H.F.F.H.H.H.H.F.F.N   w.R.T.R.v.>.,.>.g   7 F.H.H.H.H.H.y.y.t.D     :.:.",
":.:.    | i.i.i.i.i.S.K.H.    R.R.R.R.>.>.>.>.    y.H.H.H.F.K.K.H.H.H.F.K.K.N   w.R.T.R.v.>.<.>.x   7 K.H.H.H.H.H.H.H.H.y.    :.:.",
":.:.    F i.l.D.S.D.F.H.H.R.R.R.R.R.R.>.>.>.>.u.M.l.F.F.K.F.y.    F.F.K.H.H.J.R.T.R.R.R.b.>.,.>.z.h.V.H.H.H.H.H.H.H.H.H.t.    :.:.",
":.:.    | i.D.H.H.H.K.F.H.R.R.R.R.R.R.>.>.>.>.R.R.L.F.K.H.H.y.    K.H.F.H.H.Y.R.R.R.T.R.b.>.<.>.n.R.T.H.H.H.H.H.H.H.H.H.y.    :.:.",
":.:.    F i.D.H.H.H.H.H.H.R.R.R.R.R.R.>.>.>.>.R.R.L.H.H.H.H.t.    H.H.H.H.H.Y.R.R.R.R.R.b.>.,.>.B.R.T.H.H.H.H.H.H.H.H.H.t.    :.:.",
":.:.    | i.D.H.H.H.H.H.H.R.R.R.R.R.R.>.>.>.>.R.R.L.H.H.H.H.y.    H.H.H.H.F.I.R.T.R.R.R.b.>.<.>.N.R.T.H.H.H.H.H.H.H.H.H.y.    :.:.",
":.:.    F i.S.H.F.K.F.H.F.L.L.R.R.>.>.>.>.n.P.I.L.K.F.H.y.    y.y.K.N   7 K.H.I.L.L.c.>.<.>.1.C.Z.L.L.H.H.H.H.H.H.H.F.F.t.    :.:.",
":.:.    | i.D.H.F.K.H.H.K.F.K.R.R.>.>.>.>.P.R.Y.H.H.H.H.y.    F.H.F.N   9 F.H.H.H.H.c.>.<.>.7.H.K.F.H.H.H.H.H.H.H.F.K.K.y.    :.:.",
":.:.#.#.    | i.    | i.F.H.F.L.L.C.C.x.m.I.I.K.H.H.F.F.t.    K.H.H.b   3 H.H.H.H.H.G.m.m.C.Z.F.H.H.H.H.F.H.K.    | i.    $.#.:.:.",
":.:.:.:.    | i.    | i.H.H.K.F.F.K.F.K.F.H.H.F.H.F.K.K.y.    F.H.H.N   7 H.H.H.H.H.H.H.H.H.F.K.H.H.H.H.K.F.F.    | i.    :.:.:.:.",
":.:.:.:.#.#.        F i.H.H.H.H.H.H.H.F.K.F.H.H.H.H.H.H.A.y.D       5 y.d.H.H.H.H.H.H.H.H.H.H.H.H.H.H.H.K.K.F.        l #.:.:.:.:.",
":.:.:.:.:.:.        F i.H.k.k.k.k.j.k.F.F.K.H.H.H.H.H.H.H.H.y.      7 H.H.H.H.H.H.H.H.H.H.H.D.k.j.k.j.k.k.H.H.        O.;.:.:.:.:.",
":.:.:.:.:.:.:.:.    | i.H. . . . . . .k.F.H.H.H.H.H.H.H.H.H.F.K.H.H.H.H.H.H.H.H.H.H.H.H.H.H.a. .o. .o. .a.K.K.    a k O.&.:.:.:.:.",
":.:.:.:.:.:.:.:.    F i.H. . . . . . .k.K.F.H.H.H.H.H.H.F.K.F.F.H.H.H.H.H.H.H.F.H.H.H.H.H.H.a. .o. .o. .a.D.l.    k #.@.&.:.:.:.:.",
":.:.:.:.:.:.:.:.    | i.H.H.H.H.H.H.H.H.H.H.H.H.H.H.F.F.K.F.F.K.H.H.H.H.H.H.H.K.H.H.H.H.H.H.H.H.H.H.H.H.H.i.f.    #.:.:.:.:.:.:.:.",
":.:.:.:.:.:.:.:.    A | D.D.H.H.H.H.H.H.H.H.H.H.H.H.K.k.s.p.s.p.s.p.s.p.s.p.s.l.H.H.H.H.H.H.H.H.H.H.H.D.D.| |     #.:.:.:.:.:.:.:.",
":.:.:.:.:.:.:.:.:.:.    i.i.H.H.H.H.H.H.H.H.H.H.H.H.H.X.V Z V Z V Z V Z V Z V X.H.H.H.H.H.H.H.H.H.K.H.i.i.    k &.:.:.:.:.:.:.:.:.",
":.:.:.:.:.:.:.:.:.:.    | | S.D.H.H.H.H.H.H.H.H.H.H.H.X.V Z V C V C V C V C V X.H.H.H.H.H.H.H.D.D.l.D.| |     k &.:.:.:.:.:.:.:.:.",
":.:.:.:.:.:.:.:.:.:.:.#.    i.i.H.H.H.H.H.H.H.H.H.H.H.F.H.X.V Z V Z V Z V X.H.H.H.H.H.H.H.H.H.i.i.f.f.    %.:.:.:.:.:.:.:.:.:.:.:.",
":.:.:.:.:.:.:.:.:.:.:.#.    | F y.y.D.S.D.S.S.S.D.S.D.S.D...V Z V Z V Z V ..D.D.D.D.D.D.D.S.D.e.| S |     #.:.:.:.:.:.:.:.:.:.:.:.",
":.:.:.:.:.:.:.:.:.:.:.:.:.#.        i.i.i.i.i.f.i.f.f.f.i.g.H.H.H.H.H.H.K.g.i.f.i.f.i.f.i.f.f.5       #.:.:.:.:.:.:.:.:.:.:.:.:.:.",
":.:.:.:.:.:.:.:.:.:.:.:.:.#.        | F | F | } | } | F | r.D.S.S.S.D.S.D.r.| F | } | } | F | 1       $.:.:.:.:.:.:.:.:.:.:.:.:.:.",
":.:.:.:.:.:.:.:.:.:.:.:.:.:.:.:.:.#.          &   &   &   5 i.g.i.g.i.g.i.5   &   &   %   %   f :.:.:.:.:.:.:.:.:.:.:.:.:.:.:.:.:.",
":.:.:.:.:.:.:.:.:.:.:.:.:.:.:.:.:.#.          @   $   $   1 | F | F | F | 1   $   @   @   @   f :.:.:.:.:.:.:.:.:.:.:.:.:.:.:.:.:.",
":.:.:.:.:.:.:.:.:.:.:.:.:.:.:.:.:.:.:.:.:.:.:.:.:.:.:.:.:.f   $   %   %   l :.:.:.:.:.:.:.:.:.:.:.:.:.:.:.:.:.:.:.:.:.:.:.:.:.:.:.",
":.:.:.:.:.:.:.:.:.:.:.:.:.:.:.:.:.:.:.:.:.:.:.:.:.:.:.:.:.O., , , , , , , z :.:.:.:.:.:.:.:.:.:.:.:.:.:.:.:.:.:.:.:.:.:.:.:.:.:.:."
};
