/* XPM */
static char *result[] = {
/* columns rows colors chars-per-pixel */
"65 64 160 2 ",
"   c black",
".  c #00070C",
"X  c #0F1003",
"o  c #0F160C",
"O  c #171906",
"+  c #1E1D01",
"@  c #17190B",
"#  c #000E18",
"$  c #081211",
"%  c #061318",
"&  c #191716",
"*  c #121619",
"=  c #1E1B19",
"-  c #19210E",
";  c #192616",
":  c #2E3209",
">  c #3C3403",
",  c #3D3B00",
"<  c #332D1F",
"1  c #28301C",
"2  c #001621",
"3  c #001827",
"4  c #061D29",
"5  c #161D22",
"6  c #001D30",
"7  c #1A2329",
"8  c #002035",
"9  c #0A2232",
"0  c #122531",
"q  c #182731",
"w  c #26282A",
"e  c #332D27",
"r  c #332D29",
"t  c #392C28",
"y  c #3F3827",
"u  c #3B312D",
"i  c #3F382C",
"p  c #222638",
"a  c #2F3133",
"s  c #3F3733",
"d  c #343638",
"f  c #443732",
"g  c #453C39",
"h  c #3D4511",
"j  c #2B4633",
"k  c #434000",
"l  c #4E4C0D",
"z  c #4B4915",
"x  c #6C6700",
"c  c #736F00",
"v  c #7B7600",
"b  c #002D46",
"n  c #00314C",
"m  c #18394F",
"M  c #003455",
"N  c #00375B",
"B  c #393E43",
"V  c #003B61",
"C  c #083E61",
"Z  c #084465",
"A  c #184562",
"S  c #004A79",
"D  c #2E6073",
"F  c #544945",
"G  c #5E4B45",
"H  c #66514A",
"J  c #6E5850",
"K  c #755D55",
"L  c #6F615B",
"P  c #7F705B",
"I  c #59676A",
"U  c #776861",
"Y  c #7F6F68",
"T  c #7F7061",
"R  c #82635A",
"E  c #90746B",
"W  c #A17B70",
"Q  c #868000",
"!  c #9A9400",
"~  c #A5A40B",
"^  c #B9B200",
"/  c #DCBE0F",
"(  c #CCC806",
")  c #FCC900",
"_  c #FBD200",
"`  c #F8E500",
"'  c #F7ED00",
"]  c #A48175",
"[  c #AC8377",
"{  c #FF9359",
"}  c #FF9C68",
"|  c #FFA676",
" . c #005388",
".. c #005D8B",
"X. c #005891",
"o. c #006194",
"O. c #00629B",
"+. c #0067A3",
"@. c #0069A6",
"#. c #0067AA",
"$. c #006FB6",
"%. c #0070B4",
"&. c #0072B9",
"*. c #0076C2",
"=. c #2362FF",
"-. c #366CF8",
";. c #3D71F9",
":. c #3D8CAC",
">. c #0E82C8",
",. c #1587CB",
"<. c #1B8DCE",
"1. c #37A4DA",
"2. c #46ACDC",
"3. c #7BB6D4",
"4. c #7199FE",
"5. c #50B7E3",
"6. c #5DC1E7",
"7. c #73CDEB",
"8. c #6DD2F1",
"9. c #9F8B82",
"0. c #9D9A98",
"q. c #AC8D82",
"w. c #B29387",
"e. c #B59E94",
"r. c #BFA79C",
"t. c gray75",
"y. c #CC9F91",
"u. c #D1AA9D",
"i. c #E5AF9F",
"p. c #FFB994",
"a. c #CFB5A9",
"s. c #E8B5A5",
"d. c #E9BCAC",
"f. c #DFC3B6",
"g. c #ECC3B4",
"h. c #F2C6B6",
"j. c #B6BBCB",
"k. c #8BA9F8",
"l. c #91ADFA",
"z. c #C0BADE",
"x. c #B8D5DB",
"c. c #DFD1CB",
"v. c #C8C0DC",
"b. c #F7D1C2",
"n. c #F8D3C4",
"m. c #FCD9CA",
"M. c #E3D5DE",
"N. c #FFDFD0",
"B. c #EFE1DB",
"V. c #FFE3D6",
"C. c #FFE7DC",
"Z. c #C8D8FF",
"A. c #E3D9E4",
"S. c #FFEDE5",
"D. c #F5F6E7",
"F. c #FFF2EC",
"G. c #E8E9F7",
"H. c #E5E9FA",
"J. c #FAF6F4",
"K. c #FFFEFE",
/* pixels */
"*.*.*.*.*.*.*.*.*.*.*.*.*.*.*.*.*.*.*.*.*.*.*.*.*.*.*.*.*.*.*.*.*.*.*.*.*.*.*.*.*.$.X. .X.X.*.*.*.*.*.*.*.*.*.*.*.*.*.*.*.*.*.*.*.",
"*.*.*.*.*.*.*.*.*.*.*.*.*.*.*.*.*.*.*.*.*.*.*.*.*.*.*.*.*.*.*.*.*.*.*.*.*.*.*.*.*.X.        *.*.*.*.*.*.*.*.*.*.*.*.*.*.*.*.*.*.*.",
"*.*.*.*.*.*.*.*.*.*.*.*.*.*.*.*.*.*.*.*.*.*.*.*.*.*.*.*.*.*.*.*.*.*.*.*.*.*.*.*.*. .    , , X.X.*.*.*.*.*.*.*.*.*.*.*.*.*.*.*.*.*.",
"*.*.*.*.*.*.*.*.*.*.*.*.*.*.*.*.*.*.*.*.*.*.*.*.*.*.*.*.*.*.*.*.*.*.*.*.*.*.*.*.*.X.    ' '     *.*.*.*.*.*.*.*.*.*.*.*.*.*.*.*.*.",
"*.*.*.*.*.*.*.*.*.*.*.*.*.*.*.*.*.*.*.*.*.*.*.*.*.*.*.*.*.*.*.*.*.*.*.*.*.*.*.$.X.Z     ' ' > > X.O.*.*.*.*.*.*.*.*.*.*.*.*.*.*.*.",
"*.*.*.*.*.*.*.*.*.*.*.*.*.*.*.*.*.*.*.*.*.*.*.*.*.*.*.*.*.*.*.*.*.*.*.*.*.*.*.X.    ' ' ' ` ) )   6 *.*.*.*.*.*.*.*.*.*.*.*.*.*.*.",
"*.*.*.*.*.*.*.*.*.*.*.*.*.*.*.*.*.*.O.X. .X. .X. .X. .X. .X. .X. .X. .X. . .X.Z     ' ' ' ' ) )   3 *.*.*.*.*.*.*.*.*.*.*.*.*.*.*.",
"*.*.*.*.*.*.*.*.*.*.*.*.*.*.*.*.*.*.6   #   #   #                               ' ' ' ' ' ' ) )   6 *.*.*.*.*.*.*.*.*.*.*.*.*.*.*.",
"*.*.*.*.*.*.*.*.*.*.*.*.*.*.*.*.O...;   @   @   O                               ' ' ' ' ' ' ) )   3 *.*.*.*.*.*.*.*.*.*.*.*.*.*.*.",
"*.*.*.*.*.*.*.*.*.*.*.*.*.*.*.*.8   v ' ' ' ' ' ' ' ' ' ' ' ' ' ' ' ' ' ' ' ' ' ' ' ' ' ' ' ) )   6 *.*.*.*.*.*.*.*.*.*.*.*.*.*.*.",
"*.*.*.*.*.*.*.*.#.X. .X. .X. .X.;   v ' ' ' ' ' ' ' ' ' ' ' ' ' ' ' ' ' ' ' ' ' ' ' ' ' ' ' ) )   3 *.*.*.*.*.*.*.*.*.*.*.*.*.*.*.",
"*.*.*.*.*.*.*.*.V   $   o   O   v ' ' ' ' ' ' ' ' ' ' ' ' ' ' ' ' ' ' ' ' ' ' ' ' ' ' ' ' ` ) )   6 *.*.*.*.*.*.*.*.*.*.*.*.*.*.*.",
"*.*.*.*.*.*.#.X.j   +   +   +   v ' ' ' ' ' ' ' ' ' ' ' ' ' ' ' ' ' ' ' ' ' ' ' ' ' ' ' ' ` _ / . 2 *.*.*.*.*.*.*.*.*.*.*.*.*.*.*.",
"*.*.*.*.*.*.V   , ' ' ' ' ' ' ' ' ' ' ' ' ' ' ' ' ' ' ' ' ' ' ' ' ' ' ' ' ' ' ' ' ' ' ' ' ' ' '   . *.*.*.*.*.*.*.*.*.*.*.*.*.*.*.",
"*.*.*.*.*.*.N o k ' ' ' ' ' ' ' ' ' ' ' ' ' ' ' ' ' ' ' ' ' ' ' ' ' ' ' ' ' ' ' ' ' ' ' ' ' ' ( X - *.*.*.*.*.*.*.*.*.*.*.*.*.*.*.",
"*.*.>.<.,.*.Z   , ' ' ' ' ' ' ' ' ' ' ' ' ' ' ' ' ' ' ' ' ' ' ' ' ' ' ' ' ' ' ' ' ' ' ' ' ' ' ^   : *.*.*.*.*.*.*.*.*.*.*.*.*.*.*.",
"*.*.1.8.:.V j , x ' ' ' ' ' ! v c v c v c v c v x v x v x v x v x v x v x x v x v x v x v Q ( ~ : h V S *.*.*.*.*.*.*.*.*.*.*.*.*.",
"*.*.2.8.D   > ' ' ' ' ' ' ' ,   O   O   O   +                                                     #   6 *.*.*.*.*.*.*.*.>.<.,.*.*.",
"*.*.3.D.I # k ' ' ' ' ' ! v z s g f g s g s g s e s e s r f r s r s e s r e y < y < y < f < i e s d a B C S *.*.*.*.*.*.1.8.5.*.*.",
"*.*.3.D.I   , ' ' ' ' ' ,   P N.V.m.V.m.m.N.N.V.N.N.N.N.V.m.V.m.m.V.N.N.N.V.N.N.N.V.N.N.N.N.N.N.N.N.N.Y   6 *.*.*.*.>.<.5.8.6.*.*.",
"*.*.@...n # k ' ' ' ^ v l i 9.N.N.N.N.N.V.N.N.N.N.N.N.N.N.N.N.N.V.N.N.N.N.N.N.N.N.N.N.N.N.N.N.N.N.N.N.w.E R C S *.*.1.8.7.D.x.*.*.",
"*.*.+...n   , ' ' ' v   Y N.N.N.N.N.N.N.N.N.N.N.N.N.N.N.N.N.N.N.m.V.N.N.N.N.N.N.N.N.N.N.N.N.N.N.N.N.N.h.s.y.  6 *.&.2.8.7.D.x.*.*.",
"*.*.@...n # k ' ' ' c + U N.N.N.N.N.N.N.N.N.N.N.N.N.N.N.N.N.N.N.N.N.N.N.N.N.N.N.N.N.N.N.N.N.N.N.N.N.N.h.s.W % 8 *.*.3.D.x...O.*.*.",
"*.*.@...n   , ' ' ' v   Y N.N.N.N.N.N.N.N.N.N.N.N.N.N.N.N.N.N.N.N.N.N.N.N.N.N.N.N.N.N.N.N.N.N.N.N.N.N.h.s.K   6 *.*.3.D.x.o.O.*.*.",
"*.*.*.*.N $ k ' ' ' c O U N.N.N.N.N.N.N.N.N.N.N.N.N.N.N.N.N.N.N.N.N.N.N.N.N.N.N.N.N.N.N.N.N.N.N.N.N.N.h.s.J = 8 *.*.@...o.%.&.*.*.",
"*.*.*.*.V   , ' ' ' v   Y N.N.N.N.N.N.N.N.N.N.N.N.N.N.N.N.N.N.N.N.N.N.N.N.N.N.N.N.N.N.N.N.N.N.N.N.N.N.h.i.K   6 *.*.@.o.O.*.*.*.*.",
"*.*.@...n $ k ' ' ' c @ U N.N.N.N.N.N.N.N.N.N.N.N.N.N.N.N.N.N.N.N.N.N.N.N.N.N.N.N.N.N.N.N.N.N.N.N.N.N.h.s.J = 8 *.*.&.%.%.*.*.*.*.",
"*.*.@...n   , ' ' ' v   Y N.N.N.N.N.N.N.N.N.N.N.N.N.N.N.N.N.N.N.N.N.N.N.N.N.N.N.N.N.N.N.N.N.N.N.N.N.N.h.i.K   6 *.*.*.*.*.*.*.*.*.",
"*.*.&.%.M $ k ' ! , z T r.m.N.N.N.N.N.N.N.N.N.N.N.N.N.N.N.N.N.N.N.N.N.N.N.N.N.N.N.N.N.N.N.N.N.N.N.N.N.h.s.J = 9 *.*.*.*.*.*.*.*.*.",
"*.*.*.*.V   , ' v   i N.m.V.N.N.N.N.N.N.N.N.N.N.N.N.N.N.N.N.N.N.N.N.N.N.N.N.N.N.N.N.N.N.N.N.N.N.N.N.N.h.i.K   0 *.*.*.*.*.*.*.*.*.",
"*.*.*.*.N o k ' v + g N.V.N.N.N.N.N.N.N.N.N.N.N.N.N.N.N.N.N.N.N.N.N.N.N.N.N.N.N.N.N.9.s g s g f g s 9.n.h.w.K F 9 M *.*.*.*.*.*.*.",
"*.*.*.*.V   , ' v   f N.N.N.N.N.N.N.N.N.N.N.N.N.N.N.N.N.N.N.N.N.N.N.N.N.N.N.N.N.N.N.Y   =   =   =   Y N.V.h.i.K   6 *.*.*.*.*.*.*.",
"*.*.*.*.N o k ' c @ g N.N.N.N.N.N.N.N.N.N.N.N.N.N.N.N.N.N.N.N.N.N.N.N.N.N.N.N.N.9.s F Y U Y U Y U Y F s 9.h.s.J * 8 *.*.*.*.*.*.*.",
"*.*.*.*.V   , ' v   s N.N.N.N.N.N.N.N.N.N.N.N.N.N.N.N.N.N.N.N.N.N.N.N.N.N.N.N.N.Y   s N.N.N.N.N.N.N.s   Y h.i.K   6 *.*.*.*.*.*.*.",
"*.*.*.*.N o k ' c = g N.N.N.N.N.N.N.N.N.N.N.N.N.N.N.N.N.N.N.N.N.N.N.N.N.N.N.N.N.r.Y 9.m.N.N.N.N.N.N.9.Y r.g.s.J = 8 *.*.*.*.*.*.*.",
"*.*.*.*.V   , ' v   s N.N.N.N.N.N.N.N.N.N.N.N.N.N.N.N.N.N.N.N.N.N.N.N.N.N.N.N.N.N.N.N.V.N.N.N.N.N.N.m.V.V.h.i.K   0 *.*.*.*.*.*.*.",
"*.*.*.*.N # % 1 z Y 9.N.N.N.N.N.N.N.N.N.N.N.N.N.N.N.N.N.N.N.N.N.N.N.N.N.N.N.N.N.N.N.9.s g s g s g s 9.V.m.g.s.J = 5 6 6 6 M *.*.*.",
"*.*.*.*.C   =   g N.N.N.N.N.N.N.N.N.N.N.N.N.N.N.N.N.N.N.N.N.N.N.N.N.N.N.N.N.N.N.V.m.Y   =   =   =   E m.V.h.i.K   =   =   6 *.*.*.",
"*.*.V   w r.e.r.a.N.N.N.N.N.N.N.N.N.N.N.N.N.N.N.N.N.N.N.N.N.N.N.N.N.N.N.N.N.N.N.Y   p =.-.=.k.K.J.K.0.  Y m.n.u.[ ] [ ] [ G   V *.",
"*.*.V   a N.N.N.N.N.N.N.N.N.N.N.N.N.N.N.N.N.N.N.N.N.N.N.N.N.N.N.N.N.N.N.N.N.N.N.Y   p =.;.=.l.K.K.K.0.  Y N.N.h.i.s.i.s.i.K   V *.",
"*.*.M   w N.Y   s N.N.N.N.N.N.N.N.N.N.N.N.N.N.N.N.N.N.N.N.N.N.N.N.N.N.N.N.N.N.N.c.t.j.=.-.=.k.K.K.K.J.K.B.N.N.m.n.n.n.d.s.H   M *.",
"*.*.V   a V.Y   s N.N.N.N.N.N.N.N.N.N.N.N.N.N.N.N.N.N.N.N.N.N.N.N.N.N.N.N.N.N.N.S.K.H.=.;.=.l.K.J.K.K.K.S.N.N.N.N.N.N.h.i.K   V *.",
"*.*.M   w m.L   &   s N.N.N.N.N.N.N.N.N.N.N.N.N.N.N.N.N.N.N.N.N.N.N.N.N.N.N.N.N.F.K.H.=.-.=.k.K.K.K.K.K.F.V.N.N.N.N.N.h.i.H   M *.",
"*.*.V   a V.Y   =   s N.N.N.N.N.N.N.N.N.N.N.N.N.N.N.N.N.N.N.N.N.N.N.N.N.N.N.N.N.F.K.H.=.;.=.l.K.K.K.K.K.F.m.N.N.N.N.N.h.i.K   V *.",
"*.*.M   w N.f.r.e.r.a.N.N.N.N.N.N.N.N.N.N.N.N.N.N.N.N.N.N.N.N.N.N.N.N.N.N.N.N.N.V.C.G.Z.4.=.;.=.l.K.F.C.V.N.N.N.m.V.m.h.i.H   M *.",
"*.*.V   a N.N.N.N.N.N.N.N.N.N.N.N.N.N.N.N.N.N.N.N.N.N.N.N.N.N.N.N.N.N.N.N.N.N.N.V.m.J.K.l.=.;.=.l.K.S.N.N.N.N.N.V.m.V.h.i.K   V *.",
"*.*.#.X.m   u i.s.i.d.N.N.N.N.N.N.N.N.N.N.N.N.N.N.N.N.N.N.N.N.N.N.N.N.N.N.N.N.N.m.N.C.S.A.v.z.v.M.C.V.V.N.h.i.s.i.s.i.K   7 X.#.*.",
"*.*.*.*.V   u i.s.i.d.N.N.N.N.N.N.N.N.N.N.N.N.N.N.N.N.N.N.N.N.N.N.N.N.N.N.N.N.N.V.N.N.N.N.N.N.N.N.N.N.N.N.h.i.s.i.s.i.K   6 *.*.*.",
"*.*.*.*.#.X.m   t t G V.m.V.m.V.N.N.N.N.N.N.N.N.N.N.N.N.N.N.N.N.N.N.N.N.N.N.N.N.p.{ } { } { | N.N.N.N.N.N.h.i.R t f   7 X.O.*.*.*.",
"*.*.*.*.*.*.V   %   s N.V.m.N.N.N.N.N.N.N.N.N.N.N.N.N.N.N.N.N.N.N.N.N.N.N.N.N.N.p.{ } { } { | N.N.N.N.N.N.h.i.H   o   4 &.*.*.*.*.",
"*.*.*.*.*.*.#.X.b   r N.N.N.N.N.N.N.N.N.N.N.N.N.N.N.N.N.N.N.N.N.N.N.N.N.N.N.N.N.N.N.N.N.N.N.N.N.N.N.N.N.N.h.i.K   3 o...O.*.*.*.*.",
"*.*.*.*.*.*.*.*.M   r n.m.N.N.N.N.N.N.N.N.N.N.N.N.N.N.N.N.N.N.N.N.N.N.N.N.N.N.N.N.N.N.N.N.N.N.N.N.N.N.N.N.h.i.H   # o...O.*.*.*.*.",
"*.*.*.*.*.*.*.*.V   u i.h.N.N.N.N.N.N.N.N.N.N.N.N.N.N.N.N.N.N.N.N.N.N.N.N.N.N.N.N.N.N.N.N.N.N.N.N.N.N.N.N.h.i.K   6 *.*.*.*.*.*.*.",
"*.*.*.*.*.*.*.*.V   e [ u.n.m.N.N.N.N.N.N.N.N.N.N.N.N.N.N.N.N.N.N.N.N.N.N.N.N.N.N.N.N.N.N.N.N.N.N.N.N.m.n.u.[ G   6 *.*.*.*.*.*.*.",
"*.*.*.*.*.*.*.*.*.*.A   K i.h.N.N.N.N.N.N.N.N.N.N.N.N.N.N.N.N.N.N.N.N.N.N.N.N.N.N.N.N.N.N.N.N.N.N.m.V.h.i.K   4 O.*.*.*.*.*.*.*.*.",
"*.*.*.*.*.*.*.*.*.*.V   G [ u.n.n.n.m.N.N.N.N.m.N.N.N.N.N.N.N.N.N.N.N.N.N.N.N.N.N.N.N.N.N.N.N.N.N.m.n.u.[ G   2 O.*.*.*.*.*.*.*.*.",
"*.*.*.*.*.*.*.*.*.*.*.*.0   K i.s.i.h.V.m.V.V.V.N.N.N.N.N.N.N.V.N.N.N.N.N.N.N.N.V.m.N.N.N.N.V.N.V.h.i.K   q *.*.*.*.*.*.*.*.*.*.*.",
"*.*.*.*.*.*.*.*.*.*.*.*.6   G [ ] [ u.n.n.n.h.n.b.n.b.n.m.N.N.m.N.N.N.N.n.n.m.h.n.b.n.b.n.b.n.g.y.q.[ G   6 *.*.*.*.*.*.*.*.*.*.*.",
"*.*.*.*.*.*.*.*.*.*.*.*.*.*.9   =   K i.s.i.s.i.i.i.i.i.n.V.m.V.N.V.N.N.i.i.i.i.i.i.i.s.i.i.i.[   =   0 *.*.*.*.*.*.*.*.*.*.*.*.*.",
"*.*.*.*.*.*.*.*.*.*.*.*.*.*.6   #   G [ ] [ ] [ W [ W [ d.n.b.n.h.m.h.m.[ W [ ] [ W [ W [ W [ R   %   6 *.*.*.*.*.*.*.*.*.*.*.*.*.",
"*.*.*.*.*.*.*.*.*.*.*.*.*.*.*.*.*.*.9   *   &           [ i.i.i.i.i.i.s.                        *.*.*.*.*.*.*.*.*.*.*.*.*.*.*.*.*.",
"*.*.*.*.*.*.*.*.*.*.*.*.*.*.*.*.*.*.6   #   #           R [ W [ W [ W [                         *.*.*.*.*.*.*.*.*.*.*.*.*.*.*.*.*.",
"*.*.*.*.*.*.*.*.*.*.*.*.*.*.*.*.*.*.*.*.*.*.*.*.*.*.*.*.                X.*.*.*.*.*.*.*.*.*.*.*.*.*.*.*.*.*.*.*.*.*.*.*.*.*.*.*.*.",
"*.*.*.*.*.*.*.*.*.*.*.*.*.*.*.*.*.*.*.*.*.*.*.*.*.*.*.*.6 6 3 6 3 6 3 6 O.*.*.*.*.*.*.*.*.*.*.*.*.*.*.*.*.*.*.*.*.*.*.*.*.*.*.*.*."
};
