/* XPM */
static char *result[] = {
/* columns rows colors chars-per-pixel */
"65 64 212 2 ",
"   c black",
".  c #070700",
"X  c #080706",
"o  c #0D150D",
"O  c #171904",
"+  c #171905",
"@  c #171A06",
"#  c #1E1D00",
"$  c #191A04",
"%  c #1F1D06",
"&  c #161B0F",
"*  c #1F1C0D",
"=  c #1F1C0E",
"-  c #1E1E0E",
";  c #000C12",
":  c #000C13",
">  c #060F11",
",  c #000E17",
"<  c #020F16",
"1  c #000E18",
"2  c #000F18",
"3  c #081212",
"4  c #041018",
"5  c #061118",
"6  c #07141B",
"7  c #081218",
"8  c #0E1418",
"9  c #0E191D",
"0  c #141E11",
"q  c #1F1C11",
"w  c #1F1C13",
"e  c #1F1C15",
"r  c #101519",
"t  c #151719",
"y  c #161A1A",
"u  c #111D18",
"i  c #1D1B19",
"p  c #1F1B19",
"a  c #1F1B1A",
"s  c #1F2818",
"d  c #23250D",
"f  c #2C2E08",
"g  c #322F02",
"h  c #353400",
"j  c #3F3200",
"k  c #3D3B00",
"l  c #3E3B00",
"z  c #3D3A03",
"x  c #353613",
"c  c #001827",
"v  c #0A1F22",
"b  c #001D30",
"n  c #002035",
"m  c #082030",
"M  c #2E2827",
"N  c #312927",
"B  c #3C312D",
"V  c #52490A",
"C  c #494411",
"Z  c #494511",
"A  c #524D15",
"S  c #5D6818",
"D  c #7B7600",
"F  c #646B12",
"G  c #656C11",
"H  c #666C11",
"J  c #7E7318",
"K  c #665C35",
"L  c #5A6223",
"P  c #7D7334",
"I  c #003354",
"U  c #003355",
"Y  c #003455",
"T  c #073E5B",
"R  c #003B61",
"E  c #083E61",
"W  c #1F4845",
"Q  c #114B5F",
"!  c #204344",
"~  c #204345",
"^  c #004263",
"/  c #004668",
"(  c #00486D",
")  c #10486D",
"_  c #004A79",
"`  c #00507F",
"'  c #5E4B45",
"]  c #665B44",
"[  c #675B4A",
"{  c #755D55",
"}  c #5C6B6F",
"|  c #7F6F68",
" . c #967F0A",
".. c #8E7C11",
"X. c #8D7B1A",
"o. c #816259",
"O. c #8E7F5F",
"+. c #8E7E6D",
"@. c #8F7D75",
"#. c #A17B70",
"$. c #7C8518",
"%. c #8B8500",
"&. c #8F8800",
"*. c #9D8200",
"=. c #9A9400",
"-. c #93940A",
";. c #8D8111",
":. c #8B9011",
">. c #B89B13",
",. c #AFA800",
"<. c #B0A800",
"1. c #B9B200",
"2. c #A0A011",
"3. c #8C8324",
"4. c #D1B200",
"5. c #D0B800",
"6. c #DDBD14",
"7. c #DDBD15",
"8. c #DDBF18",
"9. c #C9C000",
"0. c #DBD118",
"q. c #D9DE18",
"w. c #D9DF18",
"e. c #E6C70C",
"r. c #EAC50D",
"t. c #E4CA0C",
"y. c #FCC900",
"u. c #FACF01",
"i. c #FCCC00",
"p. c #FCCD00",
"a. c #EDD10A",
"s. c #ECDA0A",
"d. c #FBD200",
"f. c #FAD900",
"g. c #FADB00",
"h. c #F9DF00",
"j. c #E5C911",
"k. c #E7C71C",
"l. c #EECF1D",
"z. c #E3D611",
"x. c #F1D511",
"c. c #E2E10C",
"v. c #E9E70B",
"b. c #F9E000",
"n. c #F8E400",
"m. c #F4EB02",
"M. c #F7ED00",
"N. c #F7ED04",
"B. c #E2E311",
"V. c #E0E212",
"C. c #E8E518",
"Z. c #A58075",
"A. c #A48175",
"S. c #AC8377",
"D. c #A7857A",
"F. c #005288",
"G. c #005388",
"H. c #005489",
"J. c #00548A",
"K. c #005D8B",
"L. c #0B5E88",
"P. c #005891",
"I. c #0C5E92",
"U. c #006092",
"Y. c #006399",
"T. c #00609D",
"R. c #0067A3",
"E. c #0069A6",
"W. c #0067AA",
"Q. c #006FB6",
"!. c #0070B4",
"~. c #0071B8",
"^. c #0073BB",
"/. c #0076C2",
"(. c #0E82C8",
"). c #1587CB",
"_. c #1B8DCE",
"`. c #37A4DA",
"'. c #46ACDC",
"]. c #7BB5D1",
"[. c #7BB6D5",
"{. c #52BBE5",
"}. c #5DC1E7",
"|. c #6DD2F1",
" X c #AE948A",
".X c #BF968A",
"XX c #B39D92",
"oX c #BEA892",
"OX c #BFA79C",
"+X c #B8B8AD",
"@X c #D2AA9C",
"#X c #E5AF9F",
"$X c #CDB0A4",
"%X c #E8B5A5",
"&X c #EBBBAB",
"*X c #DFC3B6",
"=X c #E8C6B8",
"-X c #F2C7B7",
";X c #F3CABB",
":X c #B8D6DE",
">X c #D6D7CA",
",X c #EFD1C3",
"<X c #F7D1C1",
"1X c #F7D1C2",
"2X c #F8D1C2",
"3X c #F8D3C4",
"4X c #FAD6C7",
"5X c #FCD9CA",
"6X c #FDDCCD",
"7X c #FFDFD0",
"8X c #FEE0C3",
"9X c #F5F6E7",
/* pixels */
"/././././././././././././././././././.W.P.H.P.T./././././././././././././././././././././././././././././././././././././././././.",
"/././././././././././././././././././.R   1   b /././././././././././././././././././././././././././././././././././././././././.",
"/././././././././././././././././.W.P.W l 0   c /././././././././././././././././././././././././././././././././././././././././.",
"/././././././././././././././././.R   $.M.S   b /././././././././././././././././././././././././././././././././././././././././.",
"/././././././././././././././.W.P.~ j 2.M.H   v P.T./././././././././././././././././././././././././././././././././././././././.",
"/././././././././././././././.R   J y.0.M.w.M.S   b /././././././././././././././././././././././././././././././././././././././.",
"/././././././././././././././.Y   ..y.z.M.B.M.G   v P.J.P.J.P.J.P.J.P.J.P.J.P.J.P.G.P.G.P.G.P.Q./././././././././././././././././.",
"/././././././././././././././.R   J y.0.M.V.M.V.M.F   3   3   2   2   2   2   2               P./././././././././././././././././.",
"/././././././././././././././.Y   ..y.s.M.M.M.M.M.D   #   #   #   #   #   #   $               Q P.Q./././././././././././././././.",
"/././././././././././././././.R   J y.b.M.M.M.M.M.M.M.M.M.M.M.M.M.M.M.M.M.M.M.M.M.M.M.M.M.M.M.    P./././././././././././././././.",
"/././././././././././././././.Y    .y.h.M.M.M.M.M.M.M.M.M.M.M.M.M.M.M.M.M.M.M.M.M.M.M.M.M.M.M.    Q P.G.F.P.F.P.P././././././././.",
"/././././././././././././././.R   *.y.d.M.M.M.M.M.M.M.M.M.M.M.M.M.M.M.M.M.M.M.M.M.M.M.M.M.M.M.M.M.                /./././././././.",
"/././././././.W.R U R U R U R L *.4.d.f.M.M.M.M.M.M.M.M.M.M.M.M.M.M.M.M.M.M.M.M.M.M.M.M.M.M.M.M.M.                L.P././././././.",
"/././././././.P.              *.y.b.M.M.M.M.M.M.M.M.M.M.M.M.M.M.M.M.M.M.M.M.M.M.M.M.M.M.M.M.M.M.M.M.M.M.M.M.M.M.1.    /./././././.",
"/././././.W.R ! J ;.$.:.$.-.=.5.d.n.M.M.M.M.M.M.M.M.M.M.M.M.M.M.M.M.M.M.M.M.M.M.M.M.M.M.M.M.M.M.M.M.M.M.M.M.M.M.<.# < /./././././.",
"/./.(._.).P.  j y.d.M.M.M.M.M.M.M.M.M.M.M.M.M.M.M.M.M.M.M.M.M.M.M.M.M.M.M.M.M.M.M.M.M.M.M.M.M.M.M.M.M.M.M.M.M.M.1.    /./././././.",
"/./.`.|.{.H.6 A k.j.q.v.M.M.M.M.M.M.M.M.M.M.M.M.M.M.M.M.M.M.M.M.M.M.M.M.M.M.M.M.M.M.M.M.M.M.M.M.M.M.M.M.M.M.M.M.9.k f T R /./././.",
"/./.'.|.}.P.  j y.d.M.M.M.M.M.M.M.M.M.M.M.M.M.M.M.M.M.M.M.M.M.M.M.M.M.M.M.M.M.M.M.M.M.M.M.M.M.M.M.M.M.M.M.M.M.M.M.M.1.    _.)././.",
"/./.[.>X} ! X.>.l.x.M.M.M.M.M.M.M.M.M.M.M.M.M.M.M.M.M.M.M.M.M.M.M.M.M.M.M.M.M.M.M.M.M.M.M.M.M.M.M.M.M.M.M.M.M.M.M.M.<.o 6 |.{././.",
"/./.].+X  j y.d.M.M.M.M.M.M.M.M.M.M.M.M.M.M.M.M.M.M.M.M.M.M.M.M.M.M.M.M.M.M.M.M.M.M.M.M.M.M.M.M.M.M.M.M.M.M.M.M.M.M.1.    |.}././.",
"/./.E.^ : C 7.t.C.N.M.M.M.M.M.M.M.M.M.M.M.M.M.M.M.M.M.M.M.M.M.M.M.M.M.M.M.M.M.M.M.M.M.M.M.M.M.M.M.M.M.M.M.M.M.M.M.M.<.& 9 9X:X/./.",
"/./.R./   j y.d.M.M.M.M.M.M.M.M.M.M.M.M.M.M.M.M.M.M.M.M.M.M.M.M.M.M.M.M.M.M.M.M.M.M.M.M.M.M.M.M.M.M.M.M.M.M.M.M.M.M.1.    9X:X/./.",
"/./.E.^ : C 7.t.c.M.M.M.M.M.M.M.M.M.M.M.M.M.M.M.M.M.M.M.M.M.M.M.M.M.M.M.M.M.M.M.M.M.M.M.M.M.M.M.M.M.M.M.M.M.M.M.M.M.<.- y K.Y././.",
"/./.E./   j y.d.M.M.M.M.M.M.M.M.M.M.M.M.M.M.M.M.M.M.M.M.M.M.M.M.M.M.M.M.M.M.M.M.M.M.M.M.M.M.M.M.M.M.M.M.M.M.M.M.M.M.1.    K.Y././.",
"/././.J.2 Z 6.e.m.M.M.M.M.M.M.M.M.M.M.M.M.M.M.M.M.M.M.M.M.M.M.M.M.M.M.M.M.M.M.M.M.M.M.M.M.M.M.M.M.M.M.M.M.M.M.M.M.M.<.O ; !.~././.",
"/././.P.  j y.d.M.M.M.M.M.M.M.M.M.M.M.M.M.M.M.M.M.M.M.M.M.M.M.M.M.M.M.M.M.M.M.M.M.M.M.M.M.M.M.M.M.M.M.M.M.M.M.M.M.M.1.    /./././.",
"/./.E.^ : Z 8.a.M.M.M.M.M.M.M.M.M.M.M.M.M.M.M.M.M.M.M.M.M.M.M.M.M.M.M.M.M.M.M.M.M.M.M.M.M.M.M.M.M.M.M.M.M.M.M.M.M.M.,.+ , /./././.",
"/./.E./   j y.d.M.M.M.M.M.M.M.M.M.M.M.M.M.M.M.M.M.M.M.M.M.M.M.M.M.M.M.M.M.M.M.M.M.M.M.M.M.M.M.M.M.M.M.M.M.M.M.M.M.M.1.    /./././.",
"/./.^.` , Z 8.u.b.b.M.M.M.M.M.M.M.M.M.M.M.M.M.M.M.M.M.M.M.M.M.M.M.M.M.M.M.M.M.M.M.M.M.M.M.M.M.M.M.M.M.M.M.M.M.M.M.M.,.@ 2 /./././.",
"/././.P.  j y.y.y.y.M.M.M.M.M.M.M.M.M.M.M.M.M.M.M.M.M.M.M.M.M.M.M.M.M.M.M.M.M.M.M.M.M.M.M.M.M.M.M.M.M.M.M.M.M.M.M.M.1.    /./././.",
"/././.J.2 Z r.i.g.g.M.M.M.M.M.M.M.M.M.M.M.M.M.M.M.M.M.M.M.M.M.M.M.M.M.M.M.M.M.M.M.M.M.M.M.M.M.M.M.M.M.M.M.M.M.M.M.M.,.# 2 /./././.",
"/././.P.  j y.y.M.M.M.M.M.M.M.M.M.M.M.M.M.M.M.M.M.M.M.M.M.M.M.M.M.M.M.M.M.M.M.M.M.M.M.M.M.M.M.M.M.M.M.M.M.M.M.M.M.M.1.    /./././.",
"/././.J.2 Z p.p.M.M.M.M.M.M.M.M.M.M.M.M.M.M.M.M.M.M.M.M.M.M.M.M.M.M.M.M.M.M.M.M.M.M.M.M.M.M.M.M.M.M.M.M.M.M.M.M.M.M.,.# 2 /./././.",
"/././.P.  j y.y.M.M.M.M.M.M.M.M.M.M.M.M.M.M.M.M.M.M.M.M.M.M.M.M.M.M.M.M.M.M.M.M.M.M.M.M.M.M.M.M.M.M.M.M.M.M.M.M.M.M.1.    /./././.",
"/././.J.2 V p.p.M.M.M.M.M.M.M.M.M.M.M.M.M.M.M.M.M.M.M.M.M.M.M.M.M.M.M.M.M.M.M.M.M.M.M.M.M.M.M.M.M.M.M.M.M.M.M.M.M.M.,.# 2 /./././.",
"/././.P.  j y.y.M.M.M.M.M.M.M.M.M.M.M.M.M.M.M.M.M.M.M.M.M.M.M.M.M.M.M.M.M.M.M.M.M.M.M.M.M.M.M.M.M.M.M.M.M.M.M.M.M.M.1.    /./././.",
"/././.J.2 > s d z k M.M.M.M.M.M.M.M.M.M.M.M.M.M.M.M.M.M.M.M.M.M.M.M.M.M.M.M.M.M.M.M.M.M.M.M.M.M.M.M.M.M.M.M.9.k g x u < 1 /./././.",
"/././.P.            M.M.M.M.M.M.M.M.M.M.M.M.M.M.M.M.M.M.M.M.M.M.M.M.M.M.M.M.M.M.M.M.M.M.M.M.M.M.M.M.M.M.M.M.1.            /./././.",
"/./.    S.#.S.#.S.o.    M.M.M.M.M.M.M.M.M.M.M.M.M.M.M.M.M.M.M.M.M.M.M.M.M.M.M.M.M.M.M.M.M.M.M.M.M.M.M.M.M.    oXXXOXXXOX@.    /./.",
"/./.    #X#X#X#X#XS.    M.M.M.M.M.M.M.M.M.M.M.M.M.M.M.M.M.M.M.M.M.M.M.M.M.M.M.M.M.M.M.M.M.M.M.M.M.M.M.M.M.    7X7X7X7X7XOX    /./.",
"/./.    #X#X3X<X3X=XOXO.    M.M.M.M.M.M.M.M.M.M.M.M.M.M.M.M.M.M.M.M.M.M.M.M.M.M.M.M.M.M.M.M.M.M.M.M.M.    O.OX7X7X7X7X7XXX    /./.",
"/./.    #X#X7X7X7X7X7XOX    M.M.M.M.M.M.M.M.M.M.M.M.M.M.M.M.M.M.M.M.M.M.M.M.M.M.M.M.M.M.M.M.M.M.M.M.M.    OX7X7X7X7X7X7XOX    /./.",
"/./.    #X#X7X7X7X7X7X,XOXO.  k M.M.M.M.M.M.M.M.M.M.M.M.M.M.M.M.M.M.M.M.M.M.M.M.M.M.M.M.M.M.M.M.M.    O.OX,X7X7X7X7X7X7XXX    /./.",
"/./.    #X#X7X7X7X7X7X7X7XOX  z M.M.M.M.M.M.M.M.M.M.M.M.M.M.M.M.M.M.M.M.M.M.M.M.M.M.M.M.M.M.M.M.M.    OX7X7X7X7X7X7X7X7XOX    /./.",
"/./.    #X#X7X7X7X7X7X7X7X,XOX]   k M.M.M.M.M.M.M.M.M.M.M.M.M.M.M.M.M.M.M.M.M.M.M.M.M.M.M.M.M.    O.OX,X7X7X7X7X7X7X7X7XXX    /./.",
"/./.    #X#X7X7X7X7X7X7X7X7X7X|   z M.M.M.M.M.M.M.M.M.M.M.M.M.M.M.M.M.M.M.M.M.M.M.M.M.M.M.M.M.    OX7X7X7X7X7X7X7X7X7X7XOX    /./.",
"/./.P.)     #XS.    #X#X7X7X7X*XOXK   k M.M.M.M.M.M.M.M.M.M.M.M.M.M.M.M.M.M.M.M.M.M.M.M.M.    O.OX,X7X7X7X7XOX    #XS.    P.P././.",
"/././.P.    #XS.    #X#X7X7X7X7X7X|   k M.M.M.M.M.M.M.M.M.M.M.M.M.M.M.M.M.M.M.M.M.M.M.M.M.    OX7X7X7X7X7X7XOX    #XS.    /./././.",
"/././.Q.P.)         #X#X7X7X7X7X7X*XOX[   #   k M.M.M.M.M.M.M.M.M.M.M.M.M.M.M.M.M.        +.OX,X7X7X7X7X7X7XXX        P.P././././.",
"/././././.P.        #X#X7X7X7X7X7X7X7X|   e   h 1.<.1.,.1.<.1.<.1.<.1.<.1.<.1.&.%.        OX7X7X7X7X7X7X7X7XOX        !.~././././.",
"/././././././.P.    #X#X7X7X7X7X7X7X7X7X7X7X7XP   #   %   *   q   w   =   %   .   3.8X7X7X7X7X7X7X7X7X7X7X7XXX    / ( K.Y././././.",
"/././././././.G.    #X#X7X7X7X7X7X7X7X7X7X7X7X|   p   a   p   p   p   p   p   X   @.7X7X7X7X7X7X7X7X7X7X6X3X X    K.U.K.Y././././.",
"/././././././.P.    #X#X7X7X7X7X7X7X7X7X7X7X7X7X7X7X7X7X7X7X7X7X7X7X7X7X7X7X7X7X7X7X7X7X7X7X7X7X7X7X7X7X3X#XS.    /./././././././.",
"/././././././.P.    S.S.3X3X7X7X7X7X7X7X7X7X7X7X7X7X7X7X7X7X7X7X7X7X7X7X7X7X7X7X7X7X7X7X7X7X7X7X7X7X7X3X;XS.o.    /./././././././.",
"/././././././././.P.    #X#X7X7X7X7X7X7X7X7X7X7X7X7X7X7X7X7X7X7X7X7X7X7X7X7X7X7X7X7X7X7X7X7X7X7X7X7X7X#X#X    K.Y././././././././.",
"/././././././././.P.    S.S.3X4X7X7X7X7X7X7X7X7X7X7X7X7X7X7X7X7X7X7X7X7X7X7X7X7X7X7X7X7X7X7X7X3X3X<X3XS.S.    K.Y././././././././.",
"/././././././././././.I.    #X&X7X7X7X7X7X7X7X7X7X7X7X7X7X7X7X7X7X7X7X7X7X7X7X7X7X7X7X7X7X7X7X#X#X#X#X    P./././././././././././.",
"/././././././././././.P.    S.D.OX$X3X1X3X1X3X1X3X1X3X1X3X5X7X7X7X7X7X7X7X4X3X2X3X<X3X<X3X<X3XS.S.#.S.    P./././././././././././.",
"/././././././././././././.I.  p   B #X%X#X%X#X%X#X%X#X%X#X-X7X7X7X7X7X7X7X&X#X%X#X#X#X#X#X#X#X        P./././././././././././././.",
"/././././././././././././.P.  4   N S.A.S.A.S.A.S.A.S.A.S.@X3X2X3X2X3X2X3X.XS.Z.S.#.S.#.S.#.S.        P./././././././././././././.",
"/././././././././././././././././.R   8   t   i   p   p   { #X%X#X%X#X%X#XB   a               P./././././././././././././././././.",
"/././././././././././././././././.R   1   1   1   5   8   ' S.Z.S.Z.S.Z.S.M   7               P./././././././././././././././././.",
"/././././././././././././././././././././././././././././.m   7   r   r   E /././././././././././././././././././././././././././.",
"/././././././././././././././././././././././././././././.I b n b n b n b _ /././././././././././././././././././././././././././."
};
