/* XPM */
static char *result[] = {
/* columns rows colors chars-per-pixel */
"65 64 144 2 ",
"   c #18232F",
".  c #152B3B",
"X  c #152D41",
"o  c #123146",
"O  c #1B3144",
"+  c #12344C",
"@  c #0F3951",
"#  c #123954",
"$  c #1A3B52",
"%  c #223545",
"&  c #293742",
"*  c #233846",
"=  c #2D3943",
"-  c #243B4E",
";  c #2E3E49",
":  c #333D45",
">  c #213F53",
",  c #0C405D",
"<  c #1A4159",
"1  c #254254",
"2  c #2B4355",
"3  c #22455A",
"4  c #28475E",
"5  c #344652",
"6  c #374955",
"7  c #3D4E5A",
"8  c #0F4165",
"9  c #0E456D",
"0  c #064E74",
"q  c #0B4D78",
"w  c #164F72",
"e  c #06527C",
"r  c #1B567E",
"t  c #254A60",
"y  c #2D4D62",
"u  c #324E63",
"i  c #245375",
"p  c #424A53",
"a  c #46525B",
"s  c #4F575C",
"d  c #53585B",
"f  c #495861",
"g  c #4C5E68",
"h  c #50606E",
"j  c #4E6272",
"k  c #536777",
"l  c #556977",
"z  c #566978",
"x  c #626F79",
"c  c #67747D",
"v  c #0B5181",
"b  c #065788",
"n  c #09578B",
"m  c #005D8B",
"M  c #045E94",
"N  c #085D96",
"B  c #075E98",
"V  c #006092",
"C  c #04629C",
"Z  c #0C659F",
"A  c #0067A2",
"S  c #0069A6",
"D  c #0469AA",
"F  c #036CB0",
"G  c #0070B4",
"H  c #0071B8",
"J  c #667884",
"K  c #687B89",
"L  c #727D84",
"P  c #0076C2",
"I  c #3491B7",
"U  c #3994B7",
"Y  c #3494BB",
"T  c #778086",
"R  c #7F8685",
"E  c #79868E",
"W  c #7B8991",
"Q  c #7F909E",
"!  c #7BACBE",
"~  c #1F86C7",
"^  c #2E8EC9",
"/  c #3D96CB",
"(  c #3CAFDA",
")  c #3CB1DE",
"_  c #3DB3E1",
"`  c #42B2DC",
"'  c #6CABCC",
"]  c #7BADC0",
"[  c #7BB6D4",
"{  c #42B5E2",
"}  c #44BAE5",
"|  c #4ABBE6",
" . c #52BDE7",
".. c #56BCE8",
"X. c #5EBDE9",
"o. c #62BEE9",
"O. c #6CBFEB",
"+. c #5AC1E5",
"@. c #60C7EB",
"#. c #69CBED",
"$. c #73C0EC",
"%. c #79C1ED",
"&. c #73CDEA",
"*. c #6DD2F1",
"=. c #838585",
"-. c #878B8B",
";. c #8C8D8D",
":. c #848E93",
">. c #889499",
",. c #88979E",
"<. c #9B9B9B",
"1. c #8495A1",
"2. c #8997A0",
"3. c #8D9DA4",
"4. c #949EA4",
"5. c #93A3AD",
"6. c #99A4AB",
"7. c #9EA9AD",
"8. c #9DABB3",
"9. c #A2A2A2",
"0. c #ADADAC",
"q. c #A2AEB3",
"w. c #A9AEB0",
"e. c #A7B0B3",
"r. c #AAB0B3",
"t. c #A7B5BE",
"y. c #A8B5BD",
"u. c #ADB8BE",
"i. c #B4B4B4",
"p. c #B0BABF",
"a. c gray",
"s. c #95BFCE",
"d. c #A9B7C0",
"f. c #ADBAC1",
"g. c #B2BDC2",
"h. c #B4C0C4",
"j. c #BDC1C2",
"k. c #B8D2D5",
"l. c #B8D6DE",
"z. c #96D5E7",
"x. c #92D4E8",
"c. c #C5C5C3",
"v. c #D7E6E2",
"b. c #F5F6E7",
/* pixels */
"P P P P P P P P P P P P P P P P P P P P P P P P P P P P P P P P P P P P P P P P P P P P P P P P P P P P P P P P P P P P P P P P P ",
"P P P P P P P P P P P P P P P P P P P P P P P P P P P P P P P P P P P P P P P P P P P P P P P P P P P P P P P P P P P P P P P P P ",
"P P P P P P P P P P P P P P P P P P P P P P P P P P P P P P P P P P P P P P P P P P P P P P P P P P P P P P P P P P P P P P P P P ",
"P P P P P P P P P P P P P P P P P P P P P P P P P P P P P P P P P P P P P P P P P P P P P P P P P P P P P P P P P P P P P P P P P ",
"P P P B Z N C N D B B B B B C B Z B B B Z B C B D N B B B B B B B B B B B B B B B B B B B B B B B B N B B B N B B B B B B B H P P ",
"P P P             X   X   X   X   X   X   X   X   X   X   X                                       .             O   X   X   r P P ",
"P C A             O   X   O   O   X   O   O . %   X   X   X                                                     -   X   O   J D F ",
"P     | } O.O.x.$.x.O.x.O.O.x.O.O.x.O.O.x.O.%.%.O.x.O.x.O.x.%.%.O.O.%.%.%.x.O.O.%.%.%.%.%.%.%.%.O.x.$.$.O.x.$.$.$.x.$.$.x.%.4   9 ",
"P     ` | X.O.O.$.%.%.%.%.%.%.%.%.%.%.%.%.%.%.%.%.%.%.%.%.%.%.%.x.%.%.%.%.%.%.%.%.%.%.%.%.%.%.%.%.%.%.%.%.%.%.%.%.%.%.%.%.%.-   8 ",
"P     | { | | O.%.%.%.%.%.%.%.%.%.%.%.%.%.%.%.%.%.%.%.%.%.%.%.%.%.%.%.%.%.%.%.%.%.%.%.%.%.%.%.%.%.%.%.%.%.%.%.%.%.%.%.%.%.%.4   9 ",
"P     { { } } X.O.O.x.%.%.%.%.%.%.%.%.%.%.%.%.%.%.%.%.%.%.%.%.%.%.%.%.%.%.%.%.%.%.%.%.%.%.%.%.%.%.%.%.%.%.%.%.%.%.%.%.%.%.%.2   8 ",
"P     ^ } } } } _ X.O.%.%.%.%.%.%.%.%.%.%.%.%.%.%.%.%.%.%.%.%.%.%.%.%.%.%.%.%.%.%.%.%.%.%.%.%.%.%.%.%.%.%.%.%.%.%.%.%.%.%.x.4   9 ",
"P     I } } } } { ..O.O.%.%.%.%.%.%.%.%.%.%.%.%.%.%.%.%.%.%.%.%.%.%.%.%.%.%.%.%.%.%.%.%.%.%.%.%.%.%.%.%.%.%.%.%.%.%.%.%.%.%.-   8 ",
"P     | } } } } { ..{ o.%.%.%.%.%.%.%.%.%.%.%.%.%.%.%.%.%.%.%.%.%.%.%.%.%.%.%.%.%.%.%.%.%.%.%.%.%.%.%.%.%.%.%.%.%.%.%.%.%.%.4   9 ",
"P     { } } } } { ..{ o.$.x.%.%.%.%.%.%.%.%.%.%.%.%.%.%.%.%.%.%.%.%.%.%.%.%.%.%.%.%.%.%.%.%.%.%.%.%.%.%.%.%.%.%.%.%.%.%.%.$.4   9 ",
"P     / } } } | { { { { _ { _ X.%.%.%.%.%.%.%.%.%.%.%.%.%.%.%.%.%.%.%.%.%.%.%.%.%.%.%.%.%.%.%.%.%.%.%.%.%.%.%.%.%.%.%.%.%.x.2   8 ",
"P     U { } } } } +._ _ } +.} @.#.$.%.%.%.%.%.%.%.%.%.%.%.%.%.%.%.%.%.%.%.%.%.%.%.%.%.%.%.%.%.%.%.%.%.%.%.%.%.%.%.%.%.%.%.%.4   9 ",
"P     | { | } } } _ } +.} _ _ +.} | } X.%.%.%.%.%.%.%.%.%.%.%.%.%.%.%.%.%.%.%.%.%.%.%.%.%.%.%.%.%.%.%.%.%.%.%.%.%.%.%.%.%.%.-   9 ",
"P     { } } } } } +.} | } +._ } } | } X.%.%.%.%.%.%.%.%.%.%.%.%.%.%.%.%.%.%.%.%.%.%.%.%.%.%.%.%.%.%.%.%.%.%.%.%.%.%.%.%.%.%.4   9 ",
"P     I } } } } } } } | } } } } } | } | } | } | %.%.%.%.%.%.%.%.%.%.%.%.%.%.%.%.%.%.%.%.%.%.%.%.%.%.%.%.%.%.%.%.%.%.%.%.%.x.2   8 ",
"P     U } } } } } +.} | } | } | _ | } | } | } ..*.O.%.%.%.%.%.%.%.%.%.%.%.%.%.%.%.%.%.%.%.%.%.%.%.%.%.%.%.%.%.%.%.%.%.%.%.%.4   9 ",
"P     U } } } } } | } | } | } } +.| } | } | _ | } _ | | %.%.%.%.%.%.%.%.%.%.%.%.%.%.%.%.%.%.%.%.%.%.%.%.%.%.%.%.%.%.%.%.%.%.-   8 ",
"P     U } } } } } ) } +.} | } } _ +.} | } | } | } +._ +.%.%.#.$.%.%.%.%.%.%.%.%.%.%.%.%.%.%.%.%.%.%.%.%.%.%.%.%.%.%.%.%.%.%.4   9 ",
"P     U } } } } } ) } +.} | } } } _ } | } | } | } +._ | } | } } %.%.%.%.%.%.%.%.%.%.%.%.%.%.%.%.%.%.%.%.%.%.%.%.%.%.%.%.%.x.2   8 ",
"P     U } } } } } ) } ( } +.} +.} +._ } } } } +._ } } +.} +._ } %.%.O.x.O.$.%.%.%.%.%.%.%.%.%.%.%.%.%.%.%.%.%.%.%.%.%.%.%.%.4   9 ",
"P     U } } } } } ) } ) }  .} +.} @._ @.} +.} } } } } } } } } } _ _ | { O.x.%.%.%.$.%.%.%.%.%.%.%.%.%.%.%.%.%.%.%.%.%.%.%.%.-   8 ",
"P     U } } } } } ) } ) } ( } ( _ ) } _ } ( } ( } _ } } +.} } } { { | { %.%.%.%.O.x.%.x.%.%.%.%.%.%.%.%.%.%.%.%.%.%.%.%.%.$.4   9 ",
"P X X I _ _ _ { _ ) ( ( ( ( ( ( _ _ _ _ ( ( ( ( _ _ _ _ _ _ _ +...{ | | { ....{ ..{ %.O.%.%.%.%.%.%.%.%.%.%.%.%.%.%.%.%.%.x.u % 8 ",
"P     U } } } } } ) } ( } ( } ( _ _ _ ) +.( _ ) _ ) } _ } ) } } } } { { { | | { { { x.O.x.O.x.O.%.%.%.%.%.%.%.%.%.%.%.%.%.%.4   9 ",
"P X X Y _ _ _ _ ) ( ( ( ( ( ( ( ( ( ) ( ( ( ) ( ) ( ) _ _ _ _ _ _ { _ { { { | | | | { ..{ ..{ ..O.%.%.%.%.%.%.%.%.%.%.%.%.%.u O 9 ",
"P     U } } } } } ) } ) } ) } ( _ _ _ ) _ ) } ) } ) _ _ _ _ } } } } { | | { { { { | | { { { { { O.%.%.%.%.%.%.%.%.%.%.%.%.%.4   9 ",
"P X X I _ _ _ _ ) _ _ _ _ _ ( ( _ _ ) ) ( ) _ _ _ _ _ _ _ _ _ _ _ _ _ _ _ _ _ { _ _ _ { { { { ..{ ..{ ......{ ..X.%.%.%.%.x.u % 9 ",
"P     U } } } } } _ } _ { ( } _ } ( } _ } ( } _ } _ } _ } _ } } } } { { | | } } } | } } } } } } } } } } } } } } X.O.O.O.x.O.u   9 ",
"P X X Y _ _ _ _ _ _ _ _ _ _ _ _ _ ( _ _ ( ( ( _ _ _ _ _ _ _ _ _ _ { { { _ _ _ _ _ _ _ _ _ _ _ _ _ _ _ { } | | | .... . ...| u - 9 ",
"P     U } } } } } _ } _ { _ } _ { _ } _ } _ } _ } _ } _ } _ } } { | { { { | } } } } | { } } } } } } } } } } } | } | | } | | 4   9 ",
"P X X $ < $ $ $ < < < < < < $ $ < < < < $ < < < $ < < < < < < $ 8 $ 8 - < $ < # $ $ $ > $ < $ < $ < $ < $ $ $ $ < $ t < 4 4 - % 8 ",
"P                 X   X   X   X   X   X   X   X   X   X   X                                                     X   X   X   X   9 ",
"P X X k k h k h k j k j k j k j k j k j k j k j k j k k l j l h z h k h J g j j k h k k h k h k j z h k h k h k j k h k j J O X 9 ",
"P     a.a.a.a.a.a.t.g.t.a.t.a.t.a.t.g.u.a.y.a.t.a.d.j.h.j.t.a.a.a.a.a.a.a.a.g.a.a.a.a.a.a.a.a.a.g.a.a.a.a.a.a.a.d.a.d.a.d.a.>   9 ",
"P X X r.y.p.t.p.t.t.t.t.t.d.t.t.t.t.y.t.w.s.t.d.t.d.f.h.g.q.7.w.:.T d.g.d.d.d.d.d.f.y.y.d.y.d.y.f.y.d.y.f.y.u.y.d.d.d.d.d.d.> X 9 ",
"P     a.a.a.a.a.a.t.a.t.a.t.a.t.a.t.g.t.a.t.a.t.a.t.a.h.a.e.<.<.d s a.a.a.a.a.a.a.a.a.a.a.a.a.a.a.a.a.a.a.a.a.a.d.g.g.a.g.a.-   9 ",
"P X X u.y.p.y.u.t.d.t.t.t.t.t.d.t.t.d.d.t.t.t.d.t.u.g.h.h.7.,.;.6 p 8.r.g.f.g.g.g.g.d.d.f.d.p.y.u.y.f.y.p.y.p.u.d.d.g.g.g.d.> X 9 ",
"P     g.a.a.a.a.a.d.g.d.a.d.g.d.a.d.a.d.g.d.a.t.a.h.a.c.g.0.;.;.. : 4.9.a.a.a.a.a.a.a.a.g.a.a.a.a.a.g.c.a.a.g.a.d.a.g.a.a.g.; . 9 ",
"P # # 4.5.6.5.4.5.1.6.1.4.1.5.1.5.1.4.1.5.Q 4.1.6.3.q.9.r.;.-.=.: ; ;.<.0.2.x L r.4.q.4.6.5.6.5.6.4.6.5.6.4.6.5.4.q.4.0.L J 4 $ v ",
"P P P             X   o   X   X   X   X   X   *   :   .   .                                                     %   &   .   q P P ",
"P P P # # + # + # # # # # # # # # # # # # # 3 2 % p a 5 5 6 ; 5 7 ; 6 ; ; 7 u ; % : 6 y > $ > u 1 $ > y 1 $ > u u f a o + # n P P ",
"P P P P P P P P P P P P P P P P P P P P P P [ ;.  5 d f d f d d d d d s d d d d     ] b.z.*.@.*.@.*.@.*.@.*.&.b.k.m M m B P P P P ",
"P P P P P P P P P P P P P P P P P P P P P P [ R = g E E E W E :.L 1.:.:.W :.W L . . ! b.z.*.#.*.#.*.#.*.#.*.&.b.k.m M m B P P P P ",
"P P P P P P P P P P P P P P P P P P P P P P S ,   c i.8.i.q.i.i.0.i.i.i.i.i.i.i.    V m ! b.v.b.v.b.v.b.v.b.k.m V m V P P P P P P ",
"P P P P P P P P P P P P P P P P P P ~ / ^ P S @   c 0.7.r.9.0.0.0.0.0.0.0.0.0.0.    V m ! b.v.b.v.b.v.b.v.b.k.m V m V G H P P P P ",
"P P P P P P P P P P P P P P P P P P [ b.l.P S ,   h <.>.<.2.<.<.<.<.<.<.<.<.<.<.    V m V m V m V m M M V m V m V m V m C P P P P ",
"P P P P P P P P P P P P P P P P P H ' k.s.F b t p L 9.4.9.4.9.9.9.9.9.9.9.9.9.9.p p e 0 m m m m M m M m V m V m V m V m C P P P P ",
"P P P P P P P P P P P P P P P P P P S m C q   J i.8.i.8.i.8.i.i.i.i.i.i.i.i.i.i.i.i.    b m V m V m V m V m C P P P P P H P P P P ",
"P P P P P P P P P P P P P P P P P P S e e i p W i.e.i.w.i.t.i.i.i.i.i.i.i.i.i.i.i.i.p p w 0 m m V m V m V m V G H P P P ~ P P P P ",
"P P P P P P P P P P P P P P P P P P P #   K a.y.g.y.a.y.g.d.a.a.a.a.c.a.a.a.a.a.a.a.a.a.p   b H A m C P S m V m C P P P P P P P P ",
"P P P P P P P P P P P P P P P P P P P #   J a.e.a.u.a.y.a.r.a.a.a.a.a.a.a.a.a.a.a.a.a.a.p   e G A m V G C m V m V P P P P P P P P ",
"P P P P P P P P P P P P P P P P P P P P P #   X   X   X   X   X   .   X   X   X             b m C P S m C P P P P P P P P P P P P ",
"P P P P P P P P P P P P P P P P P P P P P #   .   X   X   X   O   .   O   X   X             b V C P S m C P P P P P P P P P P P P ",
"P P P P P P P P P P P P P P P P P P P P P P P P P P P P P P P P P P P P P P P P P P P P P P P P H P P P P P P P P P P P P P P P P ",
"P P P P P P P P P P P P P P P P P P P P P P P P P P P P P P P P P P P P P P P P P P P P P P P P P P P P P P P P P P P P P P P P P ",
"P P P P P P P P P P P P P P P P P P P P P P P P P P P P P P P P P P P P P P P P P P P P P P P P P P P P P P P P P P P P P P P P P ",
"P P P P P P P P P P P P P P P P P P P P P P P P P P P P P P P P P P P P P P P P P P P P P P P P P P P P P P P P P P P P P P P P P ",
"P P P P P P P P P P P P P P P P P P P P P P P P P P P P P P P P P P P P P P P P P P P P P P P P P P P P P P P P P P P P P P P P P ",
"P P P P P P P P P P P P P P P P P P P P P P P P P P P P P P P P P P P P P P P P P P P P P P P P P P P P P P P P P P P P P P P P P "
};
