/* XPM */
static char *result[] = {
/* columns rows colors chars-per-pixel */
"64 64 250 2 ",
"   c #18232F",
".  c #1D2732",
"X  c #1D2733",
"o  c #162837",
"O  c #1C2833",
"+  c #1D2833",
"@  c #1E2833",
"#  c #192835",
"$  c #1B2835",
"%  c #1C2834",
"&  c #1F2934",
"*  c #1F2935",
"=  c #1F2A34",
"-  c #1F2A35",
";  c #1C2A36",
":  c #1C2A37",
">  c #1D2A37",
",  c #1E2B37",
"<  c #172938",
"1  c #16293A",
"2  c #152A3A",
"3  c #152A3B",
"4  c #162A3A",
"5  c #162A3C",
"6  c #172B3C",
"7  c #152C3F",
"8  c #172C3E",
"9  c #172C3F",
"0  c #172D3F",
"q  c #182938",
"w  c #182939",
"e  c #192939",
"r  c #1A2A39",
"t  c #1B2B39",
"y  c #192B3A",
"u  c #1A2B3A",
"i  c #1B2B3A",
"p  c #1C2A38",
"a  c #1C2B38",
"s  c #1D2E3B",
"d  c #182B3C",
"f  c #192C3C",
"g  c #182C3D",
"h  c #192D3D",
"j  c #1B2D3C",
"k  c #182C3E",
"l  c #222C36",
"z  c #222C37",
"x  c #202F3B",
"c  c #242D38",
"v  c #242E38",
"b  c #242E39",
"n  c #27303A",
"m  c #28313B",
"M  c #2B353F",
"N  c #2B363F",
"B  c #2D353F",
"V  c #2C363E",
"C  c #152D40",
"Z  c #152D41",
"A  c #162D40",
"S  c #152D42",
"D  c #152E42",
"F  c #183043",
"G  c #1F3240",
"H  c #1C3142",
"J  c #183044",
"K  c #123348",
"L  c #16334A",
"P  c #16344B",
"I  c #13344C",
"U  c #12364F",
"Y  c #17364D",
"T  c #16364F",
"R  c #153750",
"E  c #123853",
"W  c #173850",
"Q  c #163852",
"!  c #123957",
"~  c #113A57",
"^  c #213542",
"/  c #223846",
"(  c #223847",
")  c #2C3842",
"_  c #2F3943",
"`  c #213B4B",
"'  c #2D3C48",
"]  c #313A42",
"[  c #323A42",
"{  c #343C43",
"}  c #333D45",
"|  c #333D46",
" . c #353D45",
".. c #0C405D",
"X. c #19405A",
"o. c #1F4259",
"O. c #3D444A",
"+. c #3F484F",
"@. c #274251",
"#. c #2B4151",
"$. c #294656",
"%. c #204359",
"&. c #2D4E5F",
"*. c #334551",
"=. c #304553",
"-. c #374650",
";. c #374651",
":. c #334755",
">. c #374955",
",. c #3B4851",
"<. c #3F4851",
"1. c #384C57",
"2. c #304759",
"3. c #0E476F",
"4. c #114664",
"5. c #074B70",
"6. c #074C71",
"7. c #064E74",
"8. c #0C4C78",
"9. c #03567F",
"0. c #11517A",
"q. c #16557E",
"w. c #2F5263",
"e. c #2F5264",
"r. c #385367",
"t. c #424A53",
"y. c #444B50",
"u. c #484E53",
"i. c #4C5155",
"p. c #46555D",
"a. c #49515A",
"s. c #51585B",
"d. c #53585B",
"f. c #545C61",
"g. c #50606E",
"h. c #50616E",
"j. c #53626F",
"k. c #4D6372",
"l. c #4E6272",
"z. c #4F6474",
"x. c #536777",
"c. c #546877",
"v. c #586875",
"b. c #576A78",
"n. c #5B6B78",
"m. c #72777B",
"M. c #025985",
"N. c #005D8B",
"B. c #065D93",
"V. c #075D96",
"C. c #075E97",
"Z. c #085D96",
"A. c #075E98",
"S. c #06619D",
"D. c #0566A6",
"F. c #006AA7",
"G. c #006BAA",
"H. c #0070B4",
"J. c #0074BF",
"K. c #0076C2",
"L. c #0F7EC4",
"P. c #3D83A2",
"I. c #378BBD",
"U. c #75858E",
"Y. c #79858D",
"T. c #79868D",
"R. c #798992",
"E. c #7E8D93",
"W. c #728899",
"Q. c #7F909E",
"!. c #3D96CB",
"~. c #6DD2F1",
"^. c #838585",
"/. c #8B8C8C",
"(. c gray55",
"). c #828C91",
"_. c #868F93",
"`. c #828E96",
"'. c #8C9093",
"]. c #8D9093",
"[. c #8F9395",
"{. c #83949F",
"}. c #89949B",
"|. c #8E9A9E",
" X c #969797",
".X c #94979A",
"XX c #9B9B9B",
"oX c #9A9C9D",
"OX c #8495A1",
"+X c #8798A3",
"@X c #8E9AA3",
"#X c #8D9CA3",
"$X c #8E9FAA",
"%X c #909DA4",
"&X c #97A2A7",
"*X c #92A2AD",
"=X c #93A3AD",
"-X c #95A5AE",
";X c #99A5AC",
":X c #99A6AE",
">X c #9FA8AB",
",X c #99A8AF",
"<X c #9FADB3",
"1X c gray63",
"2X c #A2A2A2",
"3X c gray64",
"4X c #A3A4A5",
"5X c #A0A5A7",
"6X c #A0AAAF",
"7X c gray67",
"8X c #ACACAC",
"9X c gray68",
"0X c #ACADAE",
"qX c #A0ABB2",
"wX c #A2AFB3",
"eX c #AEB0B0",
"rX c #ACB1B2",
"tX c #ABB3B6",
"yX c #A6B5BE",
"uX c #A7B5BE",
"iX c #A6B5BF",
"pX c #A8B6BF",
"aX c #ADB8BB",
"sX c #AAB8BF",
"dX c #ADB8BE",
"fX c #AEB8BE",
"gX c #B1B1B1",
"hX c #B0B2B1",
"jX c gray70",
"kX c gray71",
"lX c #B6B6B6",
"zX c #B7B7B7",
"xX c #B5B9B1",
"cX c #B0BABF",
"vX c gray",
"bX c #BEC1B9",
"nX c #A9B8C0",
"mX c #AAB8C0",
"MX c #ACB9C0",
"NX c #AEBBC1",
"BX c #B0BAC0",
"VX c #B5BEC0",
"CX c #B7BFC2",
"ZX c #B7C0C2",
"AX c #B4C0C4",
"SX c #B4C1C5",
"DX c #B8D0D0",
"FX c #C5C5C3",
"GX c #D3EDEA",
"HX c #F5F6E7",
/* pixels */
"K.K.K.K.K.K.K.K.K.K.K.K.K.K.K.K.K.K.K.K.K.K.K.K.K.K.K.K.K.K.K.K.K.K.K.K.K.K.K.K.K.K.K.K.K.K.K.K.K.K.K.K.K.K.K.K.K.K.K.K.K.K.K.K.",
"K.K.K.K.K.K.K.K.K.K.K.K.K.K.K.K.K.K.K.K.K.K.K.K.K.K.K.K.K.K.K.K.K.K.K.K.K.K.K.K.K.K.K.K.K.K.K.K.K.K.K.K.K.K.K.K.K.K.K.K.K.K.K.K.",
"K.K.K.K.K.K.K.K.K.K.K.K.K.K.K.K.K.K.K.K.K.K.K.K.K.K.K.K.K.K.K.K.K.K.K.K.K.K.K.K.K.K.K.K.K.K.K.K.K.K.K.K.K.K.K.K.K.K.K.K.K.K.K.K.",
"K.K.K.K.K.K.K.K.K.K.K.K.K.K.K.K.K.K.K.K.K.K.K.K.K.K.K.K.K.K.K.K.K.K.K.K.K.K.K.K.K.K.K.K.K.K.K.K.K.K.K.K.K.K.K.K.K.K.K.K.K.K.K.K.",
"K.K.D.S.A.S.A.S.A.S.C.S.C.S.C.S.C.S.C.S.V.S.V.S.V.S.V.S.Z.S.V.S.S.Z.S.Z.S.Z.S.Z.S.Z.S.Z.S.A.S.A.S.A.S.A.S.A.S.C.S.C.S.C.S.D.K.K.",
"K.K.E   Z   Z   Z   Z   Z   Z   Z   Z                                                     Z   Z   Z   Z   Z   Z   Z   Z   E K.K.",
"D.S.J   d   k   k   k   k   k   k   k                                                     k   k   k   k   k   k   k   k   P S.D.",
"T   &    .d.d.d.d.d.d.d.d.d.d.d.d.d.d.d.d.d.d.d.d.d.d.d.d.d.d.d.d.d.d.d.d.d.d.d.d.d.d.d.d.d.d.d.d.d.d.d.d.d.d.d.d.d.d.d.d.#.  E ",
"L   .   V y.i.d.d.d.d.d.d.d.d.d.d.d.d.d.d.d.d.d.d.d.d.d.d.d.d.d.d.d.d.d.d.d.d.d.d.d.d.d.d.d.d.d.d.d.d.d.d.d.d.d.d.d.d.d.d.'   I ",
"E   &   &    .d.d.d.d.d.d.d.d.d.d.d.d.d.d.d.d.d.d.d.d.d.d.d.d.d.d.d.d.d.d.d.d.d.d.d.d.d.d.d.d.d.d.d.d.d.d.d.d.d.d.d.d.d.d. .  E ",
"I   e   .   V y.i.d.d.d.d.d.d.d.d.d.d.d.d.d.d.d.d.d.d.d.d.d.d.d.d.d.d.d.d.d.d.d.d.d.d.d.d.d.d.d.d.d.d.d.d.d.d.d.d.d.d.d.d.[   I ",
"E   Z   &   &    .d.d.d.d.d.d.d.d.d.d.d.d.d.d.d.d.d.d.d.d.d.d.d.d.d.d.d.d.d.d.d.d.d.d.d.d.d.d.d.d.d.d.d.d.d.d.d.d.d.d.d.d. .  E ",
"I   5   $   .   B y.u.d.d.d.d.d.d.d.d.d.d.d.d.d.d.d.d.d.d.d.d.d.d.d.d.d.d.d.d.d.d.d.d.d.d.d.d.d.d.d.d.d.d.d.d.d.d.d.d.d.d.[   I ",
"E   Z   A   &   &   n d.d.d.d.d.d.d.d.d.d.d.d.d.d.d.d.d.d.d.d.d.d.d.d.d.d.d.d.d.d.d.d.d.d.d.d.d.d.d.d.d.d.d.d.d.d.d.d.d.d. .  E ",
"E   Z   Z   -   &   n d.d.d.d.d.d.d.d.d.d.d.d.d.d.d.d.d.d.d.d.d.d.d.d.d.d.d.d.d.d.d.d.d.d.d.d.d.d.d.d.d.d.d.d.d.d.d.d.d.d. .  E ",
"I   g   6   r   X   @   &   n d.d.d.d.d.d.d.d.d.d.d.d.d.d.d.d.d.d.d.d.d.d.d.d.d.d.d.d.d.d.d.d.d.d.d.d.d.d.d.d.d.d.d.d.d.d.]   I ",
"E   (   F   (   &   &   &   n d.d.d.d.d.d.d.d.d.d.d.d.d.d.d.d.d.d.d.d.d.d.d.d.d.d.d.d.d.d.d.d.d.d.d.d.d.d.d.d.d.d.d.d.d.d. .  E ",
"I   G   h   G   ;   X   .   @   &   n d.d.d.d.d.d.d.d.d.d.d.d.d.d.d.d.d.d.d.d.d.d.d.d.d.d.d.d.d.d.d.d.d.d.d.d.d.d.d.d.d.d.]   I ",
"E   |   H   |   /   &   &   &   &   n d.d.d.d.d.d.d.d.d.d.d.d.d.d.d.d.d.d.d.d.d.d.d.d.d.d.d.d.d.d.d.d.d.d.d.d.d.d.d.d.d.d. .  E ",
"I   M   j   M   G   +   X   .   .   @         d.d.d.d.d.d.d.d.d.d.d.d.d.d.d.d.d.d.d.d.d.d.d.d.d.d.d.d.d.d.d.d.d.d.d.d.d.d.]   I ",
"E   2   7   2   |   ^   &   &   &   &         d.d.d.d.d.d.d.d.d.d.d.d.d.d.d.d.d.d.d.d.d.d.d.d.d.d.d.d.d.d.d.d.d.d.d.d.d.d. .  E ",
"I   o   1   o   M   G   X   X   .   .                 d.d.d.d.d.d.d.d.d.d.d.d.d.d.d.d.d.d.d.d.d.d.d.d.d.d.d.d.d.d.d.d.d.d.]   I ",
"E   2   7   2   2   }   x   &   &   &                 d.d.d.d.d.d.d.d.d.d.d.d.d.d.d.d.d.d.d.d.d.d.d.d.d.d.d.d.d.d.d.d.d.d. .  E ",
"I   o   4   o   o   N   G   ,   X   .                         d.d.d.d.d.d.d.d.d.d.d.d.d.d.d.d.d.d.d.d.d.d.d.d.d.d.d.d.d.d.]   I ",
"E   Z   Z   2   2   2   }   }   _   b                         d.d.d.d.d.d.d.d.d.d.d.d.d.d.d.d.d.d.d.d.d.d.d.d.d.d.d.d.d.d. .  E ",
"I   5   5   o   o   o   N   M   M   N                                 y.d.d.d.d.d.d.d.d.d.d.d.d.d.d.d.d.d.d.d.d.d.d.d.d.d.]   I ",
"E   2   7   Z   Z   2   2   2   2   2                                 y.d.d.d.d.d.d.d.d.d.d.d.d.d.d.d.d.d.d.d.d.d.d.d.d.d. .  E ",
"~ Z 3 2 C Z D Z D 7 3 2 3 2 3 2 3 2 3 2 o 2 o 2 5 Z 5 8 # ; O & & X & z n v n v n u.d.d.d.d.d.d.d.d.d.d.d.d.d.d.d.d.d.d.d.{ : ! ",
"E   7   Z   Z   2   2   2   2   2   2                                             y.d.d.d.d.d.d.d.d.d.d.d.d.d.d.d.d.d.d.d. .  E ",
"~ Z D Z D Z D Z 3 2 3 2 3 2 3 2 3 2 3 2 o 2 o 2 o 2 5 Z 5 Z 5 Z Z 5 Z w i % & X & z n v n m n O.d.d.d.d.d.d.d.d.d.d.d.d.d.{ & ! ",
"E   Z   Z   Z   7   7   7   2   7   2                                                     &    .d.d.d.d.d.d.d.d.d.d.d.d.d. .  E ",
"~ Z D Z D Z D Z D Z S Z S 7 3 2 D 7 3 2 5 Z 5 Z 5 Z 5 Z 5 Z 5 Z Z 5 Z 4 2 o Z 5 Z 5 0 q p - & v n m n m n m n [ d.d.d.d.d.{ & ! ",
"E   Z   Z   Z   Z   Z   2   7   2   7                                                     Z   f   &   &   &   n d.d.d.d.d. .  E ",
"~ Z D Z D Z D Z D Z S 7 3 2 S 7 3 2 D 7 o 2 5 Z 5 Z 5 Z 5 Z 5 Z Z 5 Z 5 Z 5 Z 5 Z 5 Z 5 Z D Z D Z D k u > * & l n m n m n c & Q ",
"E   Z   Z   Z   Z   Z   7   Z   7   Z                                                     Z   Z   Z   Z   A   t   &   &   &   Y ",
"~ Z S Z S Z S Z S Z D Z D Z D Z D Z D Z 5 Z 5 Z 5 Z 5 Z 5 Z 5 Z Z 5 Z 5 Z 5 Z 5 Z 5 Z 5 Z S Z S Z S Z S Z S Z D Z A f a - = & W ",
"E   Z   Z   Z   Z   Z   Z   Z   Z   Z                                                     Z   Z   Z   Z   Z   Z   Z   Z   9   R ",
"~ Z z.x.l.x.l.x.l.x.k.x.k.x.k.x.k.x.k.x.g.x.g.x.g.x.j.b.h.x.j.b.c.g.x.g.x.g.x.g.x.g.x.g.x.l.x.l.x.l.x.l.x.l.x.k.x.k.x.k.x.2.Z ! ",
"E   *XvXuXvXuXvXuXvXuXvXuXvXuXvXuXvXuXvXvXvXvXvXvXvXvXvXvXvXvXvXvXvXvXvXvXvXvXvXvXvXvXvXvXuXvXuXvXuXvXuXvXuXvXuXvXuXvXuXvXx.  E ",
"! Z $XuXyXuXyXuXyXuXiXuXiXuXiXuXiXuXiXuXdXuXdXuXdXuXZXAXaX:X>XE.U.qXmXcXpXdXmXcXpXdXuXdXuXyXuXyXuXyXuXyXuXyXuXiXuXiXmXnXpXl.Z ~ ",
"E   *XvXuXvXuXvXuXvXuXvXuXvXuXvXuXvXuXvXvXvXvXvXvXvXvXvXkXXXXXd.d.4XvXvXvXvXvXvXvXvXvXvXvXuXvXuXvXuXvXuXvXuXvXuXvXuXvXAXvXx.  E ",
"! Z $XuXyXuXyXuXyXuXiXuXiXuXiXuXiXuXiXuXdXuXdXuXBXmXZXAXtX|._.1.=.}.wXVXMXfXAXCXNXcXpXfXuXyXuXyXuXyXuXyXuXyXuXiXmXsXAXSXMXk.Z ! ",
"E   *XvXuXvXuXvXuXvXuXvXuXvXuXvXuXvXuXvXvXvXvXvXvXvXvXvXgX(.(.    XXXXvXvXvXvXvXvXvXvXvXvXuXvXuXvXuXvXuXvXuXvXuXvXAXvXFXvXx.  E ",
"3.E W.*XOX*XOX*XOX*XQ.*XQ.*XQ.*XQ.*XQ.*X@X*X%X-X&X<X5XhXoX/.^.| H Y. XeX:Xv.m.0X<X6X,X;X=XOX-X+X=XOX-X+X=XOX-X{.<X#XrX[.n.r.E 3.",
"K.K.E   Z   Z   Z   Z   Z   Z   Z   Z                                                     Z   (   Z   (   Z   (   }   2   E K.K.",
"K.K.3.E ~ E ~ E ~ E ! E ! E ! E ! E ! E I E @.( ) s.,.*.;.*.;.*.:.>.*.-.:.>.*.< | +.&.$.%.X.&.e.o.X.&.e.o.X.&.w.p.f.` K U 3.K.K.",
"K.K.K.K.K.K.K.K.K.K.K.K.K.K.K.K.K.K.K.K.K.K.bX    d.d.d.d.d.d.d.d.d.d.d.d.d.d.    7.HXHX~.~.~.~.~.~.~.~.~.~.GXHXP.N.N.N.H.K.K.K.",
"K.K.K.K.K.K.K.K.K.K.K.K.K.K.K.K.K.K.K.K.K.K.xX} s T.).T.).T.).T.R.`.T.).R.`.T.y 2 6.HXHX~.~.~.~.~.~.~.~.~.~.GXHXP.N.N.N.H.K.K.K.",
"K.K.K.K.K.K.K.K.K.K.K.K.K.K.K.K.K.K.K.K.K.K.7.    jXjXjXjXjXjXjXjXjXjXjXjXjXjX    7.N.N.HXHXHXHXHXHXHXHXHXHXP.N.N.N.H.K.K.K.K.K.",
"K.K.K.K.K.K.K.K.K.K.K.K.K.K.K.K.K.K.!.!.L.K.5.    9X8X9X8X9X8X9X9X7X9X7X9X7X9X    5.N.N.HXHXHXHXHXHXHXHXHXHXP.N.N.N.F.H.J.K.K.K.",
"K.K.K.K.K.K.K.K.K.K.K.K.K.K.K.K.K.K.HXHX!.K.7.    XXXXXXXXXXXXXXXXXXXXXXXXXXXX    7.N.N.N.N.N.N.N.N.N.N.N.N.N.N.N.N.N.N.H.K.K.K.",
"K.K.K.K.K.K.K.K.K.K.K.K.K.K.K.K.K.K.DXDXI.S.4.    1X2X1X2X1X2X1X1X3X1X3X1X3X1X    4.7.M.N.N.N.N.N.N.N.N.N.N.N.N.N.N.N.N.H.K.K.K.",
"K.K.K.K.K.K.K.K.K.K.K.K.K.K.K.K.K.K.N.N.B.    jXjXjXjXjXjXjXjXjXjXjXjXjXjXjXjXjXjX    S.N.N.N.N.N.N.N.N.N.N.H.K.K.K.K.K.K.K.K.K.",
"K.K.K.K.K.K.K.K.K.K.K.K.K.K.K.K.K.K.9.7.0.    lXzXlXzXlXzXlXzXlXlXzXlXzXlXzXlXzXlXa.t.q.7.9.N.N.N.N.N.N.N.N.F.H.J.K.K.K.K.K.K.K.",
"K.K.K.K.K.K.K.K.K.K.K.K.K.K.K.K.K.K.8.    vXvXvXvXvXvXvXvXvXvXvXvXvXvXvXvXvXvXvXvXvXvXt.  ..H.K.N.N.H.K.N.N.N.N.H.K.K.K.K.K.K.K.",
"K.K.K.K.K.K.K.K.K.K.K.K.K.K.K.K.K.K.8.    .X'..X'..X'..X'..X'..X.X]..X]..X]..X]..X]..X<.  ..G.H.N.N.G.H.N.N.N.N.H.K.K.K.K.K.K.K.",
"K.K.K.K.K.K.K.K.K.K.K.K.K.K.K.K.K.K.K.K.S.                                            S.K.K.N.N.H.K.N.N.H.K.K.K.K.K.K.K.K.K.K.K.",
"K.K.K.K.K.K.K.K.K.K.K.K.K.K.K.K.K.K.K.K.S.                                            S.K.K.N.N.H.K.N.N.H.K.K.K.K.K.K.K.K.K.K.K.",
"K.K.K.K.K.K.K.K.K.K.K.K.K.K.K.K.K.K.K.K.K.K.K.K.K.K.K.K.K.K.K.K.K.K.K.K.K.K.K.K.K.K.K.K.K.K.K.K.K.K.K.K.K.K.K.K.K.K.K.K.K.K.K.K.",
"K.K.K.K.K.K.K.K.K.K.K.K.K.K.K.K.K.K.K.K.K.K.K.K.K.K.K.K.K.K.K.K.K.K.K.K.K.K.K.K.K.K.K.K.K.K.K.K.K.K.K.K.K.K.K.K.K.K.K.K.K.K.K.K.",
"K.K.K.K.K.K.K.K.K.K.K.K.K.K.K.K.K.K.K.K.K.K.K.K.K.K.K.K.K.K.K.K.K.K.K.K.K.K.K.K.K.K.K.K.K.K.K.K.K.K.K.K.K.K.K.K.K.K.K.K.K.K.K.K.",
"K.K.K.K.K.K.K.K.K.K.K.K.K.K.K.K.K.K.K.K.K.K.K.K.K.K.K.K.K.K.K.K.K.K.K.K.K.K.K.K.K.K.K.K.K.K.K.K.K.K.K.K.K.K.K.K.K.K.K.K.K.K.K.K.",
"K.K.K.K.K.K.K.K.K.K.K.K.K.K.K.K.K.K.K.K.K.K.K.K.K.K.K.K.K.K.K.K.K.K.K.K.K.K.K.K.K.K.K.K.K.K.K.K.K.K.K.K.K.K.K.K.K.K.K.K.K.K.K.K.",
"K.K.K.K.K.K.K.K.K.K.K.K.K.K.K.K.K.K.K.K.K.K.K.K.K.K.K.K.K.K.K.K.K.K.K.K.K.K.K.K.K.K.K.K.K.K.K.K.K.K.K.K.K.K.K.K.K.K.K.K.K.K.K.K."
};
