/* XPM */
static char *result[] = {
/* columns rows colors chars-per-pixel */
"64 64 27 1 ",
"  c #005D8B",
". c #2E799C",
"X c #006AA7",
"o c #006AA8",
"O c #006BAA",
"+ c #006FB1",
"@ c #006EB2",
"# c #0070B4",
"$ c #0074BF",
"% c #0076C2",
"& c #077CC5",
"* c #0F7EC4",
"= c #3D83A2",
"- c #1B8DCE",
"; c #2793CF",
": c #3992C7",
"> c #3D95C9",
", c #3D96CB",
"< c #2192D0",
"1 c #33A1D8",
"2 c #34A2D8",
"3 c #39A3D8",
"4 c #6DD2F1",
"5 c #B8D0D0",
"6 c #CDEBEA",
"7 c #D3EDEA",
"8 c #F5F6E7",
/* pixels */
"%%%%%%%%%%%%%%%%%%%%%%%%%%%%%%%%%%%%%%%%%%%%%%%%%%%%%%%%%%%%%%%%",
"%%%%%%%%%%%%%%%%%%%%%%%%%%%%%%%%%%%%%%%%%%%%%%%%%%%%%%%%%%%%%%%%",
"%%%%%%%%%%%%%%%%%%%%%%%%%%%%%%%%%%%%%%%%%%%%%%%%%%%%%%%%%%%%%%%%",
"%%%%%%%%%%%%%%%%%%%%%%%%%%%%%%%%%%%%%%%%%%%%%%%%%%%%%%%%%%%%%%%%",
"%%%%%%%%%%%%%%%%%%%%%%%%%%%%%%%%%%%%%%%%%%%%%%%%%%%%%%%%%%%%%%%%",
"%%%%%%%%%%%%%%%%%%%%%%%%%%%%%%%%%%%%%%%%%%%%%%%%%%%%%%%%%%%%%%%%",
"%%%%%%%%%%%%%%%%%%%%%%%%%%%%%%%%%%%%%%%%%%%%%%%%%%%%%%%%%%%%%%%%",
"%%%%%%%%%%%%%%%%%%%%%%%%%%%%%%%%%%%%%%%%%%%%%%%%%%%%%%%%%%%%%%%%",
"%%%%%%%%%%%%%%%%%%%%%%%%%%%%%%%%%%%%%%%%%%%%%%%%%%%%%%%%%%%%%%%%",
"%%%%%%%%%%%%%%%%%%%%%%%%%%%%%%%%%%%%%%%%%%%%%%%%%%%%%%%%%%%%%%%%",
"%%%%%%%%%%%%%%%%%%%%%%%%%%%%%%%%%%%%%%%%%%%%%%%%%%%%%%%%%%%%%%%%",
"%%%%%%%%%%%%%%%%%%%%%%%%%%%%%%%%%%%%%%%%%%%%%%%%%%%%%%%%%%%%%%%%",
"%%%%%%%%%%%%%%%%%%%%%%%%%%%%%%%%%%%%%%%%%%%%%%%%%%%%%%%%%%%%%%%%",
"%%%%%%%%%%%%%%%%%%%%%%%%%&--%&--%%%%%%%%%%%%%%%%%%%%%%%%%%%%%%%%",
"%%%%%%%%%%%%%%%%%%%%%%%%%-44%-44%%%%%%%%%%%%%%%%%%%%%%%%%%%%%%%%",
"%%--&%--&%%%%%%%%%%%%%%%%<44-144--%%%%%%%%%%%%%%%%%%%%%%%%%%%%%%",
"%%44-%44-%%%%%%%%%%%%%%%%-44444444%%%%%%%%%%%%%%%%%%%%%%%%%%%%%%",
"%%44;%443-&%%%%%%%%%%%%&-344444444--%%%%%%%%%%%%%%%%%%%%%%%%--&%",
"%%88,%8844-%%%%%%%%%%%%-448888888744%%%%%%%%%%%%%%%%%%%%%%%%44-%",
"%%88>%88443-%%%%%%%%%&-3448888888744--%%%%%%%%%%%%%%%%%%%%--44;%",
"%%  #%  874444%-44%-444488       =8744%%%%%%%%%%%%%%%%%%%%4478,%",
"%%  +%  874444-144-1444488       =8744%%%%%%%%%%%%%%%%%%%%4478,%",
"%%  #%   =86444444444488           =88%%%%%%%%%%%%%%%%%%%%88= #%",
"%%  #%   =87444444444488           =88%%%%%%%%%%%%%%%%%%%%88= #%",
"%%%%%%     =8888888888      #X  #o    %%%%%%%%%%%%%%%%%%%%  O#$%",
"%%%%%%     =8888888888      %#  %#    %%%%%%%%%%%%%%%%%%%%  #%%%",
"%%  #%%%%@              #+#O  #O      %%%%%%%%%%%%%%%%%%%%##$%%%",
"%%  #%%%%#              %%%#  %#      %%%%%%%%%%%%%%%%%%%%%%%%%%",
"%%##$%%%                  %$##%$#@#@##%%%%%%%%%%%%%%%%%%%%%%%%%%",
"%%%%%%%%                  %%%%%%%%%%%%%%%%%%%%%%%%%%--&%%%%%%%%%",
"%%%%%%%%#+@@#X  #X  #+#+##%%%%%%%%%#  %%%%%%%%%%%%%%44-%%%%%%%%%",
"%%%%%%%%%%%%%#  %#  %%%%%%%%%%%%%%%#  %%%%%%%%%%%%%%44-%%%%%%%%%",
"%%%%%%%%%%%#  #O  #O  %%%%%%%%%%%%%$##%%%%%%%%%%%%%%%%%%%%%%%%%%",
"%%%%%%%%%%%#  %#  %#  %%%%%%%%%%%%%%%%%%%%%%%%%%%%%%%%%%%%%%%%%%",
"%%%%%%%%%%%$##%$##%$##%%%%%%%%%%%%%%%%%%%%%%%%%%%%%%%%%%%%%%%%%%",
"%%%%%%%%%%%%%%%%%%%%%%%%%%%%%%%%%%%%%%%%%%%%%%%%%%%%%%%%%%%%%%%%",
"%%%%%%%%%%%%%%%%%%%%%%%%%%%%%%%%%%%%%%%%%%%%%%%%%%%%%%%%%%%%%%%%",
"%%%%%%%%%%%%%%%%%%%%%%%%%%--&%--&%%%%%%%%%%%%%%%%%%%%%%%%%%%%%%%",
"%%%%%%%%%%%%%%%%%%%%%%%%%%44-%44-%%%%%%%%%%%%%%%%%%%%%%%%%%%%%%%",
"%%%%%%%%%%%%%%%%%%%%%%%%%%441-44<%--&%--&%%%%%%%%%%%%%%%%%--&%%%",
"%%%%%%%%%%%%%%%%%%%%%%%%%%444444-%44-%44-%%%%%%%%%%%%%%%%%44-%%%",
"%%%%%%%%%%%%%%%%%%%%%%%%--444444;%44;%443-&%%%%%%%%%%%%%--44;%%%",
"%%%%%%%%%%%%%%%%%%%%%%%%44788888,%88,%8844-%%%%%%%%%%%%%4478,%%%",
"%%%%%%%%%%%%%%%%%%%%%%--44788888>%88>%88443-&%--&%--&%--4478>%%%",
"%%%%%%%%%%%%%%%%%%%%%%4478=     #%  #%  8844-%44-%44-%4478= #%%%",
"%%%%%%%%%%%%%%%%%%%%%%4478.     +%  +%  88443-442-442-4478= +%%%",
"%%%%%%%%%%%%%%%%%%%%%%88=       #%  #%    88444444444478=   #%%%",
"%%%%%%%%%%%%%%%%%%%%%%88.       #%  +%    88444444444478=   #%%%",
"%%%%%%%%%%%%%%%%%%%%%%    #%  #%%%  #%%%    8888888888=   #%%%%%",
"%%%%%%%%%%%%%%%%%%,,*%    X#  O#$%  #%##    8888888888=   X#$%%%",
"%%%%%%%%%%%%%%%%%%88,%      #%  #%%%%%                      #%%%",
"%%%%%%%%%%%%%%%%%%55:%      #%  #%%%%%                      #%%%",
"%%%%%%%%%%%%%%%%%%  #%%%%%%%%%%%%%%%%%%%%%%%          #%%%%%%%%%",
"%%%%%%%%%%%%%%%%%%  #%##$%%%%%%%%%%%%%%%%%##          X#$%%%%%%%",
"%%%%%%%%%%%%%%%%%%%%%%  #%%%%%%%%%%%%%%%%%    #%  #%    #%%%%%%%",
"%%%%%%%%%%%%%%%%%%%%%%  #%%%%%%%%%%%%%%%%%    O#  O#    #%%%%%%%",
"%%%%%%%%%%%%%%%%%%%%%%%%%%%%%%%%%%%%%%%%%%%%%%  #%  #%%%%%%%%%%%",
"%%%%%%%%%%%%%%%%%%%%%%%%%%%%%%%%%%%%%%%%%%%%%%  #%  #%%%%%%%%%%%",
"%%%%%%%%%%%%%%%%%%%%%%%%%%%%%%%%%%%%%%%%%%%%%%%%%%%%%%%%%%%%%%%%",
"%%%%%%%%%%%%%%%%%%%%%%%%%%%%%%%%%%%%%%%%%%%%%%%%%%%%%%%%%%%%%%%%",
"%%%%%%%%%%%%%%%%%%%%%%%%%%%%%%%%%%%%%%%%%%%%%%%%%%%%%%%%%%%%%%%%",
"%%%%%%%%%%%%%%%%%%%%%%%%%%%%%%%%%%%%%%%%%%%%%%%%%%%%%%%%%%%%%%%%",
"%%%%%%%%%%%%%%%%%%%%%%%%%%%%%%%%%%%%%%%%%%%%%%%%%%%%%%%%%%%%%%%%",
"%%%%%%%%%%%%%%%%%%%%%%%%%%%%%%%%%%%%%%%%%%%%%%%%%%%%%%%%%%%%%%%%"
};
