/* XPM */
static char *result[] = {
/* columns rows colors chars-per-pixel */
"64 64 173 2 ",
"   c black",
".  c #0F160C",
"X  c #171906",
"o  c #171A06",
"O  c #1B1C03",
"+  c #1E1D00",
"@  c #12160B",
"#  c #000B11",
"$  c #020D10",
"%  c #000E18",
"&  c #000F18",
"*  c #081314",
"=  c #0B1E1C",
"-  c #282D0A",
";  c #312D03",
":  c #352D01",
">  c #312D04",
",  c #2F3005",
"<  c #323202",
"1  c #353300",
"2  c #3F3200",
"3  c #3C3501",
"4  c #3E3400",
"5  c #3E3600",
"6  c #393902",
"7  c #3D3B00",
"8  c #001722",
"9  c #041F2D",
"0  c #001D30",
"q  c #0B2327",
"w  c #08212A",
"e  c #12302E",
"r  c #072333",
"t  c #002035",
"y  c #1D3C37",
"u  c #3D4410",
"i  c #5E4D00",
"p  c #5F5302",
"a  c #595006",
"s  c #5C5800",
"d  c #5E5D03",
"f  c #5A5904",
"g  c #5C5A04",
"h  c #494511",
"j  c #605101",
"k  c #645401",
"l  c #6D5B00",
"z  c #6E5B00",
"x  c #6D5C00",
"c  c #6F5F03",
"v  c #625915",
"b  c #6C6700",
"n  c #67600E",
"m  c #756300",
"M  c #766300",
"N  c #7E6400",
"B  c #736F00",
"V  c #7D6800",
"C  c #7D6900",
"Z  c #7D6C00",
"A  c #7B7600",
"S  c #6F6618",
"D  c #7D6A17",
"F  c #7D6A1C",
"G  c #002E45",
"H  c #073341",
"J  c #003354",
"K  c #073B53",
"L  c #073E5B",
"P  c #003B61",
"I  c #174449",
"U  c #17464E",
"Y  c #1F4A48",
"T  c #194F58",
"R  c #28534D",
"E  c #004263",
"W  c #0D4667",
"Q  c #004668",
"!  c #004B71",
"~  c #004D7F",
"^  c #506E4B",
"/  c #8B8500",
"(  c #9D8000",
")  c #9D8200",
"_  c #9E890F",
"`  c #9A9400",
"'  c #AF9000",
"]  c #BD9700",
"[  c #BD9A00",
"{  c #B9B200",
"}  c #BEA313",
"|  c #BFA716",
" . c #B8A118",
".. c #BEA618",
"X. c #CBAB09",
"o. c #CBAC0D",
"O. c #CDAD0C",
"+. c #D5B106",
"@. c #DAB304",
"#. c #C9AB11",
"$. c #DDBF18",
"%. c #ECBC00",
"&. c #C9C000",
"*. c #D8CF00",
"=. c #F5CA05",
"-. c #FCC900",
";. c #FCCA00",
":. c #FCCB00",
">. c #FBCD00",
",. c #FBCF00",
"<. c #FCCC00",
"1. c #FCCD00",
"2. c #FCCE00",
"3. c #F0C809",
"4. c #E8DE00",
"5. c #FBD000",
"6. c #FBD200",
"7. c #FBD300",
"8. c #FBD500",
"9. c #FAD800",
"0. c #FADB00",
"q. c #F9DC00",
"w. c #F9DF00",
"e. c #F8E200",
"r. c #F9E200",
"t. c #F8E400",
"y. c #F8E600",
"u. c #F7ED00",
"i. c #F8E800",
"p. c #F8EF1D",
"a. c #F9F02C",
"s. c #F9F23A",
"d. c #FBF674",
"f. c #005288",
"g. c #005388",
"h. c #005489",
"j. c #00548A",
"k. c #005D8B",
"l. c #005891",
"z. c #005B92",
"x. c #00609D",
"c. c #146A9A",
"v. c #006AA7",
"b. c #006BAA",
"n. c #006FB1",
"m. c #006EB2",
"M. c #006FB6",
"N. c #0070B4",
"B. c #0074BF",
"V. c #0076C2",
"C. c #077CC5",
"Z. c #3D83A2",
"A. c #48899E",
"S. c #529DB5",
"D. c #1B8DCE",
"F. c #2793CF",
"G. c #3D95C9",
"H. c #3D96CB",
"J. c #39A3D8",
"K. c #6DD2F1",
"L. c #ACAC84",
"P. c #ACAC8E",
"I. c #FCF783",
"U. c #FDF99C",
"Y. c #FDFAA9",
"T. c #FDFBAF",
"R. c #FDFCBA",
"E. c #FEFDCB",
"W. c #FEFDCC",
"Q. c #CDEBEA",
"!. c #D3EDEA",
"~. c #F5F6E7",
"^. c #FFFFE8",
/* pixels */
"V.V.V.V.V.V.V.V.V.V.V.V.V.V.V.V.V.V.V.V.V.V.V.V.V.V.    &             %     V.V.V.V.V.V.V.V.V.V.V.V.V.V.V.V.V.V.V.V.V.V.V.V.V.V.",
"V.V.V.V.V.V.V.V.V.V.V.V.V.V.V.V.V.V.V.V.V.V.V.V.V.V.    &             %     V.V.V.V.V.V.V.V.V.V.V.V.V.V.V.V.V.V.V.V.V.V.V.V.V.V.",
"V.V.V.V.V.V.V.V.V.V.V.V.V.V.V.V.V.V.V.V.V.0 0 t 0 0 } .. ...#.| O.@.+.X.o._ 0 0 t 0 J V.V.V.V.V.V.V.V.V.V.V.V.V.V.V.V.V.V.V.V.V.",
"V.V.V.V.V.V.V.V.V.V.V.V.V.V.V.V.V.V.V.V.V.    &     -.-.$.-.-.-.-.-.-.1.-.]     .   9 V.V.V.V.V.V.V.V.V.V.V.V.V.V.V.V.V.V.V.V.V.",
"V.V.V.V.V.V.V.V.V.V.V.V.V.V.V.V.V.V.M.l.l.2 2 h 2 2 -.-.=.-.-.-.-.-.-.1.-.]     +   - l.l.M.V.V.V.V.V.V.V.V.V.V.V.V.V.V.V.V.V.V.",
"V.V.V.V.V.V.V.V.V.V.V.V.V.V.V.V.V.V.l.    -.-.$.-.-.-.-.0.u.u.u.u.u.u.u.u.u.u.u.u.u.A     l.V.V.V.V.V.V.V.V.V.V.V.V.V.V.V.V.V.V.",
"V.V.V.V.V.V.V.V.V.V.V.V.V.V.V.V.V.V.l.    -.-.3.-.-.-.-.0.u.u.u.u.u.u.u.u.u.u.u.u.u.A     l.V.V.V.V.V.V.V.V.V.V.V.V.V.V.V.V.V.V.",
"V.V.V.V.V.V.V.V.V.V.V.V.V.V.V.V.0   2 -.-.-.-.<.-.-.q.t.i.u.u.u.u.u.u.u.u.u.u.u.u.u.*.{ {     0 V.V.V.V.V.V.V.V.V.V.V.V.V.V.V.V.",
"V.V.V.V.V.V.V.V.V.V.V.V.V.V.V.V.0   2 -.-.-.-.1.-.-.t.u.u.u.u.u.u.u.u.u.u.u.u.u.u.u.u.u.u.    0 V.V.V.V.V.V.V.V.V.V.V.V.V.V.V.V.",
"V.V.V.V.V.V.V.V.V.V.V.V.V.V.P U n ) ' 6.6.5.6.7.6.6.y.u.u.u.u.u.u.u.u.u.u.u.u.u.u.u.u.u.u.7 7 u L P V.V.V.V.V.V.V.V.V.V.V.V.V.V.",
"V.V.V.V.V.V.V.V.V.V.V.V.V.V.    C -.-.u.u.u.u.u.u.u.u.u.u.u.u.u.u.u.u.u.u.u.u.u.u.u.u.u.u.u.u.A     V.V.V.V.V.V.V.V.V.V.V.V.V.V.",
"V.V.V.V.V.V.V.V.V.V.V.V.V.V.    l -.-.u.u.u.u.u.u.u.u.u.u.u.u.u.u.u.u.u.u.u.u.u.u.u.u.u.u.u.u.b     V.V.V.V.V.V.V.V.V.V.V.V.V.V.",
"V.V.V.V.V.V.V.V.V.V.V.V.V.V.    C -.-.u.u.u.u.u.u.u.u.u.u.u.u.u.u.u.u.u.u.u.u.u.u.u.u.u.u.u.u.A     V.V.V.V.V.V.V.V.V.V.V.V.V.V.",
"V.V.V.V.V.V.V.V.V.V.V.V.V.V.    C -.-.u.u.u.u.u.u.u.u.u.u.u.u.u.u.u.u.u.u.u.u.u.u.u.u.u.u.u.u.A     V.V.V.V.V.V.V.V.V.V.V.V.V.V.",
"V.V.V.V.V.V.V.V.V.V.V.V.V.V.& + m 1.1.u.u.u.u.u.u.u.u.u.u.u.u.u.u.u.u.u.u.u.u.u.u.u.u.u.u.u.u.B + & V.V.V.V.V.V.V.V.V.V.V.V.V.V.",
"V.V.D.D.C.V.D.D.C.V.V.V.V.V.    C -.-.u.u.u.u.u.u.u.u.u.u.u.u.u.u.u.u.u.u.u.u.u.u.u.u.u.u.u.u.A     V.V.V.V.V.V.V.V.V.V.V.V.V.V.",
"V.V.K.K.D.V.K.K.D.V.V.V.V.V.% + M 1.1.u.u.u.u.u.u.u.u.u.u.u.u.u.u.u.u.u.u.u.u.u.u.u.u.u.u.u.u.B + % V.V.V.V.V.V.V.V.V.V.V.V.V.V.",
"V.V.K.K.F.V.K.K.J.D.C.V.V.V.    C -.-.u.u.u.u.u.u.u.u.u.u.u.u.u.u.u.u.u.u.u.u.u.u.u.u.u.u.u.u.A     V.V.V.V.V.V.V.V.V.V.D.D.C.V.",
"V.V.~.~.H.V.~.~.K.K.D.V.V.V.    C -.-.u.u.u.u.u.u.u.u.u.u.u.u.u.u.u.u.u.u.u.u.u.u.u.u.u.u.u.u.A     V.V.V.V.V.V.V.V.V.V.K.K.D.V.",
"V.V.~.~.G.V.~.~.K.K.J.D.V.V.    z -.-.u.u.u.u.u.u.u.u.u.u.u.u.u.u.u.u.u.u.u.u.u.u.u.u.u.u.u.u.b     V.V.V.V.V.V.V.V.D.D.K.K.F.V.",
"V.V.k.k.N.V.k.k.~.!.K.K.K.K.    C -.-.u.u.u.u.u.u.u.u.u.u.u.u.u.u.u.u.u.u.u.u.u.u.u.u.u.u.u.u.A     V.V.V.V.V.V.V.V.K.K.!.~.H.V.",
"V.V.k.k.n.V.k.k.~.!.K.K.K.K.* O M 1.1.0.0.9.0.w.u.u.u.u.u.u.u.u.u.u.u.u.u.u.u.u.u.u.u.u.u.u.u.B X % V.V.V.V.V.V.V.V.K.K.!.~.H.V.",
"V.V.k.k.N.V.k.k.k.Z.~.Q.K.K.    S -.-.-.-.-.-.6.u.u.u.u.u.u.u.u.u.u.u.u.u.u.u.u.u.u.u.u.u.u.u.A     V.V.V.V.V.V.V.V.~.~.Z.k.N.V.",
"V.V.k.k.N.V.k.k.k.Z.~.!.K.K.    v -.-.-.-.-.-.5.u.u.u.u.u.u.u.u.u.u.u.u.u.u.u.u.u.u.u.u.u.u.u.b     V.V.V.V.V.V.V.V.~.~.Z.k.N.V.",
"V.V.V.V.V.V.k.k.k.k.k.Z.~.~.    F -.-.-.-.-.-.6.u.u.u.u.u.u.u.u.u.u.u.u.u.u.u.u.u.u.u.u.u.u.u.A     V.V.V.V.V.V.V.V.k.k.b.N.B.V.",
"V.V.V.V.V.V.k.k.k.k.k.Z.~.~.    D -.-.-.-.-.-.6.u.u.u.u.u.u.u.u.u.u.u.u.u.u.u.u.u.u.u.u.u.u.u.A     V.V.V.V.V.V.V.V.k.k.N.V.V.V.",
"V.V.k.k.N.V.V.V.V.m.k.k.k.k.# $ c 1.<.1.1.8.0.w.u.u.u.u.u.u.u.u.u.u.u.u.u.a.T.T.Y.T.I.u.u.u.u.B . & V.V.V.V.V.V.V.V.N.N.B.V.V.V.",
"V.V.k.k.N.V.V.V.V.N.k.k.k.k.    C -.-.-.-.t.u.u.u.u.u.u.u.u.u.u.u.u.u.u.u.s.^.^.W.^.T.u.u.u.u.A     V.V.V.V.V.V.V.V.V.V.V.V.V.V.",
"V.V.N.N.B.V.V.V.k.k.k.Q G H ; 5 ) 1.<.1.1.r.u.u.u.u.u.u.u.u.u.u.u.u.u.u.u.a.T.T.Y.T.U.d.d.p.u.` 7 , Y P l.V.V.V.V.V.V.V.V.V.V.V.",
"V.V.V.V.V.V.V.V.k.k.k.G     ] -.1.-.-.-.-.t.u.u.u.u.u.u.u.u.u.u.u.u.u.u.u.u.u.u.u.u.d.^.^.s.u.u.u.{     W D.C.V.V.V.V.V.V.V.V.V.",
"V.V.V.V.V.V.V.V.N.n.m.K     ] -.<.-.-.-.-.e.u.u.u.u.u.u.u.u.u.u.u.u.u.u.u.u.u.u.u.u.d.^.^.s.u.u.u.{     ^ K.D.V.V.V.V.V.V.V.V.V.",
"V.V.V.V.V.V.V.V.V.0   > ] ] %.-.1.-.-.-.-.t.u.u.u.u.u.u.u.u.u.u.u.u.u.u.u.u.u.u.u.u.p.s.s.^.^.T.u.4.{ { 1   r V.V.V.V.V.V.V.V.V.",
"V.V.V.V.V.V.V.V.V.9   5 -.-.-.-.1.-.-.-.-.t.u.u.u.u.u.u.u.u.u.u.u.u.u.u.u.u.u.u.u.u.u.u.u.^.^.T.u.u.u.u.7   q V.V.V.V.V.V.V.V.V.",
"V.V.V.V.V.V.x.0 w a C ) 1.1.:.1.2.1.:.1.1.r.u.u.u.u.u.u.u.u.u.u.u.u.u.u.u.u.u.u.u.u.u.u.u.E.E.Y.u.u.u.u.` A f q 0 x.V.V.V.V.V.V.",
"V.V.V.V.V.V.l.    C -.1.-.-.-.-.1.-.-.-.-.t.u.u.u.u.u.u.u.u.u.u.u.u.u.u.u.u.u.u.u.u.u.u.u.^.^.T.u.u.u.u.u.u.A     l.V.V.V.V.V.V.",
"V.V.V.V.V.V.f.    l -.<.-.-.-.-.:.-.-.-.-.t.u.u.u.u.u.u.u.u.u.u.u.u.u.u.u.u.u.u.u.u.u.u.u.^.^.R.u.u.u.u.u.u.s     ~ V.V.V.V.V.V.",
"V.V.V.V.V.V.l.    C -.1.-.-.-.-.:.-.-.u.u.u.u.u.u.u.u.u.u.u.u.u.u.u.u.u.u.u.u.u.u.u.u.u.u.^.^.T.u.u.u.u.u.u.A     l.V.V.V.V.V.V.",
"V.V.V.V.V.V.l.    C -.1.-.-.-.-.:.-.-.u.u.u.u.u.u.u.u.u.u.u.u.u.u.u.u.u.u.u.u.u.u.u.u.u.u.^.^.T.u.u.u.u.u.u.A     l.V.V.V.V.V.V.",
"V.V.V.V.V.V.g.    z -.<.-.-.-.-.;.-.-.u.u.u.u.u.u.u.u.u.u.u.u.u.u.u.u.u.u.u.u.u.u.u.u.u.u.s.s.a.u.u.u.u.u.u.b     g.V.V.V.V.V.V.",
"V.V.V.V.V.V.l.    C -.1.-.-.-.-.:.-.-.u.u.u.u.u.u.u.u.u.u.u.u.u.u.u.u.u.u.u.u.u.u.u.u.u.u.u.u.u.u.u.u.u.u.u.A     l.D.D.C.V.V.V.",
"V.V.V.V.V.V.j.& + m 1.>.1.1.<.1.:.1.1.u.u.u.u.u.u.u.u.u.u.u.u.u.u.u.u.u.u.u.u.u.u.u.u.u.u.u.u.u.u.u.u.u.u.u.B + o j.K.K.D.V.V.V.",
"V.V.V.V.V.V.l.    C -.1.-.-.-.-.:.-.-.u.u.u.u.u.u.u.u.u.u.u.u.u.u.u.u.u.u.u.u.u.u.u.u.u.u.u.u.u.u.u.u.u.u.u.A     c.K.K.F.V.V.V.",
"V.V.V.V.V.V.~     i -.:.-.-.-.-.:.-.-.u.u.u.u.u.u.u.u.u.u.u.u.u.u.u.u.u.u.u.u.u.u.u.u.u.u.u.u.u.u.u.u.u.u.u.s     A.!.~.H.V.V.V.",
"V.V.V.V.V.V.l.    C -.1.-.-.-.-.:.-.-.u.u.u.u.u.u.u.u.u.u.u.u.u.u.u.u.u.u.u.u.u.u.u.u.u.u.u.u.u.u.u.u.u.u.u.A     S.!.~.G.V.V.V.",
"V.V.V.V.V.V.f.    x -.1.-.-.-.-.:.-.-.u.u.u.u.u.u.u.u.u.u.u.u.u.u.u.u.u.u.u.u.u.u.u.u.u.u.u.u.u.u.u.u.u.u.u.b     L.Z.k.N.V.V.V.",
"V.V.V.V.V.V.g.    z -.<.-.-.<.1.<.1.1.u.u.u.u.u.u.u.u.u.u.u.u.u.u.u.u.u.u.u.u.u.u.u.u.u.u.u.u.u.u.u.u.u.u.u.b     P.Z.k.n.V.V.V.",
"V.V.V.V.V.V.l.    C -.1.-.-.-.-.:.-.-.u.u.u.u.u.u.u.u.u.u.u.u.u.u.u.u.u.u.u.u.u.u.u.u.u.u.u.u.u.u.u.u.u.u.u.A     Q k.k.N.V.V.V.",
"V.V.V.V.V.V.h.% + M 1.>.1.1.;.:.:.:.:.6.6.y.u.u.u.u.u.u.u.u.u.u.u.u.u.u.u.u.u.u.u.u.u.u.u.u.u.u.u.u.u.u.u.u.B + @ E k.k.N.V.V.V.",
"V.V.V.V.V.V.l.    C -.1.-.-.-.-.1.-.-.-.-.t.u.u.u.u.u.u.u.u.u.u.u.u.u.u.u.u.u.u.u.u.u.u.u.u.u.u.u.u.u.u.u.u.A     Q N.V.V.V.V.V.",
"V.V.V.V.V.V.x.0 q j N ( -.-.-.-.<.-.-.-.-.e.u.u.u.u.u.u.&.{ { u.u.{ { &.u.u.u.u.u.u.u.u.u.s.s.a.u.u.u.u.` A g = 8 ! v.N.B.V.V.V.",
"V.V.V.V.V.V.V.V.V.q   5 -.-.-.-.1.-.-.-.-.t.u.u.u.u.u.u.7     u.u.    7 u.u.u.u.u.u.u.u.u.^.^.T.u.u.u.u.7   = k.k.k.k.k.N.V.V.V.",
"V.V.V.V.V.V.V.V.V.0   3 -.-.-.-.1.-.-.-.-.t.u.u.u.u.u.u.7     u.u.    7 u.u.u.u.u.u.u.u.u.^.^.T.u.u.u.u.6   8 k.k.k.k.k.N.V.V.V.",
"V.V.V.V.V.V.V.V.V.x.l.y     ] -.<.-.-.-.-.-.-.6.u.u.u.u.&.{ /     / { &.u.u.u.u.u.u.u.u.u.s.s.a.u.{     e Q z.V.V.V.V.V.V.V.V.V.",
"V.V.V.V.V.V.V.V.V.V.V.P     ] -.1.-.-.-.-.-.-.6.u.u.u.u.u.u.{     { u.u.u.u.u.u.u.u.u.u.u.u.u.u.u.{     G k.v.N.B.V.V.V.V.V.V.V.",
"V.V.V.V.V.V.V.V.V.V.V.l.P U : 4 ( :.:.:.:.<.1.,.6.6.u.u.u.u.&.7 7 &.u.u.u.u.u.u.u.u.u.u.u.u.u.` 7 < I P Q k.k.k.N.V.V.V.V.V.V.V.",
"V.V.V.V.V.V.V.V.V.V.V.V.V.V.    C -.-.-.-.-.-.1.-.-.u.u.u.u.u.u.u.u.u.u.u.u.u.u.u.u.u.u.u.u.u.A     b.N.k.k.k.k.N.V.V.V.V.V.V.V.",
"V.V.V.V.V.V.V.V.V.V.V.V.V.V.    k ] ] -.-.-.-.<.-.-.t.t.i.u.u.u.u.u.u.u.u.u.u.u.u.u.u.u.u.{ { d     k.k.N.V.V.V.V.V.V.V.V.V.V.V.",
"V.V.V.V.V.V.V.V.V.V.V.V.V.V.V.V.q     -.-.-.-.1.-.-.-.-.0.u.u.u.u.u.u.u.u.u.u.u.u.u.u.u.u.    = N.V.k.k.N.V.V.V.V.V.V.V.V.V.V.V.",
"V.V.V.V.V.V.V.V.V.V.V.V.V.V.V.V.0     -.-.-.-.1.-.-.-.-.0.u.u.u.u.u.u.u.u.u.u.u.u.u.u.u.u.    0 V.V.V.V.V.V.V.V.V.V.V.V.V.V.V.V.",
"V.V.V.V.V.V.V.V.V.V.V.V.V.V.V.V.x.l.R     [ 1.>.1.<.1.1.5.6.5.6.6.5.6.7.6.5.6.6.7.6.Z     T l.x.V.V.V.V.V.V.V.V.V.V.V.V.V.V.V.V.",
"V.V.V.V.V.V.V.V.V.V.V.V.V.V.V.V.V.V.l.    ] -.1.-.-.-.-.1.-.-.-.-.-.-.1.-.-.-.-.1.-.C     l.V.V.V.V.V.V.V.V.V.V.V.V.V.V.V.V.V.V.",
"V.V.V.V.V.V.V.V.V.V.V.V.V.V.V.V.V.V.x.0 q k C M C V x C m C z C C z C M C l C C m C p q 0 x.V.V.V.V.V.V.V.V.V.V.V.V.V.V.V.V.V.V.",
"V.V.V.V.V.V.V.V.V.V.V.V.V.V.V.V.V.V.V.V.V.    +         +             +         +   q V.V.V.V.V.V.V.V.V.V.V.V.V.V.V.V.V.V.V.V.V.",
"V.V.V.V.V.V.V.V.V.V.V.V.V.V.V.V.V.V.V.V.V.    %         &             %         &   0 V.V.V.V.V.V.V.V.V.V.V.V.V.V.V.V.V.V.V.V.V."
};
