/* XPM */
static char *result[] = {
/* columns rows colors chars-per-pixel */
"66 64 228 2 ",
"   c black",
".  c #170A04",
"X  c #1F0900",
"o  c #1F0E00",
"O  c #1F0F07",
"+  c #110D0D",
"@  c #0B140F",
"#  c #0F160C",
"$  c #171906",
"%  c #1F1800",
"&  c #1C1C01",
"*  c #1E1D00",
"=  c #191A04",
"-  c #131809",
";  c #000B11",
":  c #080C10",
">  c #000E18",
",  c #000F18",
"<  c #071212",
"1  c #041015",
"2  c #091310",
"3  c #06141B",
"4  c #0D1A1E",
"5  c #15161A",
"6  c #18191E",
"7  c #271007",
"8  c #341000",
"9  c #301105",
"0  c #3F1300",
"q  c #1B2615",
"w  c #322F00",
"e  c #323000",
"r  c #3F3200",
"t  c #3D3900",
"y  c #3D3B00",
"u  c #323509",
"i  c #3E2217",
"p  c #001722",
"a  c #041920",
"s  c #001827",
"d  c #001C2C",
"f  c #041F2D",
"g  c #001D30",
"h  c #0B2327",
"j  c #0F2524",
"k  c #08212A",
"l  c #132621",
"z  c #002034",
"x  c #002035",
"c  c #0F2532",
"v  c #002239",
"b  c #00283C",
"n  c #1B343C",
"m  c #343B3A",
"M  c #451D0D",
"N  c #6F2100",
"B  c #7F2600",
"V  c #24402F",
"C  c #2A422A",
"Z  c #3B4F2B",
"A  c #434000",
"S  c #40400F",
"D  c #4A480D",
"F  c #4B480D",
"G  c #4E540E",
"H  c #585400",
"J  c #454511",
"K  c #404D1F",
"L  c #775F00",
"P  c #6C6700",
"I  c #736F00",
"U  c #7D6900",
"Y  c #7B7600",
"T  c #7E730F",
"R  c #4B5822",
"E  c #43433F",
"W  c #654538",
"Q  c #5A6223",
"!  c #002B41",
"~  c #002E45",
"^  c #00314E",
"/  c #1E3941",
"(  c #003452",
")  c #003553",
"_  c #003354",
"`  c #003455",
"'  c #003A57",
"]  c #00375B",
"[  c #00385A",
"{  c #073E5B",
"}  c #08395B",
"|  c #003B61",
" . c #003D66",
".. c #0F4255",
"X. c #194F58",
"o. c #004668",
"O. c #004670",
"+. c #004A79",
"@. c #7D5545",
"#. c #436B62",
"$. c #697675",
"%. c #7A7B73",
"&. c #B33500",
"*. c #B53600",
"=. c #BF3900",
"-. c #BE4000",
";. c #BE5700",
":. c #806E02",
">. c #877707",
",. c #927B05",
"<. c #957E06",
"1. c #997E00",
"2. c #987E01",
"3. c #807B10",
"4. c #BE5C34",
"5. c #EF4700",
"6. c #FF4C00",
"7. c #FF540C",
"8. c #FE5C17",
"9. c #FD6B2E",
"0. c #FD7B46",
"q. c #8B8500",
"w. c #9B8101",
"e. c #9D8200",
"r. c #9C8700",
"t. c #969000",
"y. c #9A9400",
"u. c #A48600",
"i. c #A68900",
"p. c #AB930A",
"a. c #B09504",
"s. c #B89700",
"d. c #B59802",
"f. c #AFA800",
"g. c #BCA000",
"h. c #B0A800",
"j. c #B9B200",
"k. c #C4A300",
"l. c #C4A500",
"z. c #D7B100",
"x. c #DBB200",
"c. c #DCB400",
"v. c #DFB500",
"b. c #DFB600",
"n. c #E5BA00",
"m. c #E8BE00",
"M. c #E8BF00",
"N. c #C9C000",
"B. c #D8CF00",
"V. c #EECB00",
"C. c #F3C500",
"Z. c #F7C800",
"A. c #FCC900",
"S. c #FBCD00",
"D. c #FBCF00",
"F. c #FCCC00",
"G. c #FCCD00",
"H. c #E8DE00",
"J. c #FBD000",
"K. c #FBD200",
"L. c #FBD300",
"P. c #FAD600",
"I. c #FAD800",
"U. c #FAD900",
"Y. c #FADA00",
"T. c #FADB00",
"R. c #F8E200",
"E. c #F9E200",
"W. c #F8E400",
"Q. c #F8E600",
"!. c #F7EB00",
"~. c #F7ED00",
"^. c #F8EF20",
"/. c #F9F030",
"(. c #B3AF40",
"). c #FC8B5D",
"_. c #CB8D76",
"`. c #EEE640",
"'. c #F9F240",
"]. c #F9F24A",
"[. c #FAF24A",
"{. c #F9F34C",
"}. c #FAF460",
"|. c #005487",
" X c #005388",
".X c #00548A",
"XX c #00578F",
"oX c #005D8B",
"OX c #0B5E88",
"+X c #005891",
"@X c #00609D",
"#X c #006AA7",
"$X c #0067AA",
"%X c #006BAA",
"&X c #006FB1",
"*X c #006EB2",
"=X c #0070B4",
"-X c #0074BF",
";X c #0076C2",
":X c #077CC5",
">X c #3D83A2",
",X c #1B8DCE",
"<X c #2793CF",
"1X c #3D95C9",
"2X c #3D96CB",
"3X c #33A1D8",
"4X c #39A3D8",
"5X c #6DD2F1",
"6X c #959580",
"7X c #9E9D80",
"8X c #BB978B",
"9X c #B8B8AD",
"0X c #FAAA8B",
"qX c #FBF680",
"wX c #FBF788",
"eX c #FCF790",
"rX c #FCF898",
"tX c #FCF89C",
"yX c #F9C9B9",
"uX c #FDFAB5",
"iX c #FDFBC0",
"pX c #FEFCD2",
"aX c #CDEBEA",
"sX c #D3EDEA",
"dX c #F5F6E7",
"fX c #FEFDE0",
"gX c white",
"hX c None",
/* pixels */
"hX;X;X;X;X;X;X;X;X;X;X;X;X;X;X;X;X;X;X;X;X;X;X;X;X;X;X;X;X;X;X+X        #         #   g ;X;X;X;X;X;X;X;X;X;X;X;X;X;X;X;X;X;X;X;X;XhX",
"hX;X;X;X;X;X;X;X;X;X;X;X;X;X;X;X;X;X;X;X;X;X;X;X;X;X;X;X;X;X;X+X        *         *   j ;X;X;X;X;X;X;X;X;X;X;X;X;X;X;X;X;X;X;X;X;XhX",
"hX;X;X;X;X;X;X;X;X;X;X;X;X;X;X;X;X;X;X;X;X;X;X;X;X;X;Xg g x g D c.c.v.c.z.c.b.c.c.z.c.:.l g s g +.;X;X;X;X;X;X;X;X;X;X;X;X;X;X;X;XhX",
"hX;X;X;X;X;X;X;X;X;X;X;X;X;X;X;X;X;X;X;X;X;X;X;X;X;X;X    2   r A.A.A.A.G.A.A.A.A.G.A.U         | ;X;X;X;X;X;X;X;X;X;X;X;X;X;X;X;XhX",
"hX;X;X;X;X;X;X;X;X;X;X;X;X;X;X;X;X;X;X;X;X;X;X;X$X| ..,.e.i.e.s.G.G.D.K.L.K.J.K.K.L.K.r.y y w y V | | ;X;X;X;X;X;X;X;X;X;X;X;X;X;XhX",
"hX;X;X;X;X;X;X;X;X;X;X;X;X;X;X;X;X;X;X;X;X;X;X;X+X    A.A.G.A.A.A.A.W.~.~.~.~.~.~.~.~.~.~.~.~.~.y     ;X;X;X;X;X;X;X;X;X;X;X;X;X;XhX",
"hX;X;X;X;X;X;X;X;X;X;X;X;X;X;X;X;X;X;X;X;X;X;X;XOX    A.A.G.A.A.A.A.W.~.~.~.~.~.~.~.~.~.~.~.~.~.y     ;X;X;X;X;X;X;X;X;X;X;X;X;X;XhX",
"hX;X;X;X;X;X;X;X;X;X;X;X;X;X;X;X;X;X;X;X;X;Xg   r A.A.A.A.F.A.A.W.W.!.~.~.~.'.gXgXfXgXfXgXgX'.~.N.j.q.    +X;X;X;X;X;X;X;X;X;X;X;XhX",
"hX;X;X;X;X;X;X;X;X;X;X;X;X;X;X;X;X;X;X;X;X;Xg   r A.A.A.A.G.A.A.~.~.~.~.~.~.'.gXgXfXgXfXgXgX'.~.~.~.j.    +X;X;X;X;X;X;X;X;X;X;X;XhX",
"hX;X;X;X;X;X;X;X;X;X;X;X;X;X;X;X;X;X;X;Xg k p.c.n.G.G.F.G.J.T.T.~.~.~.~.~.~.^.qXqXwXqXuXfXfXpXiX}.~.f.* 1 .X;X;X;X;X;X;X;X;X;X;X;XhX",
"hX;X;X;X;X;X;X;X;X;X;X;X;X;X;X;X;X;X;X;X    c.A.A.A.A.A.A.K.~.~.~.~.~.~.~.~.~.~.~.~.~.qXgXgXgXgXqX~.j.    +X;X;X;X;X;X;X;X;X;X;X;XhX",
"hX;X;X;X;X;X;X;X;X;X;X;X;X;X;X;X;X;X;X;X    b.A.A.A.A.A.A.K.~.~.~.~.~.~.~.~.~.~.~.~.~.qXgXgXgXgXqX~.j.    X.+X@X;X;X;X;X;X;X;X;X;XhX",
"hX;X;X;X;X;X;X;X;X;X;X;X;X;X;X;X;X;X;X;X    c.A.A.A.A.W.~.~.~.~.~.~.~.~.~.~.~.~.~.~.~.~.~.~.~.~.~.~.~.~.~.    g ;X;X;X;X;X;X;X;X;XhX",
"hX;X;X;X;X;X;X;X;X;X;X;X;X;X;X;X;X;X;X;X    c.A.A.A.A.W.~.~.~.~.~.~.~.~.~.~.~.~.~.~.~.~.~.~.~.~.~.~.~.~.~.    g ;X;X;X;X;X;X;X;X;XhX",
"hX;X;X;X;X;X;X;X;X;X;X;X;X;X;X;X;X;X;X;X    v.A.A.A.A.R.~.~.~.~.~.~.~.~.~.~.~.~.~.~.~.~.~.~.~.~.~.~.~.~.~.    s ;X;X;X;X;X;X;X;X;XhX",
"hX;X;X,X,X:X;X,X,X:X;X;X;X;X;X;X;X;X;X;X    c.A.A.A.A.W.~.~.~.~.~.~.~.~.~.~.~.~.~.~.~.~.~.~.~.~.~.~.~.~.~.    g ;X;X;X;X;X;X;X;X;XhX",
"hX;X;X5X5X,X;X5X5X,X;X;X;X;X;X;X;X;X;X;X< * z.G.F.G.G.E.~.~.~.~.~.~.~.~.~.~.~.~.~.y.Y (.qXqX^.~.~.~.~.~.~.& > z ;X;X;X;X;X;X;X;X;XhX",
"hX;X;X5X5X<X;X5X5X4X,X:X;X;X;X;X;X;X;X;X    c.A.A.A.A.W.~.~.~.~.~.~.~.~.~.~.~.~.~.y   7XgXgX'.~.~.~.~.~.~.    g ;X;X;X;X;X,X,X:X;XhX",
"hX;X;XdXdX2X;XdXdX5X5X,X;X;X;X;X;X;X;X;X    b.A.A.A.A.R.~.~.~.~.~.~.~.~.~.~.~.~.~.w   6XgXgX`.~.~.~.H.j.j.    5 +X+X;X;X;X5X5X,X;XhX",
"hX;X;XdXdX1X;XdXdX5X5X4X,X;X;X;X;X;X;X;X    c.A.A.A.A.W.~.~.~.~.~.~.~.~.~.~.~.~.~.y   *     j.~.~.~.j.    ;.6.B     ;X,X,X5X5X<X;XhX",
"hX;X;XoXoX=X;XoXoXdXsX5X5X5X5X;X,X5X5X;X    c.A.A.A.A.W.~.~.~.~.~.~.~.~.~.~.~.~.~.y   *     j.~.~.~.j.    =.6.B     ;X5X5XsXdX2X;XhX",
"hX;X;XoXoX&X;XoXoXdXsX5X5X5X5X,X3X5X5X,X3 * z.G.F.G.G.E.~.~.~.~.~.~.~.~.~.~.~.~.~.y.Y I Y Y B.~.~.~.f.* % *.6.4.@.W 6 n / m E c g hX",
"hX;X;XoXoX=X;XoXoXoX>XdXaX5X5X5X5X5X5X5X    c.A.A.A.A.W.~.~.~.~.~.~.~.~.~.~.~.~.~.~.~.~.~.~.~.~.~.~.j.    =.6.).yX8X    O   .     hX",
"hX;X;XoXoX=X;XoXoXoX>XdXsX5X5X5X5X5X5X5X4 * z.G.F.G.G.E.~.~.~.~.~.~.~.~.~.~.~.~.~.~.~.~.~.~.~.~.~.~.h.* o *.6.0.0X_.i i M 0 8 : > hX",
"hX;X;X;X;X;X;XoXoXoXoXoX>XdXdXdXdXdXdXdX    c.A.A.A.A.W.~.~.~.~.~.~.~.~.~.~.~.~.~.~.~.~.~.~.~.~.~.~.j.    =.6.6.6.9.yXyX).6.B     hX",
"hX;X;X;X;X;X;XoXoXoXoXoX>XdXdXdXdXdXdXdX    c.A.A.A.A.W.~.~.~.~.~.~.~.~.~.~.~.~.~.~.~.~.~.~.~.~.~.~.j.    =.6.6.6.9.yXyX).6.B     hX",
"hX;X;XoXoX=X;X;X;X;X*XoXoXoXoXoXoXoXoXoXo.o.S r L A.A.A.A.K.~.~.~.~.~.~.~.~.~.~.~.~.~.~.~.~.~.~.y     =.=.5.6.6.6.7.9.9.8.6.N     hX",
"hX;X;XoXoX=X;X;X;X;X=XoXoXoXoXoXoXoXoXoXoXoXp   r A.A.A.A.K.~.~.~.~.~.~.~.~.~.~.~.~.~.~.~.~.~.~.y     6.6.6.6.6.6.6.6.6.6.6.B     hX",
"hXg g O.=X-X;X;X;XoXoXoXoXoXoXoXoXoXoXoXoXoX' ~ K e.e.Z.G.D.K.K.~.~.~.~.~.~.~.~.~.~.~.~.~.~.~.~.A * X 6.6.6.6.6.6.6.6.6.N 0 7 } | hX",
"hX    | ;X;X;X;X;XoXoXoXoXoXoXoXoXoXoXoXoXoXoXoXo.    A.A.G.A.A.~.~.~.~.~.~.~.~.~.~.~.~.~.~.~.~.y     6.6.6.6.6.6.6.6.6.0     ;X;XhX",
"hX, , v | +.;X;X;X=X&X*X*X=X#XoXoX|.) ~ b [ ( [ Z w.e.x.c.M.G.F.T.T.I.T.U.T.T.~.~.~.~.~.~.~.~.~.t     -.=.&.=.*.=.&.=.=.9     ;X;XhX",
"hX    >   g ;X;X;X;X;X;X;X;X=XoXoX|         @   r A.A.r   e.A.A.A.A.A.A.G.A.A.~.~.~.~.~.~.~.~.~.K.A.A.        +         } ;X;X;X;XhX",
"hX    $   h ;X;X;X;X;X;X=XoXoX=X%X~         *   r A.A.r   e.A.A.A.A.A.A.G.A.A.~.~.~.~.~.~.~.~.~.K.A.A.        ,         | ;X;X;X;XhX",
"hX    H j.t.    +X;X;X;X|.    <   1.A.A.A.A.C.A.A.A.A.A.A.Z.A.A.W.W.R.W.E.W.W.~.~.~.~.~.~.~.A.A.F.A.A.     .+X.X+X X+X+X$X;X;X;X;XhX",
"hX    Y ~.j.    +X;X;X;XXX    *   e.A.A.A.A.G.A.A.A.A.A.A.G.A.A.~.~.~.~.~.~.~.~.~.~.~.~.~.~.A.A.G.A.A.    +X;X;X;X;X;X;X;X;X;X;X;XhX",
"hX, * I ~.B.Y Y q g x f J c.c.z.c.m.G.G.P.T.U.T.I.T.T.U.T.Y.T.T.~.~.~.~.~.~.~.~.~.~.~.~.~.~.K.K.D.G.Z.e.e.R | +.;X;X;X;X;X;X;X;X;XhX",
"hX    Y ~.~.~.~.    *   r A.A.G.A.G.A.A.W.~.~.~.~.~.~.~.~.~.~.~.~.~.~.~.~.~.~.~.~.~.~.~.~.~.~.~.K.A.A.A.A.r   f ;X;X;X;X;X;X;X;X;XhX",
"hX    P ~.~.~.~.    *   r A.A.G.A.G.A.A.W.~.~.~.~.~.~.~.~.~.~.~.~.~.'.'.[.'.{.'.'.].'./.~.~.~.~.K.A.A.A.A.L r F +X+X;X;X;X;X;X;X;XhX",
"hX    Y ~.~.~.~.~.~.~.~.~.~.~.~.~.~.~.~.~.~.~.~.~.~.~.~.~.~.~.~.~.~.gXgXfXgXgXgXgXfXgXiX~.~.~.~.~.~.W.A.A.A.A.c.    ;X;X;X;X;X;X;XhX",
"hX    Y ~.~.~.~.~.~.~.~.~.~.~.~.~.~.~.~.~.~.~.~.~.~.~.~.~.~.~.~.~.~.gXgXfXgXgXgXgXfXgXiX~.~.~.~.~.~.W.A.A.A.A.c.    ;X,X,X:X;X;X;XhX",
"hX    P ~.~.~.~.~.~.~.~.~.~.~.~.~.~.~.~.~.~.~.~.~.~.~.~.~.~.~.~.~.~.qXqXwXqXeXqXqXwXqXtXiXiX/.~.~.~.E.G.G.F.G.z.= > ;X5X5X,X;X;X;XhX",
"hX    Y ~.~.~.~.~.~.~.~.~.~.~.~.~.~.~.~.~.~.~.~.~.~.~.~.~.~.~.~.~.~.~.~.~.~.~.~.~.~.~.qXgXgX'.~.~.~.W.A.A.A.A.c.    ,X5X5X<X;X;X;XhX",
"hXg h G Y y.~.~.~.~.~.~.~.~.~.~.~.~.~.~.~.~.~.~.~.~.~.~.~.~.~.~.~.~.~.~.~.~.~.~.~.~.~.}.iXiXrXqX'.~.Q.K.K.G.G.m.e.2.#.$.9X2X;X;X;XhX",
"hX;X;Xf   y ~.~.~.~.~.~.~.~.~.~.~.~.~.~.~.~.~.~.~.~.~.~.~.~.~.~.~.~.~.~.~.~.~.~.~.~.~.~.~.~.gXgXqX~.~.~.~.A.A.G.A.A.    %.1X;X;X;XhX",
"hX;X;Xs   e ~.~.~.~.~.~.~.~.~.~.~.~.~.~.~.~.~.~.~.~.~.~.~.~.~.~.~.~.~.~.~.~.~.~.~.~.~.~.~.~.gXgXqX~.~.~.~.A.A.G.A.A.    ~ =X;X;X;XhX",
"hX;X;Xg   y ~.~.~.~.~.~.~.~.~.~.~.~.~.~.~.~.~.~.~.~.~.~.~.~.~.~.~.~.~.~.~.~.~.~.~.~.~.~.~.~.gXgXeX~.~.~.~.A.A.F.A.A.    b &X;X;X;XhX",
"hX;X;Xg   u ~.~.~.~.~.~.~.~.~.~.~.~.~.~.~.~.~.~.~.~.~.~.~.~.~.~.~.~.~.~.~.~.~.~.~.~.~.~.~.~.gXgXqX~.~.~.~.A.A.G.A.A.    ~ =X;X;X;XhX",
"hX;X;X+.| C y y N.~.~.~.~.~.~.~.~.~.~.~.~.~.~.~.~.~.~.~.~.~.~.~.~.~.~.~.~.~.~.~.~.~.~.~.~.~.qXqX'.~.~.~.~.G.G.S.G.C.* ; ! =X;X;X;XhX",
"hX;X;X;X;X{     j.~.~.~.~.~.~.~.~.~.~.~.~.~.~.~.~.~.~.~.~.~.~.~.~.~.~.~.~.~.~.~.~.~.~.~.~.~.~.~.~.~.~.~.~.A.A.G.A.A.    | ;X;X;X;XhX",
"hX;X;X;X;X] - * h.~.~.~.~.~.~.~.~.~.~.~.~.~.~.~.~.~.~.~.~.~.~.~.~.~.~.~.~.~.~.~.~.~.~.~.~.~.~.~.~.~.!.W.W.A.A.F.A.A.    ^ -X;X;X;XhX",
"hX;X;X;X;X|     j.~.~.~.~.~.~.~.~.~.~.~.~.~.~.~.~.~.~.~.~.~.~.~.~.~.~.~.~.~.~.~.~.~.~.~.~.~.~.~.~.~.W.A.A.A.A.G.A.A.    ~ =X;X;X;XhX",
"hX;X;X;X;X|     j.~.~.~.~.~.~.~.~.~.~.~.~.~.~.~.~.~.~.~.~.~.~.~.~.~.~.~.~.~.~.~.~.~.~.~.~.~.~.~.~.~.W.A.A.A.A.G.A.A.    ~ =X;X;X;XhX",
"hX;X;X;X;X$X+XOX    g.A.A.~.~.~.~.~.~.~.~.~.~.~.~.~.~.~.~.~.~.~.~.~.~.~.~.~.~.~.~.~.~.~.~.~.~.~.~.~.R.A.A.A.A.n.r r OX+X$X;X;X;X;XhX",
"hX;X;X;X;X;X;X;X    g.A.A.~.~.~.~.~.~.~.~.~.~.~.~.~.~.~.~.~.~.~.~.~.~.~.~.~.~.~.~.~.~.~.~.~.~.~.~.~.W.A.A.A.A.c.    ;X;X;X;X;X;X;XhX",
"hX;X;X;X;X;X;X;X| { 3.g.l.T.T.W.~.~.~.~.~.~.~.~.~.~.~.~.~.~.~.~.~.~.~.~.~.~.~.~.~.~.~.~.~.~.T.T.Y.T.P.G.G.n.c.a.p d ;X;X;X;X;X;X;XhX",
"hX;X;X;X;X;X;X;X;X;Xg   r A.A.T.~.~.~.~.~.~.~.~.~.~.~.~.~.~.~.~.~.~.~.~.~.~.~.~.~.~.~.~.~.~.A.A.G.A.A.A.A.r   a oX=X;X;X;X;X;X;X;XhX",
"hX;X;X;X;X;X;X;X;X;Xg   r A.A.V.W.Q.~.~.~.~.~.~.~.~.~.~.~.~.~.~.~.~.~.~.~.~.~.~.~.Q.W.E.W.W.A.A.Z.A.A.A.A.r   g ;X;X;X;X;X;X;X;X;XhX",
"hX;X;X;X;X;X;X;X;X;X;X;XOX    c.A.K.~.~.~.~.~.~.~.~.~.~.~.~.~.~.~.~.~.~.~.~.~.~.~.K.A.G.A.A.A.A.e.        |.;X;X;X;X;X;X;X;X;X;X;XhX",
"hX;X;X;X;X;X;X;X;X;X;X;X+X    c.A.K.~.~.~.~.~.~.~.~.~.~.~.~.~.~.~.~.~.~.~.~.~.~.~.K.A.G.A.A.A.A.e.        +X;X;X;X;X;X;X;X;X;X;X;XhX",
"hX;X;X;X;X;X;X;X;X;X;X;X$X| | T e.k.K.K.J.K.L.K.J.K.K.J.K.L.K.J.K.K.J.K.L.K.J.K.K.D.G.m.e.e.u.<.Q { ` | | $X;X;X;X;X;X;X;X;X;X;X;XhX",
"hX;X;X;X;X;X;X;X;X;X;X;X;X;X;Xg   e.A.A.A.A.G.A.A.A.A.A.A.G.A.A.A.A.A.A.G.A.A.A.A.G.A.c.        | ;X;X;X;X;X;X;X;X;X;X;X;X;X;X;X;XhX",
"hX;X;X;X;X;X;X;X;X;X;X;X;X;X;X_ g >.c.c.b.c.z.c.v.c.c.b.c.z.c.b.c.c.b.c.z.c.v.c.c.z.c.d.l g s g +.;X;X;X;X;X;X;X;X;X;X;X;X;X;X;X;XhX",
"hX;X;X;X;X;X;X;X;X;X;X;X;X;X;X;X;X{         *             *             *         *   k ;X;X;X;X;X;X;X;X;X;X;X;X;X;X;X;X;X;X;X;X;XhX",
"hX;X;X;X;X;X;X;X;X;X;X;X;X;X;X;X;X|         ,             >             >         ,   g ;X;X;X;X;X;X;X;X;X;X;X;X;X;X;X;X;X;X;X;X;XhX"
};
