/* XPM */
static char *result[] = {
/* columns rows colors chars-per-pixel */
"66 65 221 2 ",
"   c black",
".  c #1B0800",
"X  c #1F0900",
"o  c #1F0B03",
"O  c #180B06",
"+  c #100A08",
"@  c #100C0B",
"#  c #100C0C",
"$  c #0F1408",
"%  c #0F160C",
"&  c #171A06",
"*  c #1E1900",
"=  c #1C1C01",
"-  c #1E1D00",
";  c #000B11",
":  c #020F16",
">  c #000E18",
",  c #000F18",
"<  c #071212",
"1  c #041015",
"2  c #091310",
"3  c #081212",
"4  c #0B1E1C",
"5  c #3F1300",
"6  c #351E15",
"7  c #17281E",
"8  c #1B2A1B",
"9  c #1F2C18",
"0  c #322F00",
"q  c #312D02",
"w  c #323000",
"e  c #323202",
"r  c #363604",
"t  c #363706",
"y  c #3F3200",
"u  c #393903",
"i  c #3D3B00",
"p  c #3E2217",
"a  c #283616",
"s  c #041920",
"d  c #001827",
"f  c #0C1B27",
"g  c #001C2C",
"h  c #041F2D",
"j  c #001D30",
"k  c #0B2327",
"l  c #08212A",
"z  c #132621",
"x  c #042231",
"c  c #072333",
"v  c #002035",
"b  c #132C3F",
"n  c #182D38",
"m  c #13393F",
"M  c #193C3A",
"N  c #353520",
"B  c #222E30",
"V  c #4B1803",
"C  c #4B3B00",
"Z  c #642205",
"A  c #772400",
"S  c #7F2600",
"D  c #7F2B00",
"F  c #354E34",
"G  c #434000",
"H  c #484500",
"J  c #4A480D",
"K  c #5F4F00",
"L  c #5E5D04",
"P  c #454511",
"I  c #775F00",
"U  c #6C6700",
"Y  c #706407",
"T  c #736F00",
"R  c #7D6900",
"E  c #757506",
"W  c #7B7600",
"Q  c #7E730F",
"!  c #6C6B15",
"~  c #756E16",
"^  c #40532B",
"/  c #002840",
"(  c #002B41",
")  c #002A44",
"_  c #002E45",
"`  c #00314F",
"'  c #003453",
"]  c #003354",
"[  c #003355",
"{  c #003455",
"}  c #00375A",
"|  c #00375B",
" . c #073E5B",
".. c #003B61",
"X. c #17464E",
"o. c #1F4A48",
"O. c #0F4255",
"+. c #27544D",
"@. c #305A4D",
"#. c #205359",
"$. c gray25",
"%. c #9F2F00",
"&. c #B33500",
"*. c #B53600",
"=. c #BF3900",
"-. c #8E4700",
";. c #9E431D",
":. c #BE4000",
">. c #887707",
",. c #85760A",
"<. c #977E01",
"1. c #DF4200",
"2. c #FF4C00",
"3. c #FE5C17",
"4. c #FD6B2E",
"5. c #9B8101",
"6. c #998003",
"7. c #9D8200",
"8. c #9A9400",
"9. c #A48600",
"0. c #A48700",
"q. c #A58900",
"w. c #A68900",
"e. c #A89402",
"r. c #B99700",
"t. c #BD9700",
"y. c #ADA700",
"u. c #AFA800",
"i. c #BCA000",
"p. c #B0A800",
"a. c #BFA800",
"s. c #B9B200",
"d. c #BDB300",
"f. c #BDB710",
"g. c #C4A300",
"h. c #CCAA00",
"j. c #D2AC00",
"k. c #D5AE01",
"l. c #D6AF00",
"z. c #D7B100",
"x. c #DCB400",
"c. c #DFB500",
"v. c #DFB600",
"b. c #E0B700",
"n. c #E5BA00",
"m. c #E8BE00",
"M. c #E8BF00",
"N. c #C9C000",
"B. c #D8CF00",
"V. c #EBC300",
"C. c #ECC400",
"Z. c #F3C500",
"A. c #F7C800",
"S. c #F8C900",
"D. c #F9C900",
"F. c #FCC900",
"G. c #FBCD00",
"H. c #FBCF00",
"J. c #FCCC00",
"K. c #FCCD00",
"L. c #E8DE00",
"P. c #FBD000",
"I. c #FBD200",
"U. c #FBD300",
"Y. c #FAD800",
"T. c #FAD900",
"R. c #FADB00",
"E. c #F9DC00",
"W. c #F8E200",
"Q. c #F9E200",
"!. c #F8E400",
"~. c #F8E600",
"^. c #F7EB00",
"/. c #F7ED00",
"(. c #F8E800",
"). c #F8EE10",
"_. c #D0C820",
"`. c #F8EF20",
"'. c #F9F030",
"]. c #FC8B5D",
"[. c #F9F240",
"{. c #FAF24C",
"}. c #FAF460",
"|. c #FBF570",
" X c #005288",
".X c #005489",
"XX c #00578F",
"oX c #005D8B",
"OX c #0B5E88",
"+X c #005891",
"@X c #00609D",
"#X c #0067AA",
"$X c #006BAA",
"%X c #006FB6",
"&X c #0070B4",
"*X c #0074BF",
"=X c #0076C2",
"-X c #077CC5",
";X c #3D83A2",
":X c #1B8DCE",
">X c #2793CF",
",X c #3D95C9",
"<X c #3D96CB",
"1X c #39A3D8",
"2X c #6DD2F1",
"3X c #9E9D80",
"4X c #BB978B",
"5X c #FBF680",
"6X c #FBF788",
"7X c #F9C9B9",
"8X c #FDF9A5",
"9X c #FDF9AC",
"0X c #FDFABA",
"qX c #FDFBC0",
"wX c #FEFBCB",
"eX c #FDFCCC",
"rX c #D3EDEA",
"tX c #F5F6E7",
"yX c #FEFDE0",
"uX c white",
"iX c None",
/* pixels */
"iX=X=X=X=X=X=X=X=X=X=X=X=X=X=X=X=X=X=X=X=X=Xj   3         3         +X=X=X=X=X=X=X=X=X=X=X=X=X=X=X=X=X=X=X=X=X=X=X=X=X=X=X=X=X=X=XiX",
"iX=X=X=X=X=X=X=X=X=X=X=X=X=X=X=X=X=X=X=X=X=Xl   -         -         +X=X=X=X=X=X=X=X=X=X=X=X=X=X=X=X=X=X=X=X=X=X=X=X=X=X=X=X=X=X=XiX",
"iX=X=X=X=X=X=X=X=X=X=X=X=X=X=X=X=X+X..[ .. .Y 7.q.7.7.0.7.q.7.9.7.7.^ ..} ....=X=X=X=X=X=X=X=X=X=X=X=X=X=X=X=X=X=X=X=X=X=X=X=X=X=XiX",
"iX=X=X=X=X=X=X=X=X=X=X=X=X=X=X=X=X..        R F.K.F.F.F.F.K.F.F.F.F.y   :     =X=X=X=X=X=X=X=X=X=X=X=X=X=X=X=X=X=X=X=X=X=X=X=X=X=XiX",
"iX=X=X=X=X=X=X=X=X=X=X=X=X=X=X+X+Xm         R F.K.F.F.F.F.K.F.F.F.F.I y K y y +X+X%X=X=X=X=X=X=X=X=X=X=X=X=X=X=X=X=X=X=X=X=X=X=X=XiX",
"iX=X=X=X=X=X=X=X=X=X=X=X=X=X=X    u /././././././././././././.!.F.F.F.F.K.F.F.    +X=X=X=X=X=X=X=X=X=X=X=X=X=X=X=X=X=X=X=X=X=X=X=XiX",
"iX=X=X=X=X=X=X=X=X=X=X=X=X=X=X    i /././././././././././././.!.F.F.F.F.K.F.F.    +X=X=X=X=X=X=X=X=X=X=X=X=X=X=X=X=X=X=X=X=X=X=X=XiX",
"iX=X=X=X=X=X=X=X=X=X=X=X@Xj k L W 8./.'.qXqX0XqX0XqXqX'./././.(.R.R.K.K.K.K.S.x.x.P j ] =X=X=X=X=X=X=X=X=X=X=X=X=X=X=X=X=X=X=X=X=XiX",
"iX=X=X=X=X=X=X=X=X=X=X=X+X    s./././.[.uXuXyXuXyXuXuX[././././././.F.F.K.F.F.F.F.y   j =X=X=X=X=X=X=X=X=X=X=X=X=X=X=X=X=X=X=X=X=XiX",
"iX=X=X=X=X=X=X=X=X=X=X=X.X: - p./.[.5X8XyXyXwXqX0XqXqX'././././././.I.I.H.K.J.K.K.r.5.~ ....=X=X=X=X=X=X=X=X=X=X=X=X=X=X=X=X=X=X=XiX",
"iX=X=X=X=X=X=X=X=X=X=X=X+X    s./.5XuXuXuXuX5X/././././././././././././.I.F.F.F.F.F.F.x.    =X=X=X=X=X=X=X=X=X=X=X=X=X=X=X=X=X=X=XiX",
"iX=X=X=X=X=X=X=X=X=X=X=XOX    s./.5XuXuXuXuX5X/././././././././././././.I.F.F.F.F.F.F.x.    =X=X=X=X=X=X=X=X=X=X=X=X=X=X=X=X=X=X=XiX",
"iX=X=X=X=X=X=X=X=X=Xj     s.s.L./.`.[.{.[.[.`./././././././././././././.~.!.E.F.F.F.F.c.    =X=X=X=X=X=X=X=X=X=X=X=X=X=X=X=X=X=X=XiX",
"iX=X=X=X=X=X=X=X=X=Xj     /././././././././././././././././././././././././.!.F.F.F.F.x.    =X=X=X=X=X=X=X=X=X=X=X=X=X=X=X=X=X=X=XiX",
"iX=X=X=X=X=X=X=X=X=Xv 2 - /././././././././././././././././././././././././.Q.K.K.J.K.z.- % =X=X=X=X=X=X=X=X=X=X=X=X=X=X=X=X=X=X=XiX",
"iX=X=X:X:X-X=X:X:X-Xj     /././././././././././././././././././././././././.!.F.F.F.F.x.    =X=X=X=X=X=X=X=X=X=X=X=X=X=X=X=X=X=X=XiX",
"iX=X=X2X2X:X=X2X2X:Xd     /./././././.).[.[._.s.N./././././././././././././.W.F.F.F.F.v.    =X=X=X=X=X=X=X=X=X=X=X=X=X=X=X=X=X=X=XiX",
"iX=X=X2X2X>X=X2X2X1Xc     /./././././.[.uXuX3X  i /././././././././././././.!.F.F.F.F.x.    =X=X=X=X=X=X=X=X=X=X=X=X=X=X=X:X:X-X=XiX",
"iX=X=XtXtX<X=XtXtX2XB     /./././././.[.uXuX3X  i /././././././././././././.!.F.F.F.F.x.    =X=X=X=X=X=X=X=X=X=X=X=X=X=X=X2X2X:X=XiX",
"iX=X=XtXtX,X=XtX    Z =.-.    s./././.f.$.$.N   w /././././././././././././.W.F.F.F.F.c.    =X=X=X=X=X=X=X=X=X=X=X=X=X:X:X2X2X>X=XiX",
"iX=X=XoXoX&X=XoX    S 2.:.    s./././.s.    -   i /././././././././././././.!.F.F.F.F.x.    =X=X=X=X=X=X=X=X=X=X=X=X=X2X2XrXtX<X=XiX",
"iX....( _ ' ..n 6 p ;.2.*.* - p./././.N.i i G i U /././././././././././././.Q.K.K.J.K.z.- > =X=X=X=X=X=X=X=X=X=X=X=X=X2X2XrXtX<X=XiX",
"iX    +   @     4X7X].2.=.    s././././././././././././././././././././././.!.F.F.F.F.x.    =X=X=X=X=X=X=X=X=X=X=X=X=XtXtX;XoX&X=XiX",
"iX    .   o     4X7X].2.&.    y././././././././././././././././././././././.W.F.F.F.F.v.    =X=X=X=X=X=X=X=X=X=X=X=X=XtXtX;XoX&X=XiX",
"iX    S 2.].7X7X4.2.2.2.=.    s././././././././././././././././././././././.!.F.F.F.F.x.    =X=X=X=X=X=X=X=X=X=X=X=X=XoXoX$X&X*X=XiX",
"iX    S 2.].7X7X4.2.2.2.=.    s././././././././././././././././././././././.!.F.F.F.F.x.    =X=X=X=X=X=X=X=X=X=X=X=X=XoXoX&X=X=X=XiX",
"iX, # A 2.4.].].3.2.2.2.1.S D q i U /./././././././././././././././././.T.I.H.K.K.r.7.Q ....=X=X=X=X=X=X=X=X=X=X=X=X=X&X&X*X=X=X=XiX",
"iX    S 2.2.2.2.2.2.2.2.2.2.2.    i /./././././././././././././././././.I.F.F.F.F.y   j =X=X=X=X=X=X=X=X=X=X=X=X=X=X=X=X=X=X=X=X=XiX",
"iXj f V S %.2.2.2.2.2.2.2.2.2.X - G /./././././././././././././././.R.R.P.K.D.x.x.J j ] =X=X=X=X=X=X=X=X=X=X=X=X=X=X=X=X=X=X+X....iX",
"iX=X=X    5 2.2.2.2.2.2.2.2.2.    i /./././././././././././././././.F.F.K.F.F.    +X=X=X=X=X=X=X=X=X=X=X=X:X:X-X=X=X=X=X=X=X..    iX",
"iX=X=X    5 2.2.2.2.2.2.2.2.2.    i /././././././././.!.!.Q.!.W.!.!.F.F.A.F.F.y y #.+X.X+X X+X+X#X=X=X=X=X2X2X:X=X=X=X=X@X+X)     iX",
"iX=X=X+X+Xb         O         t.t.h./././././././././.F.F.K.F.F.F.F.F.F.7.  y F.F.y   1         ..=X=X=X=X2X2X:X=X=X=X=Xj   >     iX",
"iX=X=X=X=X..        ,         F.F.I./././././././././.F.F.K.F.F.F.F.F.F.7.  y F.F.y   -         ..=X=X=X=X=X=X=X=X=X=X=Xh   %     iX",
"iX=X=X=X=X+X....[ ..} ../ ; $ Z.K.H.I.I./././././././.R.R.T.R.Y.R.R.J.K.m.x.n.K.K.n.x.z.x.v.x.x.,.8 x j j @X=X=X=X@Xj 7 E W H - , iX",
"iX=X=X=X=X=X=X=X=X=X=X=XXX    F.F.K.F.F././././././././././././././.F.F.K.F.F.F.F.F.F.K.F.F.F.F.7.  =     +X=X=X=X+X    s./.W     iX",
"iX=X=X=X=X=X=X=X=X=X@X+X@.y y F.F.J.F.F././././././././././././././.I.I.U.I.P.I.I.P.I.U.I.H.K.K.j.7.w.7.6.F ..} ..M t i N./.T - > iX",
"iX=X=X=X=X=X=X=X=X=Xj   y F.F.F.F.I./././././././././././././././././././././././././././.!.F.F.K.F.K.F.F.y   &     /./././.W     iX",
"iX=X=X=X=X=X=X=X=X=X9   y F.F.F.F.I./././././././././././././././././././././././././././.!.F.F.K.F.K.F.F.y   -     /./././.W     iX",
"iX=X=X=X=X=X=X=X    k.F.F.F.F.E.!.~././././.qXuXyXuXuXuXuXyXuXuX/././././././././././././.^.!.!.Q.!.Q.!.!.d.s.u.s.s././././.U     iX",
"iX=X=X=X=X=X=X=X    x.F.F.F.F.!././././././.qXuXyXuXuXuXuXyXuXuX/./././././././././././././././././././././././././././././.W     iX",
"iX=X=X=X=X=X=X=X, & z.K.J.K.K.Q./././.`.5X5X9XqX0XqXqXeXqX0XqXqX/./././././././././././././././././././././././././././././.T - 3 iX",
"iX=X=X=X=X=X=X=X    x.F.F.F.F.!./././.[.uXuX5X/././././././././././././././././././././././././././././././././././././././.W     iX",
"iX=X=X=X=X#X+XOXy y n.F.F.F.F.!./.`.[.|.uXuX5X/././././././././././././././././././././././././././././././././././././.N.s.L     iX",
"iX=X=X=X=X..    F.F.K.F.F././././.5XuXuX/./././././././././././././././././././././././././././././././././././././././.i   k =X=XiX",
"iX=X=X=X=X..    F.F.K.F.F././././.5XuXuX/./././././././././././././././././././././././././././././././././././././././.i   j =X=XiX",
"iX=X=X=X=X| < - Z.K.G.K.K././././.6XyXyX/./././././././././././././././././././././././././././././././././././././././.0   d =X=XiX",
"iX=X=X=X=X..    F.F.K.F.F././././.5XuXuX/./././././././././././././././././././././././././././././././././././././././.r   j =X=XiX",
"iX=X=X=X=X} , - Z.K.G.K.K././././.}.qXqX/././././././././././././././././././././././././././././././././././././.B.W W a g ] =X=XiX",
"iX=X=X=X=X..    F.F.K.F.F././././././././././././././././././././././././././././././././././././././././././././.s.    O.=X=X=X=XiX",
"iX=X=X=X=X..    F.F.K.F.F././././././././././././././././././././././././././././././././././././././././././././.y.    ` *X=X=X=XiX",
"iX=X=X=X=X{     F.F.J.F.F.F.F.!./././././././././././././././././././././././././././././././././././././././././.s.    _ &X=X=X=XiX",
"iX=X=X=X=X..    F.F.K.F.F.F.F.!./././././././././././././././././././././././././././././././././././././././././.s.    _ &X=X=X=XiX",
"iX=X=X=X=X+X..X.<.7.M.K.J.K.K.Q./././././././././././././././././././././././././././././././././././././.I.I.a.i e O...+X=X=X=X=XiX",
"iX=X=X=X=X=X=X=X    x.F.F.F.F.!./././././././././././././././././././././././././././././././././././././.F.F.i.    =X=X=X=X=X=X=XiX",
"iX=X=X=X=X=X=X=X    k.F.F.F.F.E.!.Q.!.!././././././././././././././././././././././././././././././.(.!.!.C.V.e.4 g =X=X=X=X=X=X=XiX",
"iX=X=X=X=X=X=X=X=X=Xk   y F.F.F.F.K.F.F././././././././././././././././././././././././././././././.R.F.F.y   s oX&X=X=X=X=X=X=X=XiX",
"iX=X=X=X=X=X=X=X=X=Xj   y F.F.F.F.K.F.F././././././././././././././././././././././././././././././.R.F.F.y   j =X=X=X=X=X=X=X=X=XiX",
"iX=X=X=X=X=X=X=X=X=X@X+X#.y y C y r.F.F.F.F.K.F.I./././././././././././././././././././././././.I.F.b.y y +.+X@X=X=X=X=X=X=X=X=X=XiX",
"iX=X=X=X=X=X=X=X=X=X=X=X+X        7.F.F.F.F.K.F.I./././././././././././././././././././././././.I.F.x.    +X=X=X=X=X=X=X=X=X=X=X=XiX",
"iX=X=X=X=X=X=X=X=X=X=X=X#X....{ o.! 5.9.7.7.m.K.H.I.I.P.I.U.I.P.I.I.P.I.U.I.P.I.I.P.I.U.I.P.I.I.g.7.>.O...#X=X=X=X=X=X=X=X=X=X=X=XiX",
"iX=X=X=X=X=X=X=X=X=X=X=X=X=X=X=X=X..        x.F.K.F.F.F.F.K.F.F.F.F.F.F.K.F.F.F.F.F.F.K.F.F.F.F.7.  h =X=X=X=X=X=X=X=X=X=X=X=X=X=XiX",
"iX=X=X=X=X=X=X=X=X=X=X=X=X=X=X=X=X..        l.F.Z.F.F.F.F.Z.F.F.F.F.F.F.Z.F.F.F.F.F.F.Z.F.F.F.F.<.  j =X=X=X=X=X=X=X=X=X=X=X=X=X=XiX",
"iX=X=X=X=X=X=X=X=X=X=X=X=X=X=X=X=X=X=X=X=X=Xz   -         -             -             -         X.=X=X=X=X=X=X=X=X=X=X=X=X=X=X=X=XiX",
"iX=X=X=X=X=X=X=X=X=X=X=X=X=X=X=X=X=X=X=X=X=Xj   3         <             <             3         ..=X=X=X=X=X=X=X=X=X=X=X=X=X=X=X=XiX",
"iXiXiXiXiXiXiXiXiXiXiXiXiXiXiXiXiXiXiXiXiXiXiXiXiXiXiXiXiXiXiXiXiXiXiXiXiXiXiXiXiXiXiXiXiXiXiXiXiXiXiXiXiXiXiXiXiXiXiXiXiXiXiXiXiXiX"
};
