/* XPM */
static char *result[] = {
/* columns rows colors chars-per-pixel */
"64 64 214 2 ",
"   c black",
".  c #0B120B",
"X  c #0F160C",
"o  c #171906",
"O  c #171A06",
"+  c #1E1D00",
"@  c #1C1D03",
"#  c #000B11",
"$  c #020D10",
"%  c #000E18",
"&  c #000F18",
"*  c #0B1515",
"=  c #0B1E1C",
"-  c #3F1D00",
";  c #282D0A",
":  c #3E2700",
">  c #322A00",
",  c #312D03",
"<  c #352D01",
"1  c #312D04",
"2  c #2F3005",
"3  c #323203",
"4  c #353300",
"5  c #353400",
"6  c #3F3200",
"7  c #3C3501",
"8  c #3E3400",
"9  c #3E3600",
"0  c #393902",
"q  c #3D3B00",
"w  c #001722",
"e  c #041F2D",
"r  c #001D30",
"t  c #0B2224",
"y  c #0B2327",
"u  c #08212A",
"i  c #12302E",
"p  c #002035",
"a  c #1D3C37",
"s  c #2F3A22",
"d  c #3E322E",
"f  c #623900",
"g  c #743700",
"h  c #7E3400",
"j  c #7F3400",
"k  c #7E3A00",
"l  c #3D4410",
"z  c #434000",
"x  c #5E4D00",
"c  c #5F5302",
"v  c #5A5903",
"b  c #5C5800",
"n  c #5A5904",
"m  c #5E5D04",
"M  c #494511",
"N  c #605101",
"B  c #645401",
"V  c #655800",
"C  c #6D5B00",
"Z  c #6E5B00",
"A  c #6D5C00",
"S  c #6D5D00",
"D  c #775F00",
"F  c #625915",
"G  c #646000",
"H  c #6C6700",
"J  c #67600E",
"K  c #716002",
"L  c #756300",
"P  c #766300",
"I  c #796400",
"U  c #7E6400",
"Y  c #736F00",
"T  c #7D6800",
"R  c #7D6900",
"E  c #7D6C00",
"W  c #7B7600",
"Q  c #6F6618",
"!  c #7D6A17",
"~  c #7D6A1C",
"^  c #002E45",
"/  c #073341",
"(  c #003354",
")  c #073C54",
"_  c #073E5B",
"`  c #003B61",
"'  c #17464E",
"]  c #1F4A48",
"[  c #194F58",
"{  c #28534D",
"}  c #004263",
"|  c #0D4667",
" . c #004668",
".. c #004D7F",
"X. c #3B6563",
"o. c #3B6564",
"O. c #506E4B",
"+. c #9F3500",
"@. c #A63D00",
"#. c #BF3900",
"$. c #9E4400",
"%. c #8B7F00",
"&. c #A26035",
"*. c #FF4C00",
"=. c #FE6000",
"-. c #FD6B2E",
";. c #977E5C",
":. c #9D8000",
">. c #9D8200",
",. c #9E890F",
"<. c #9A9400",
"1. c #AF9000",
"2. c #BD9700",
"3. c #BD9A00",
"4. c #AEA600",
"5. c #B9B200",
"6. c #B8A118",
"7. c #BEA618",
"8. c #B6A33A",
"9. c #CBAB09",
"0. c #CBAC0D",
"q. c #CDAD0C",
"w. c #D5B106",
"e. c #DAB304",
"r. c #C1A815",
"t. c #C9AB11",
"y. c #DDBF18",
"u. c #ECBC00",
"i. c #C9C000",
"p. c #D8CF00",
"a. c #F5CA05",
"s. c #FCC900",
"d. c #FCCA00",
"f. c #FCCB00",
"g. c #FBCD00",
"h. c #FBCF00",
"j. c #FCCC00",
"k. c #FCCD00",
"l. c #FCCE00",
"z. c #F0C809",
"x. c #E8DE00",
"c. c #FBD000",
"v. c #FBD200",
"b. c #FBD300",
"n. c #FBD500",
"m. c #FAD600",
"M. c #FAD800",
"N. c #FADB00",
"B. c #F9DF00",
"V. c #F8E200",
"C. c #F9E200",
"Z. c #F8E400",
"A. c #F8E600",
"S. c #F7ED00",
"D. c #F8E800",
"F. c #F8EF1D",
"G. c #F9F02C",
"H. c #F9F23A",
"J. c #9B825C",
"K. c #959574",
"L. c #9E9D74",
"P. c #CC865C",
"I. c #D0835C",
"U. c #C58B62",
"Y. c #D3CF57",
"T. c #FAF457",
"R. c #FDE974",
"E. c #FBF674",
"W. c #005487",
"Q. c #005288",
"!. c #005388",
"~. c #005489",
"^. c #005688",
"/. c #00548A",
"(. c #005D8B",
"). c #005891",
"_. c #00609D",
"`. c #146A9A",
"'. c #006AA7",
"]. c #006BAA",
"[. c #006FB1",
"{. c #006EB2",
"}. c #006FB6",
"|. c #0070B4",
" X c #0074BF",
".X c #0076C2",
"XX c #077CC5",
"oX c #3D83A2",
"OX c #4D95AB",
"+X c #529DB5",
"@X c #1B8DCE",
"#X c #2793CF",
"$X c #3D95C9",
"%X c #3D96CB",
"&X c #39A3D8",
"*X c #6DD2F1",
"=X c #8A9C99",
"-X c #9EB2AF",
";X c #F9BEA1",
":X c #FCF783",
">X c #FDF99C",
",X c #D6D5AF",
"<X c #DEDDAF",
"1X c #F9C8B7",
"2X c #F2EFAF",
"3X c #FDFAA9",
"4X c #FDFBAF",
"5X c #FDFCBA",
"6X c #FEFDCB",
"7X c #FEFDCC",
"8X c #CDEBEA",
"9X c #D3EDEA",
"0X c #F5F6E7",
"qX c #FFFFE8",
/* pixels */
".X.X.X.X.X.X.X.X.X.X.X.X.X.X.X.X.X.X.X.X.X.X.X.X.X.X).    &             %     .X.X.X.X.X.X.X.X.X.X.X.X.X.X.X.X.X.X.X.X.X.X.X.X.X",
".X.X.X.X.X.X.X.X.X.X.X.X.X.X.X.X.X.X.X.X.X.X.X.X.X.X).    &             %     .X.X.X.X.X.X.X.X.X.X.X.X.X.X.X.X.X.X.X.X.X.X.X.X.X",
".X.X.X.X.X.X.X.X.X.X.X.X.X.X.X.X.X.X.X.X.X.Xr r p r s 7.7.6.7.t.r.q.e.w.9.0.,.r r p r ( .X.X.X.X.X.X.X.X.X.X.X.X.X.X.X.X.X.X.X.X",
".X.X.X.X.X.X.X.X.X.X.X.X.X.X.X.X.X.X.X.X.X.X    &   6 s.s.y.s.s.s.s.s.s.k.s.2.    X   e .X.X.X.X.X.X.X.X.X.X.X.X.X.X.X.X.X.X.X.X",
".X.X.X.X.X.X.X.X.X.X.X.X.X.X.X.X.X.X.X}.).).6 6 M 6 D s.s.a.s.s.s.s.s.s.k.s.2.    +   ; ).).}..X.X.X.X.X.X.X.X.X.X.X.X.X.X.X.X.X",
".X.X.X.X.X.X.X.X.X.X.X.X.X.X.X.X.X.X.X).    s.s.y.s.s.s.s.N.S.S.S.S.S.S.S.S.S.S.S.S.S.W     )..X.X.X.X.X.X.X.X.X.X.X.X.X.X.X.X.X",
".X.X.X.X.X.X.X.X.X.X.X.X.X.X.X.X.X.X.X).    s.s.z.s.s.s.s.N.S.S.S.S.S.S.S.S.S.S.S.S.S.W     )..X.X.X.X.X.X.X.X.X.X.X.X.X.X.X.X.X",
".X.X.X.X.X.X.X.X.X.X.X.X.X.X.X.X.Xr   6 s.s.s.s.j.s.s.Z.Z.D.S.S.S.S.S.S.S.S.S.S.S.S.S.p.5.5.    r .X.X.X.X.X.X.X.X.X.X.X.X.X.X.X",
".X.X.X.X.X.X.X.X.X.X.X.X.X.X.X.X.Xr   6 s.s.s.s.k.s.s.S.S.S.S.S.S.S.S.S.S.S.S.S.S.S.S.S.S.S.    r .X.X.X.X.X.X.X.X.X.X.X.X.X.X.X",
".X.X.X.X.X.X.X.X.X.X.X.X.X.X.X` ' J >.1.v.v.T R 8.R.R.S.S.S.S.S.S.S.S.S.S.S.p.W W Y.E.T.S.S.q q l _ ` .X.X.X.X.X.X.X.X.X.X.X.X.X",
".X.X.X.X.X.X.X.X.X.X.X.X.X.X.X    R s.s.S.S.    L.qXqXS.S.S.S.S.S.S.S.S.S.S.5.    <XqX4XS.S.S.S.W     .X.X.X.X.X.X.X.X.X.X.X.X.X",
".X.X.X.X.X.X.X.X.X.X.X.X.X.X.X    C s.s.S.S.    K.qXqXS.S.S.S.S.S.S.S.S.S.S.4.    ,XqX2XS.S.S.S.H     .X.X.X.X.X.X.X.X.X.X.X.X.X",
".X.X.X.X.X.X.X.X.X.X.X.X.X.X.X    R s.s.S.S.    +     S.S.S.S.S.S.S.S.S.S.S.5.    +   q S.S.S.S.W     .X.X.X.X.X.X.X.X.X.X.X.X.X",
".X.X.X.X.X.X.X.X.X.X.X.X.X.X.X    R s.s.S.S.    +     S.S.S.S.S.S.S.S.S.S.S.5.    +   q S.S.S.S.W     .X.X.X.X.X.X.X.X.X.X.X.X.X",
".X.X.X.X.X.X.X.X.X.X.X.X.X.X.X& + L k.k.S.S.W W Y W G q q z q > - - > q z q 5 W W Y W <.S.S.S.S.Y + & .X.X.X.X.X.X.X.X.X.X.X.X.X",
".X.X@X@XXX.X@X@XXX.X.X.X.X.X.X    R s.s.S.S.S.S.S.S.5.    +             +     S.S.S.S.S.S.S.S.S.W     .X.X.X.X.X.X.X.X.X.X.X.X.X",
".X.X*X*X@X.X*X*X@X.X.X.X.X.X.X% + P k.k.S.S.S.S.5.W V : : g $.@.+.+.I.P.U.J.;.W W 5.S.S.S.S.S.S.Y + % .X.X.X.X.X.X.X.X.X.X.X.X.X",
".X.X*X*X#X.X*X*X&X@XXX.X.X.X.X    R s.s.S.S.S.S.W     *.*.=.*.*.*.*.1X1X;X1X1X    W S.S.S.S.S.S.W     .X.X.X.X.X.X.X.X.X@X@XXX.X",
".X.X0X0X%X.X0X0X*X*X@X.X.X.X.X    R s.s.S.S.S.S.W     *.*.=.*.*.*.*.1X1X;X1X1X    W S.S.S.S.S.S.W     .X.X.X.X.X.X.X.X.X*X*X@X.X",
".X.X0X0X$X.X0X0X*X*X&X@X.X.X.X    Z s.s.S.S.S.S.p.5.%.    h *.*.*.*.-.-.&.d d 5.5.p.S.S.S.S.S.S.H     .X.X.X.X.X.X.X@X@X*X*X#X.X",
".X.X(.(.|..X(.(.0X9X*X*X*X*X.X    R s.s.S.S.S.S.S.S.5.    k *.*.*.*.*.*.k     S.S.S.S.S.S.S.S.S.W     .X.X.X.X.X.X.X*X*X9X0X%X.X",
".X.X(.(.[..X(.(.0X9X*X*X*X*X@X* @ P k.k.N.N.M.N.B.S.i.q q f k j =.=.j k f q q S.S.S.S.S.S.S.S.S.Y o % .X.X.X.X.X.X.X*X*X9X0X%X.X",
".X.X(.(.|..X(.(.(.oX0X8X*X*X*X    Q s.s.s.s.s.s.v.S.S.S.S.q     *.*.    q S.S.S.S.S.S.S.S.S.S.S.W     .X.X.X.X.X.X.X0X0XoX(.|..X",
".X.X(.(.|..X(.(.(.oX0X9X*X*X*X    F s.s.s.s.s.s.c.S.S.S.S.q     #.#.    q S.S.S.S.S.S.S.S.S.S.S.H     .X.X.X.X.X.X.X0X0XoX(.|..X",
".X.X.X.X.X.X(.(.(.(.(.oX0X0X0X    ~ s.s.s.s.s.s.v.S.S.S.S.S.S.5.    5.S.S.S.S.S.S.S.S.S.S.S.S.S.W     .X.X.X.X.X.X.X(.(.].|. X.X",
".X.X.X.X.X.X(.(.(.(.(.oX0X0X0X    ! s.s.s.s.s.s.v.S.S.S.S.S.S.5.    5.S.S.S.S.S.S.S.S.S.S.S.S.S.W     .X.X.X.X.X.X.X(.(.|..X.X.X",
".X.X(.(.|..X.X.X.X{.(.(.(.(.(.# $ K k.j.k.k.n.N.B.S.S.S.S.S.S.p.W W p.S.S.S.G.4X4X3X4X:XS.S.S.S.Y X & .X.X.X.X.X.X.X|.|. X.X.X.X",
".X.X(.(.|..X.X.X.X|.(.(.(.(.(.    R s.s.s.s.Z.S.S.S.S.S.S.S.S.S.S.S.S.S.S.S.H.qXqX7XqX4XS.S.S.S.W     .X.X.X.X.X.X.X.X.X.X.X.X.X",
".X.X|.|. X.X.X.X(.(.(.(. .^ / , 9 >.k.j.k.k.C.S.S.S.S.S.S.S.S.S.S.S.S.S.S.S.G.4X4X3X4X>XE.E.F.S.<.q 2 ] ` )..X.X.X.X.X.X.X.X.X.X",
".X.X.X.X.X.X.X.X(.(.(.(.^     2.s.k.s.s.s.s.Z.S.S.S.S.S.S.S.S.S.S.S.S.S.S.S.S.S.S.S.S.E.qXqXH.S.S.S.5.    | XX.X.X.X.X.X.X.X.X.X",
".X.X.X.X.X.X.X.X|.[.{.{.)     2.s.j.s.s.s.s.V.S.S.S.S.S.S.S.S.S.S.S.S.S.S.S.S.S.S.S.S.E.qXqXH.S.S.S.5.    O.@X.X.X.X.X.X.X.X.X.X",
".X.X.X.X.X.X.X.X.X.Xr   1 2.2.u.s.k.s.s.s.s.Z.S.S.S.S.S.S.S.S.S.S.S.S.S.S.S.S.S.S.S.S.F.H.H.qXqX4XS.x.5.5.4   r .X.X.X.X.X.X.X.X",
".X.X.X.X.X.X.X.X.X.Xu   9 s.s.s.s.k.s.s.s.s.Z.S.S.S.S.S.S.S.S.S.S.S.S.S.S.S.S.S.S.S.S.S.S.S.qXqX4XS.S.S.S.q   y .X.X.X.X.X.X.X.X",
".X.X.X.X.X.X.X_.r y c R >.k.k.f.k.l.k.f.k.k.C.S.S.S.S.S.S.S.S.S.S.S.S.S.S.S.S.S.S.S.S.S.S.S.6X6X3XS.S.S.S.<.W n y r _..X.X.X.X.X",
".X.X.X.X.X.X.X).    R s.k.s.s.s.s.k.s.s.s.s.Z.S.S.S.S.S.S.S.S.S.S.S.S.S.S.S.S.S.S.S.S.S.S.S.qXqX4XS.S.S.S.S.S.W     )..X.X.X.X.X",
".X.X.X.X.X.X.XQ.    C s.j.s.s.s.s.f.s.s.s.s.Z.S.S.S.S.S.S.S.S.S.S.S.S.S.S.S.S.S.S.S.S.S.S.S.qXqX5XS.S.S.S.S.S.b     ...X.X.X.X.X",
".X.X.X.X.X.X.X).    R s.k.s.s.s.s.k.s.s.S.S.S.S.S.S.S.S.S.S.S.S.S.S.S.S.S.S.S.S.S.S.S.S.S.S.qXqX4XS.S.S.S.S.S.W     )..X.X.X.X.X",
".X.X.X.X.X.X.X).    R s.k.s.s.s.s.k.s.s.S.S.S.S.S.S.S.S.S.S.S.S.S.S.S.S.S.S.S.S.S.S.S.S.S.S.qXqX4XS.S.S.S.S.S.W     )..X.X.X.X.X",
".X.X.X.X.X.X.X!.    Z s.j.s.s.s.s.j.s.s.S.S.S.S.S.S.S.S.S.S.S.S.S.S.S.S.S.S.S.S.S.S.S.S.S.S.H.H.G.S.S.S.S.S.S.H     !..X.X.X.X.X",
".X.X.X.X.X.X.X).    R s.k.s.s.s.s.k.s.s.S.S.S.S.S.S.S.S.S.S.S.S.S.S.S.S.S.S.S.S.S.S.S.S.S.S.S.S.S.S.S.S.S.S.S.W     `.@XXX.X.X.X",
".X.X.X.X.X.X.X/.& + L k.g.k.k.j.k.g.k.k.S.S.S.S.S.S.S.S.S.S.S.S.S.S.S.S.S.S.S.S.S.S.S.S.S.S.S.S.S.S.S.S.S.S.S.Y + O OX*X@X.X.X.X",
".X.X.X.X.X.X.X).    R s.k.s.s.s.s.k.s.s.S.S.S.S.S.S.S.S.S.S.S.S.S.S.S.S.S.S.S.S.S.S.S.S.S.S.S.S.S.S.S.S.S.S.S.W     +X*X#X.X.X.X",
".X.X.X.X.X.X.X..    x s.f.s.s.s.s.f.s.s.S.S.S.S.S.S.S.S.S.S.S.S.S.S.S.S.S.S.S.S.S.S.S.S.S.S.S.S.S.S.S.S.S.S.S.b     =X0X%X.X.X.X",
".X.X.X.X.X.X.X).    R s.k.s.s.s.s.k.s.s.S.S.S.S.S.S.S.S.S.S.S.S.S.S.S.S.S.S.S.S.S.S.S.S.S.S.S.S.S.S.S.S.S.S.S.W     -X0X$X.X.X.X",
".X.X.X.X.X.X.XQ.    A s.k.s.s.s.s.k.s.s.S.S.S.S.S.S.S.S.S.S.S.S.S.S.S.S.S.S.S.S.S.S.S.S.S.S.S.S.S.S.S.S.S.S.S.H     X.(.|..X.X.X",
".X.X.X.X.X.X.X!.    Z s.j.s.s.j.k.l.k.k.S.S.S.S.S.S.S.S.S.S.S.S.S.S.S.S.S.S.S.S.S.S.S.S.S.S.S.S.S.S.S.S.S.S.S.H     o.(.[..X.X.X",
".X.X.X.X.X.X.X).    R s.k.s.s.s.s.k.s.s.S.S.S.S.S.S.S.S.S.S.S.S.S.S.S.S.S.S.S.S.S.S.S.S.S.S.S.S.S.S.S.S.S.S.S.W      .(.|..X.X.X",
".X.X.X.X.X.X.X~.% + P k.g.k.k.d.f.j.f.f.v.v.A.S.S.S.S.S.S.S.S.S.S.S.S.S.S.S.S.S.S.S.S.S.S.S.S.S.S.S.S.S.S.S.S.Y + . } (.|..X.X.X",
".X.X.X.X.X.X.X).    R s.k.s.s.s.s.k.s.s.s.s.Z.S.S.S.S.S.S.S.S.S.S.S.S.S.S.S.S.S.S.S.S.S.S.S.S.S.S.S.S.S.S.S.S.W     W..X.X.X.X.X",
".X.X.X.X.X.X.X_.r y N U :.s.s.s.s.j.s.s.s.s.V.S.S.S.S.S.S.S.S.S.S.S.S.S.S.S.S.S.S.S.S.S.S.S.H.H.G.S.S.S.S.<.W v = w ^.|. X.X.X.X",
".X.X.X.X.X.X.X.X.X.Xy   9 s.s.s.s.k.s.s.s.s.Z.S.S.S.S.S.S.S.S.S.S.S.S.S.S.S.S.S.S.S.S.S.S.S.qXqX4XS.S.S.S.q   = (.(.(.(.|..X.X.X",
".X.X.X.X.X.X.X.X.X.Xr   7 s.s.s.s.k.s.s.s.s.Z.S.S.S.S.S.S.S.S.S.S.S.S.S.S.S.S.S.S.S.S.S.S.S.qXqX4XS.S.S.S.0   w (.(.(.(.|..X.X.X",
".X.X.X.X.X.X.X.X.X.X_.).a     2.s.j.s.s.s.s.s.s.v.S.S.S.S.S.S.S.S.S.S.S.S.S.S.S.S.S.S.S.S.S.H.H.G.S.5.    i W._..X.X.X.X.X.X.X.X",
".X.X.X.X.X.X.X.X.X.X.X.X`     2.s.k.s.s.s.s.s.s.v.S.S.S.S.S.S.S.S.S.S.S.S.S.S.S.S.S.S.S.S.S.S.S.S.S.5.    ^ '.|. X.X.X.X.X.X.X.X",
".X.X.X.X.X.X.X.X.X.X.X.X).` ' < 8 :.f.f.f.f.j.k.h.v.v.S.S.S.S.S.S.S.S.S.S.S.S.S.S.S.S.S.S.S.S.S.<.q 3 ' ^  .(.(.|..X.X.X.X.X.X.X",
".X.X.X.X.X.X.X.X.X.X.X.X.X.X.X    R s.s.s.s.s.s.k.s.s.S.S.S.S.S.S.S.S.S.S.S.S.S.S.S.S.S.S.S.S.S.W     |.(.(.(.(.|..X.X.X.X.X.X.X",
".X.X.X.X.X.X.X.X.X.X.X.X.X.X.X    B 2.2.s.s.s.s.j.s.s.Z.Z.D.S.S.S.S.S.S.S.S.S.S.S.S.S.S.S.S.5.5.m     (.|..X.X.X.X.X.X.X.X.X.X.X",
".X.X.X.X.X.X.X.X.X.X.X.X.X.X.X.X.Xy     s.s.s.s.k.s.s.s.s.N.S.S.S.S.S.S.S.S.S.S.S.S.S.S.S.S.    t .X(.(.|..X.X.X.X.X.X.X.X.X.X.X",
".X.X.X.X.X.X.X.X.X.X.X.X.X.X.X.X.Xr     s.s.s.s.k.s.s.s.s.N.S.S.S.S.S.S.S.S.S.S.S.S.S.S.S.S.    r .X.X.X.X.X.X.X.X.X.X.X.X.X.X.X",
".X.X.X.X.X.X.X.X.X.X.X.X.X.X.X.X.X_.).{     3.k.g.k.j.k.k.c.v.m.v.v.c.v.b.v.c.v.v.b.v.E     [ )._..X.X.X.X.X.X.X.X.X.X.X.X.X.X.X",
".X.X.X.X.X.X.X.X.X.X.X.X.X.X.X.X.X.X.X).    2.s.k.s.s.s.s.k.s.c.s.s.s.s.k.s.s.s.s.k.s.R     )..X.X.X.X.X.X.X.X.X.X.X.X.X.X.X.X.X",
".X.X.X.X.X.X.X.X.X.X.X.X.X.X.X.X.X.X.X_.r y B R P R I R R L R S R R Z R P R C R R L R c y r _..X.X.X.X.X.X.X.X.X.X.X.X.X.X.X.X.X",
".X.X.X.X.X.X.X.X.X.X.X.X.X.X.X.X.X.X.X.X.X.X    +         +             +         +   y .X.X.X.X.X.X.X.X.X.X.X.X.X.X.X.X.X.X.X.X",
".X.X.X.X.X.X.X.X.X.X.X.X.X.X.X.X.X.X.X.X.X.X    %         &             %         &   r .X.X.X.X.X.X.X.X.X.X.X.X.X.X.X.X.X.X.X.X"
};
