/* XPM */
static char *result[] = {
/* columns rows colors chars-per-pixel */
"65 64 184 2 ",
"   c black",
".  c #06090B",
"X  c #1C0E04",
"o  c #130C08",
"O  c #1A120C",
"+  c #050E13",
"@  c #000E18",
"#  c #00131E",
"$  c #0A1419",
"%  c #171514",
"&  c #1D1C1B",
"*  c #2F0E01",
"=  c #380A00",
"-  c #2B170C",
";  c #3B1202",
":  c #341806",
">  c #3F1B04",
",  c #34251B",
"<  c #001725",
"1  c #001826",
"2  c #001A2A",
"3  c #001D30",
"4  c #012235",
"5  c #05283A",
"6  c #172A33",
"7  c #152834",
"8  c #2B2E2F",
"9  c #372B26",
"0  c #392C28",
"q  c #3E3733",
"w  c #363A3B",
"e  c #420B00",
"r  c #481206",
"t  c #431C04",
"y  c #50190B",
"u  c #6D1B02",
"i  c #5E2B1F",
"p  c #7D340C",
"a  c #44352F",
"s  c #7F441F",
"d  c #76492C",
"f  c #002E46",
"g  c #082F41",
"h  c #00304A",
"j  c #14354A",
"k  c #003454",
"l  c #00375B",
"z  c #083A5B",
"x  c #283945",
"c  c #333C42",
"v  c #003B61",
"b  c #083E61",
"n  c #423F42",
"m  c #17415C",
"M  c #00426A",
"N  c #0C4B6C",
"B  c #134162",
"V  c #004774",
"C  c #004B77",
"Z  c #174D70",
"A  c #204863",
"S  c #3C626E",
"D  c #366978",
"F  c #4F5050",
"G  c #6B5951",
"H  c #735850",
"J  c #7F685C",
"K  c #566364",
"L  c #776861",
"P  c #7F6F68",
"I  c #7A7B73",
"U  c #8C1F01",
"Y  c #8D2103",
"T  c #912102",
"R  c #9A2302",
"E  c #8F3D08",
"W  c #A72302",
"Q  c #813D24",
"!  c #C32A02",
"~  c #C82A02",
"^  c #D92C01",
"/  c #E02700",
"(  c #E42F02",
")  c #E53203",
"_  c #E83904",
"`  c #E33309",
"'  c #9F4409",
"]  c #B44D0A",
"[  c #BF520B",
"{  c #CF580C",
"}  c #D3530B",
"|  c #ED4606",
" . c #EF4A07",
".. c #F35309",
"X. c #F75A0B",
"o. c #E8461C",
"O. c #EF660E",
"+. c #F9650D",
"@. c #FF6D0F",
"#. c #FB6A16",
"$. c #E34925",
"%. c #ED5927",
"&. c #E85534",
"*. c #F46829",
"=. c #FD7829",
"-. c #BB5C43",
";. c #8E7168",
":. c #E76C4E",
">. c #EF7550",
",. c #C77B63",
"<. c #FF893F",
"1. c #A9867B",
"2. c #CF875B",
"3. c #F0824F",
"4. c #FF9655",
"5. c #DE967D",
"6. c #EC8569",
"7. c #F29C6F",
"8. c #E48C76",
"9. c #E79A7F",
"0. c #F79B78",
"q. c #FFA670",
"w. c #005389",
"e. c #005D8B",
"r. c #005A91",
"t. c #006093",
"y. c #00639A",
"u. c #0067A1",
"i. c #0069A6",
"p. c #0067AA",
"a. c #006FB3",
"s. c #0070B4",
"d. c #0072B9",
"f. c #297BA3",
"g. c #0076C2",
"h. c #107DC3",
"j. c #4C97B1",
"k. c #0E82C8",
"l. c #1587CB",
"z. c #1B8DCE",
"x. c #37A4DA",
"c. c #3EAADD",
"v. c #48ADDB",
"b. c #7BADC0",
"n. c #7BB6D3",
"m. c #4CB3E0",
"M. c #52BBE5",
"N. c #5DC1E7",
"B. c #66CAEC",
"V. c #74CDEB",
"C. c #6DD2F1",
"Z. c #9F8B82",
"A. c #83989D",
"S. c #BFA79C",
"D. c #8AA0A6",
"F. c #ADB2AC",
"G. c #CC9D8E",
"H. c #CC9F91",
"J. c #E79C84",
"K. c #D9A99A",
"L. c #E9A994",
"P. c #E5AF9F",
"I. c #F5B99B",
"U. c #E7B3A3",
"Y. c #E8B5A5",
"T. c #EBBAAA",
"R. c #C7C8BC",
"E. c #DFC3B6",
"W. c #FFC3A0",
"Q. c #FCC8AE",
"!. c #EEC0B0",
"~. c #F2C7B7",
"^. c #FACDB7",
"/. c #B8D3D7",
"(. c #B8D6DD",
"). c #96D5E7",
"_. c #94D5E8",
"`. c #D6D7CA",
"'. c #F7D1C2",
"]. c #F8D3C4",
"[. c #FEDBCA",
"{. c #FFDFD0",
"}. c #D7E6E3",
"|. c #F5F6E7",
/* pixels */
"g.g.g.g.g.g.g.g.g.g.g.g.g.g.g.g.g.g.g.g.g.g.g.a.r.r.w.r.r.w.r.C r.w.r.r.w.r.r.w.r.y.g.g.g.g.g.g.g.g.g.g.g.g.g.g.g.g.g.g.g.g.g.g.g.",
"g.g.g.g.g.g.g.g.g.g.g.g.g.g.g.g.g.g.g.g.g.g.g.r.    @         .         @         3 g.g.g.g.g.g.g.g.g.g.g.g.g.g.g.g.g.g.g.g.g.g.g.",
"g.g.g.g.g.g.g.g.g.g.g.g.g.g.g.g.g.g.g.g.g.g.g.w.    X         .         @         4 g.g.g.g.g.g.g.g.g.g.g.g.g.g.g.g.g.g.g.g.g.g.g.",
"g.g.g.g.g.g.g.g.g.g.g.g.g.g.g.g.g.g.r.v v l v j > t t > > : t - > : > > t t - - - , w v k v v g.g.g.g.g.g.g.g.g.g.g.g.g.g.g.g.g.g.",
"g.g.g.g.g.g.g.g.g.g.g.g.g.g.g.g.g.g.v     X     @.@.@.@.@.@.@.@.@.@.@.@.@.@.@.@.@.p           g.g.g.g.g.g.g.g.g.g.g.g.g.g.g.g.g.g.",
"g.g.g.g.g.g.g.g.g.g.g.g.g.g.g.g.g.g.v     X     @.@.@.@.@.@.@.@.@.@.@.@.@.@.@.@.@.E           g.g.g.g.g.g.g.g.g.g.g.g.g.g.g.g.g.g.",
"g.g.g.g.g.g.g.g.g.g.g.g.g.v         - / / ^ / / @.@.@.@.@.@.@.@.@.@.@.@.@.@.@.@.@.{ [ [ ] [ E     @     g.g.g.g.g.g.g.g.g.g.g.g.g.",
"g.g.g.g.g.g.g.g.g.g.g.g.g.v         = / / ) / / @.@.@.@.@.@.@.@.@.@.@.@.@.@.@.@.@.@.@.@.@.@.[     o     g.g.g.g.g.g.g.g.g.g.g.g.g.",
"g.g.g.g.g.g.g.g.g.g.g.v v 9 = ; * ; u ( ( ) _ _ @.@.@.@.@.@.@.@.@.@.@.@.@.@.@.@.@.@.@.@.@.@.{ > > t > - x m r.g.g.g.g.g.g.g.g.g.g.",
"g.g.g.g.g.g.g.g.g.g.g.    ; / ^ / / ( ^ /  .@.@.@.@.@.@.@.@.@.@.@.@.@.@.@.@.@.@.@.@.@.@.@.@.@.@.@.@.@.[     v g.g.g.g.g.g.g.g.g.g.",
"g.g.g.g.g.g.g.g.g.g.g.    ; / / / / ` / /  .@.@.@.@.@.@.@.@.@.@.@.@.@.@.@.@.@.@.@.@.@.@.@.@.@.@.@.@.@.[     B g.g.g.g.g.g.g.g.g.g.",
"g.g.g.g.g.g.g.g.3     P.P.P.P.P.:./ ` X.X.+.@.@.@.@.@.@.@.@.@.@.@.@.@.@.@.@.@.@.@.@.@.@.@.@.@.@.@.W.{.{.S.H.8     g.g.g.g.g.g.g.g.",
"g.g.g.g.g.g.g.g.3     P.P.Y.P.P.:./ _ @.@.@.@.@.@.@.@.@.@.@.@.@.@.@.@.@.@.@.@.@.@.@.@.@.@.@.@.@.@.W.{.{.{.{.q     g.g.g.g.g.g.g.g.",
"g.g.g.g.g.g.g.g.1     P.P.U.P.P.6.&.%.@.@.@.@.@.@.@.X.X.X.X.X.X.X.X.X.X.X.X.X.X.X.X.X.X.@.@.=.<.3.Q.{.{.{.{.8     g.g.g.g.g.g.g.g.",
"g.g.g.g.g.g.g.g.7     P.P.Y.P.P.].{.W.@.@.@.@.@.@.@./ / / / / ( / / / / ` / / / / ( / / X.@.q.{.{.[.{.{.{.{.a     g.g.g.g.g.g.g.g.",
"g.g.k.z.l.g.k.z.8     P.P.Y.P.P.].{.W.@.@.@.@.@.@.@./ / / / / ) / / / / ( / / / / ( / / X.@.q.{.{.{.{.{.{.{.q     g.g.g.g.g.g.g.g.",
"g.g.x.C.M.r.5 6 1.H.H.U.U.T.~.~.[.{.^.W.W.4.@.{ t t T T R Y T U T T T T R T T T T ! ( ( L.U.Y.[.{.{.{.{.{.{.1.I G 7 3 k g.g.g.g.g.",
"g.g.v.C.B.r.  . H.P.U.P.P.T.{.{.{.{.{.{.{.q.@.[     O         +         X         T / / P.P.U.{.{.{.{.{.{.{.{.{.S.    2 k.z.l.g.g.",
"g.g.n.R.D.Z 0 0 K.K.P.U.P.T.{.{.{.{.{.{.[.2.[ '     $         o         $         Y / / P.P.P.].].[.{.{.{.{.{.{.S.    7 f.j.v.d.g.",
"g.g.n.w   0 P.P.Y.P.P.].{.{.{.{.{.{.{.{.{.9     m.C.V.|.}.|.}.|.}.|._.C.B.z.l.g.g.z     P.P.P.P.P.^.{.{.{.{.{.{.{.{.{.P     j.g.g.",
"g.g.i.<   9 L.P.Y.P.P.'.{.{.{.{.{.{.{.{.{.q     V.|./.e.t.e.t.e.t.e.b.|._.C.M.g.g.v     P.P.P.P.P.~.[.{.{.{.{.{.{.{.{.P     D.g.g.",
"g.d.u.1 % F Y.Y.Y.Y.Y.'.{.{.{.{.{.{.Z.q q F D D V.|./.e.t.e.t.e.t.e.b.|.).C.N.g.g.r.v A ;.;.1.Y.U.T.T.!.{.{.{.{.{.{.{.L & & A.g.g.",
"g.g.p.<   0 P.P.Y.P.U.].{.{.{.{.{.{.P     D C.|./.e.t.e.e.e.t.e.t.e.e.e.b.|.(.g.g.g.g.g.    0 P.P.Y.U.P.{.{.{.{.{.{.{.P     C g.g.",
"g.g.p.$   0 P.P.Y.P.P.^.{.{.{.{.{.{.;.    D V.|./.e.t.e.t.e.t.e.t.e.t.e.b.|.(.g.g.g.g.g.    0 P.P.U.P.P.{.{.{.{.{.{.{.J     N g.g.",
"C     o   r ^ / ` / / 0.{.{.{.{.    8 F.F.`./.e.e.e.r.e.t.s.y.e.t.s.y.e.t.e.y.g.g.g.g.g.r.r.j 0 9 K.P.P.P.P.7.@.@.@.@.@.[ [     < ",
"C     X   = / / ( / / 0.{.[.{.{.    w |.}.|./.e.e.e.t.e.y.g.i.t.y.g.i.e.t.e.y.g.g.g.g.g.g.g.v     H.P.P.P.U.7.@.@.@.@.@.@.@.    < ",
"v $ @ u T W ( ` ) _ _ =.<.<.3.<.t % 2 e.t.e.t.e.t.s.s.s.y.t.y.s.u.e.t.e.t.e.t.g.g.g.g.g.g.g.l $ & ,.9.J.9.9.>.@.@.@.@.@.@.@.o # 2 ",
"C     ~ / / / /  .@.@.#.@.@.@.@.t   1 e.t.e.t.e.y.g.g.g.i.e.y.g.i.e.t.e.t.e.y.g.g.g.g.g.g.g.v     ~ / / / ^  .@.@.@.@.@.@.@.    < ",
"V     ~ / / / /  .@.@.@.@.@.@.@.t   < e.t.e.t.e.t.e.y.g.d.s.d.g.d.s.s.s.s.s.d.g.g.g.g.g.g.g.v     ~ / / / /  .@.@.@.@.@.@.@.    2 ",
"M     ~ / / / / | @.@.@.@.@.@.@.    # e.t.e.t.e.t.e.y.g.g.g.g.g.g.g.g.g.d.g.g.g.g.g.g.g.g.g.k     ~ / / / / | @.@.@.@.@.@.@.    # ",
"V     ~ / / / /  .@.@.@.@.@.@.@.    2 e.t.d.s.s.a.s.d.g.g.g.g.g.g.g.g.g.i.e.y.g.g.g.g.g.g.g.v     ~ / / / /  .@.@.@.@.@.@.@.    2 ",
"v     ~ / / / / | @.@.@.@.@.@.@.    < e.y.d.g.g.d.g.g.g.g.g.g.g.g.g.g.g.i.e.y.g.g.g.g.g.g.g.k     ~ / / / ^  .@.@.@.@.@.@.@.    @ ",
"C     ~ / / / /  .@.@.@.@.@.@.@.    1 s.u.e.y.g.g.g.g.g.g.g.g.g.g.g.g.g.d.d.d.d.g.g.g.g.g.g.v     ~ / / / /  .@.@.@.@.@.@.@.    1 ",
"V     ~ / / / /  .@.@.@.@.@.@.@.    1 g.p.e.y.g.g.g.g.g.g.g.g.g.g.g.g.g.g.g.g.g.g.g.g.g.g.g.v     ~ / / / /  .@.@.@.@.@.@.@.    1 ",
"M @ o ! ) ( ( ( | @.@.@.@.@.@.@.X + 4 g.d.s.d.g.g.g.g.g.g.g.g.g.g.g.g.g.g.g.g.g.g.g.g.g.g.g.l @ % ~ ) ( ( (  .@.@.@.@.@.@.@.X + 2 ",
"V     ~ / / / /  .@.@.@.@.@.@.@.    3 g.g.g.g.g.g.g.g.g.g.g.g.g.g.g.g.g.g.g.g.g.g.g.g.g.g.g.v     ~ / ^ / /  .@.@.@.@.@.@.@.    1 ",
"M     ~ / / / / | @.@.@.@.@.@.@.    2 g.g.g.g.g.g.g.g.g.g.g.g.g.g.g.g.g.g.g.g.g.g.g.g.g.g.g.l     ~ / / / / | @.@.@.@.@.@.@.    # ",
"V     ~ / / / /  .@.@.@.@.@.@.@.    3 g.g.g.g.g.g.g.k.z.l.g.k.z.l.g.g.g.g.g.g.g.g.g.g.g.g.g.v     ~ / / / /  .@.@.@.@.@.@.@.    1 ",
"V     ~ / / / /  .@.@.@.@.@.@.@.    3 g.g.g.g.g.g.g.x.C.M.g.x.C.M.g.g.g.g.g.g.g.g.g.g.g.g.g.v     ~ / / / ^ | @.@.@.@.@.@.@.    1 ",
"r.v v p T W ) ) ) _ _ *.4.4.<.<.Q ;.F 3 3 C g.g.g.g.c.C.N.z.v.C.N.g.k.z.l.g.l.z.l.g.g.g.3 3 G H.G.5.9.9.*.%.#.#.@.@.@.' > t 6 v M ",
"g.g.g.3   = / / ( ^ / 0.{.{.{.{.{.{.P     M d.d.g.g.x.C.B.C.B.C.M.g.x.C.M.g.x.C.M.g.g.g.    H P.P.Y.P.P.{.{.<.@.@.@.@.p     r.g.g.",
"g.g.g.3   = / / ) ^ / 0.{.{.{.{.{.{.P .   M g.g.k.z.m.C.B.C.B.C.N.g.v.C.N.g.v.C.N.z.l.h.    H P.P.Y.P.P.{.{.<.@.@.@.@.s     r.g.g.",
"g.g.g.2   a 8.8.8.8.8.Q.{.{.{.{.{.{.E.S.H.8     x.C.V.|.}.|.}.|.(.g.n.|.(.g.n.|._.D     P.P.P.P.P.!.[.].{.{.Q.W.W.I.W.G     w.g.g.",
"g.g.g.3   0 P.U.Y.P.P.'.{.{.{.{.{.{.{.{.{.a     m.C.V.|.}.|.}.|.(.g.n.|.(.g.n.|._.D     P.P.P.P.P.~.{.{.{.{.{.{.{.{.{.;.    r.g.g.",
"g.g.g.k 3 c H.H.K.Y.Y.!.~.~.{.{.{.{.{.{.{.d > : S I K f h 5 h 4 h k k f h v k 5 F d Y T U.Y.U.U.Y.~.{.{.{.{.{.{.E.P P c 2 3 y.g.g.",
"g.g.g.g.g.r.    H.P.U.P.U.!.{.{.{.{.{.{.{.q.@.[     O                   .         U / / P.P.P.P.P.~.{.{.{.{.{.{.S.    < y.g.g.g.g.",
"g.g.g.g.g.r.    H.U.P.P.U.T.[.{.{.{.[.[.[.q.@.[     X         o         X         T / / P.U.P.P.P.~.{.{.{.{.{.{.S.    < y.g.g.g.g.",
"g.g.g.g.g.a.r.r.n 9 9 P.P.U.P.U.].{.[.<.<.<.@.O.] { ] ] } / / ^ / / / / ^ ( / / / / / / $.$.:.].'.[.{.{.{.{.q     M M V y.g.g.g.g.",
"g.g.g.g.g.g.g.g.7     P.P.Y.P.P.[.{.{.@.@.@.@.@.@.@.@.@.X./ / ` / / / / ( / / / / ( / / / ^ o.{.{.{.{.{.{.{.q     t.y.g.g.g.g.g.g.",
"g.g.g.g.g.g.g.g.3 & & P.Y.Y.T.Y.>.>.>.#.@.@.@.@.@.@.@.@.+.` _ _ _ ) _ _ _ _ _ ` _ _ _ _ ) _ %.W.W.^.{.{.{.{.a & $ e.t.s.s.g.g.g.g.",
"g.g.g.g.g.g.g.g.3     P.P.Y.P.P./ / / @.@.@.@.@.@.@.@.@.@.@.@.@.@.@.@.@.@.@.@.@.@.@.@.@.@.@.@.@.@.W.{.{.{.{.q     e.t.e.y.g.g.g.g.",
"g.g.g.g.g.g.g.g.3     P.P.Y.P.P./ / / @.@.@.@.@.@.@.@.@.@.@.@.@.@.@.@.@.@.@.@.@.@.@.@.@.@.@.@.@.@.W.{.{.{.{.q     e.t.e.y.g.g.g.g.",
"g.g.g.g.g.g.g.g.C v v ;.;.-.$.$.( ( ( _ _ ..@.@.@.@.@.@.@.@.@.@.@.@.@.@.@.@.@.@.@.@.@.@.@.@.@.@.@.4.q.2.9 q j z v g.g.g.g.g.g.g.g.",
"g.g.g.g.g.g.g.g.g.g.g.    T / / / / ^ / /  .@.@.@.@.@.@.@.@.@.@.@.@.@.@.@.@.@.@.@.@.@.@.@.@.@.@.@.@.@.]     h s.d.g.g.g.g.g.g.g.g.",
"g.g.g.g.g.g.g.g.g.g.g.    T / / / / / / / | X.X.@.@.@.@.@.@.@.@.@.@.@.@.@.@.@.@.@.@.@.@.@.@.O.[ [ ] { '     h e.y.g.g.g.g.g.g.g.g.",
"g.g.g.g.g.g.g.g.g.g.g.g.g.z         T / / ` / / @.@.@.@.@.@.@.@.@.@.@.@.@.@.@.@.@.@.@.@.@.@.[     X     u.e.t.e.y.g.g.g.g.g.g.g.g.",
"g.g.g.g.g.g.g.g.g.g.g.g.g.v         T / / ( / / @.@.@.@.@.@.@.@.@.@.@.@.@.@.@.@.@.@.@.@.@.@.{     +     y.g.g.g.g.g.g.g.g.g.g.g.g.",
"g.g.g.g.g.g.g.g.g.g.g.g.g.r.v v k z i T T R T R _ _ _ _ _ ) _ _ _ _ ) _ _ _ _ _ _ ~ > t : > - g h l k f y.g.g.g.g.g.g.g.g.g.g.g.g.",
"g.g.g.g.g.g.g.g.g.g.g.g.g.g.g.g.g.g.b     X   = / / ( / / / / ( / / / / ( / / ) / /           g.g.g.g.g.g.g.g.g.g.g.g.g.g.g.g.g.g.",
"g.g.g.g.g.g.g.g.g.g.g.g.g.g.g.g.g.g.v     @   = / / ) / / / / ( / / / / ( / ^ ) / /           g.g.g.g.g.g.g.g.g.g.g.g.g.g.g.g.g.g.",
"g.g.g.g.g.g.g.g.g.g.g.g.g.g.g.g.g.g.p.r.r.w.r.b = = r = = e = r = = e = y = = e = y r.r.w.r.r.g.g.g.g.g.g.g.g.g.g.g.g.g.g.g.g.g.g.",
"g.g.g.g.g.g.g.g.g.g.g.g.g.g.g.g.g.g.g.g.g.g.g.r.    #         .         +         3 g.g.g.g.g.g.g.g.g.g.g.g.g.g.g.g.g.g.g.g.g.g.g.",
"g.g.g.g.g.g.g.g.g.g.g.g.g.g.g.g.g.g.g.g.g.g.g.y.3 3 3 3 3 1 3 < 3 2 3 3 3 3 3 1 3 k g.g.g.g.g.g.g.g.g.g.g.g.g.g.g.g.g.g.g.g.g.g.g.",
"g.g.g.g.g.g.g.g.g.g.g.g.g.g.g.g.g.g.g.g.g.g.g.g.g.g.g.g.g.g.g.g.g.g.g.g.g.g.g.g.g.g.g.g.g.g.g.g.g.g.g.g.g.g.g.g.g.g.g.g.g.g.g.g.g."
};
