/* XPM */
static char *result[] = {
/* columns rows colors chars-per-pixel */
"65 64 41 1 ",
"  c #3E585B",
". c #51696C",
"X c #597679",
"o c #58747A",
"O c #647B7D",
"+ c #657D7F",
"@ c #618491",
"# c #759497",
"$ c #849A9C",
"% c #8EAAB0",
"& c #9DB3B4",
"* c #8FBFD9",
"= c #9FC3C5",
"- c #B6CBCC",
"; c #B7CBCC",
": c #B7CCCD",
"> c #B8CCCD",
", c #B8CDCE",
"< c #B9CDCE",
"1 c #BACECF",
"2 c #BBCECF",
"3 c #A6CFD1",
"4 c #A7CFD4",
"5 c #BCCFD0",
"6 c #ACD1D3",
"7 c #BCD0D1",
"8 c #BDD0D1",
"9 c #BED1D2",
"0 c #BED9DB",
"q c #C1D3D4",
"w c #C1D4D5",
"e c #C3D5D6",
"r c #C4D5D6",
"t c #C6D7D8",
"y c #CDDDDE",
"u c #CEDEDF",
"i c #D0DFE0",
"p c #D2E1E2",
"a c #D6E4E5",
"s c #D7EAEF",
"d c #E4F3F4",
/* pixels */
"*a036363636363636363636363636363636363636363636363636363636363= o",
"*a036363636363636363636363636363636363636363636363636363636363= o",
"@ Oa03636363636363636363636363636363636363636363636363636363# X34",
"@ Oa03636363636363636363636363636363636363636363636363636363# X34",
"@ . Oa0363636363636363636363636363636363636363636363636363# X3634",
"@ . Oa0363636363636363636363636363636363636363636363636363# X3634",
"@ . . Oa036363636363636363636363636363636363636363636363# X363634",
"@ . . Oa036363636363636363636363636363636363636363636363# X363634",
"@ . . . Oaaaaaaaaaaaaaaaaaaaaaaaaaaaaaaaaaaaaaaaaaaaaaaa036363634",
"@ . . . Oaaaaaaaaaaaaaaaaaaaaaaaaaaaaaaaaaaaaaaaaaaaaaaa036363634",
"@ . . . Oaaaaaaaaaaaaaaaaaaaaaaaaaaaaaaaaaaaaaaaaaaaaaaa036363634",
"@ . . . Oaaaaaaaaaaaaaaaaaaaaaaaaaaaaaaaaaaaaaaaaaaaaaaa036363634",
"@ . . . Oaaaaaaaaaaaaaaaaaaaaaaaaaaaaaaaaaaaaaaaaaaaaaaa036363634",
"@ . . . Oaaaaaaaaaaaaaaaaaaaaaaaaaaaaaaaaaaaaaaaaaaaaaaa036363634",
"@ . . . Oaaaaaaaaaaaaaaaaaaaaaaaaaaaaaaaaaaaaaaaaaaaaaaa036363634",
"@ . . . Oaaaaaaaaaaaaaaaaaaaaaaaaaaaaaaaaaaaaaaaaaaaaaaa036363634",
"@ . . . Oaaaaaaaaaaaaaaaaaaaaaaaaaaaaaaaaaaaaaaaaaaaaaaa036363634",
"@ . . . Oaaaaaaaaaaaaaaaaaaaaaaaaaaaaaaaaaaaaaaaaaaaaaaa036363634",
"@ . . . Oaaaaaaaaaaaaaaaaaaaaa9-taaaaaaaaaaaaa9-taaaaaaa036363634",
"@ . . . Oaaaaaaaaaaaaaaaaaaaaa9-taaaaaaaaaaaaa9-taaaaaaa036363634",
"@ . . . Oaaaaaaaaaaaaaaaaaaaaa9-taaaaaaaaaaa9-taaaaaaaaa036363634",
"@ . . . Oaaaaaaaaaaaaaaaaaaaaa9-taaaaaaaaaaa9-taaaaaaaaa036363634",
"@ . . . Oaaaaaaaaaaaaaaaaa9-1-taaaaaaaaaaaaa9-1-taaaaaaa036363634",
"@ . . . Oaaaaaaaaaaaaaaaaa9-1-taaaaaaaaaaaaa9-1-taaaaaaa036363634",
"@ . . . Oaaaaaaaaaaaaaaa9-:->-raaaaaaa9-1-ta9-1-taaaaaaa036363634",
"@ . . . Oaaaaaaaaaaaaaaa9-:->-taaaaaaa9-1-ta9-1-taaaaaaa036363634",
"@ . . . Oaaaaaaaaaaaaaaa7-,-,-raaaaa9-1-ta9-taaaaaaaaaaa036363634",
"@ . . . Oaaaaaaaaaaaaaaa9-1-1-taaaaa9-1-ta9-taaaaaaaaaaa036363634",
"@ . . . Oaaaaaaaaaaa9-:-:-<-wupaaaaa9-;->-1-taaaaaaaaaaa036363634",
"@ . . . Oaaaaaaaaaaa9-:->-1-taaaaaaa9-;->-1-taaaaaaaaaaa036363634",
"@ . . . Oaaaaaaaaa9-<---:-qupaaaaa9-1-;->-taaaaaaaaaaaaa036363634",
"@ . . . Oaaaaaaaaa9-1-:->-taaaaaaa9-1-;->-taaaaaaaaaaaaa036363634",
"@ . . . Oaaaaaaaaa7-qu2-,-raaaaa9-1-1-taaaaaaaaaaaaaaaaa036363634",
"@ . . . Oaaaaaaaaa9-ta9-1-taaaaa9-1-1-taaaaaaaaaaaaaaaaa036363634",
"@ . . . Oaaaaa9-1-eu8-<-wupaaaaa9-;->-taaaaaaaaaaaaaaaaa036363634",
"@ . . . Oaaaaa9-1-ta9-1-taaaaaaa9-;->-taaaaaaaaaaaaaaaaa036363634",
"@ . . . Oaaaaa7-,-raiuyupaaaaaaa9-1-taaaaaaaaaaaaaaaaaaa036363634",
"@ . . . Oaaaaa9-1-taaaaaaaaaaaaa9-1-taaaaaaaaaaaaaaaaaaa036363634",
"@ . . . Oaaaaaiu5-raaaaaaaaaaa9-taaaaaaaaaaaaaaaaaaaaaaa036363634",
"@ . . . Oaaaaaaa9-taaaaaaaaaaa9-taaaaaaaaaaaaaaaaaaaaaaa036363634",
"@ . . . Oaaaaa9-eupaaaaaaaaaaa9-taaaaaaaaaaaaaaaaaaaaaaa036363634",
"@ . . . Oaaaaa9-taaaaaaaaaaaaa9-taaaaaaaaaaaaaaaaaaaaaaa036363634",
"@ . . . Oaaaaaiupaaaaaaaaaaaaaaaaaaaaaaaaaaaaaaaaaaaaaaa036363634",
"@ . . . Oaaaaaaaaaaaaaaaaaaaaaaaaaaaaaaaaaaaaaaaaaaaaaaa036363634",
"@ . . . Oaaaaaaaaaaaaaaaaaaaaaaaaaaaaaaaaaaaaaaaaaaaaaaa036363634",
"@ . . . Oaaaaaaaaaaaaaaaaaaaaaaaaaaaaaaaaaaaaaaaaaaaaaaa036363634",
"@ . . . Oaaaaaaaaaaaaaaaaaaaaaaaaaaaaaaaaaaaaaaaaaaaaaaa036363634",
"@ . . . Oaaaaaaaaaaaaaaaaaaaaaaaaaaaaaaaaaaaaaaaaaaaaaaa036363634",
"@ . . . Oaaaaaaaaaaaaaaaaaaaaaaaaaaaaaaaaaaaaaaaaaaaaaaa036363634",
"@ . . . Oaaaaaaaaaaaaaaaaaaaaaaaaaaaaaaaaaaaaaaaaaaaaaaa036363634",
"@ . . . Oaaaaaaaaaaaaaaaaaaaaaaaaaaaaaaaaaaaaaaaaaaaaaaa036363634",
"@ . . . Oaaaaaaaaaaaaaaaaaaaaaaaaaaaaaaaaaaaaaaaaaaaaaaa036363634",
"@ . . . Oaaaaaaaaaaaaaaaaaaaaaaaaaaaaaaaaaaaaaaaaaaaaaaa036363634",
"@ . . . Oaaaaaaaaaaaaaaaaaaaaaaaaaaaaaaaaaaaaaaaaaaaaaaa036363634",
"@ . . . Oaaaaaaaaaaaaaaaaaaaaaaaaaaaaaaaaaaaaaaaaaaaaaaa036363634",
"@ . . . Oaaaaaaaaaaaaaaaaaaaaaaaaaaaaaaaaaaaaaaaaaaaaaaa036363634",
"@ . . $-& . . . . . . . . . . . . . . . . . . . . . . . Oa0363634",
"@ . . $-& . . . . . . . . . . . . . . . . . . . . . . . Oa0363634",
"@ . $-& . . . . . . . . . . . . . . . . . . . . . . . . . Oa03634",
"@ . $-& . . . . . . . . . . . . . . . . . . . . . . . . . Oa03634",
"@ $-& . . . . . . . . . . . . . . . . . . . . . . . . . . . Oa034",
"@ $-& . . . . . . . . . . . . . . . . . . . . . . . . . . . Oa034",
"%-& . . . . . . . . . . . . . . . . . . . . . . . . . . . . . +ds",
"%-& . . . . . . . . . . . . . . . . . . . . . . . . . . . . . +ds"
};
