/* XPM */
static char *result[] = {
/* columns rows colors chars-per-pixel */
"64 63 172 2 ",
"   c #000000",
".  c #0B0000",
"X  c #2B0505",
"o  c #2A0909",
"O  c #340101",
"+  c #3B0000",
"@  c #2C3D3D",
"#  c #293334",
"$  c #313C3C",
"%  c #383F3F",
"&  c #420303",
"*  c #4A0101",
"=  c #510808",
"-  c #7A0D0D",
";  c #7A0303",
":  c #7B1414",
">  c #2A4142",
",  c #334545",
"<  c #3F4848",
"1  c #334A4B",
"2  c #3C575A",
"3  c #3E595C",
"4  c #3E5555",
"5  c #434C4C",
"6  c #475051",
"7  c #4B5454",
"8  c #4E5758",
"9  c #425B5E",
"0  c #4F5959",
"q  c #545C5C",
"w  c #445E62",
"e  c #565F60",
"r  c #476063",
"t  c #4A6366",
"y  c #4D6568",
"u  c #4E696C",
"i  c #5B6464",
"p  c #5D6768",
"a  c #526A6D",
"s  c #547175",
"d  c #5D7476",
"f  c #597579",
"g  c #5D7A7D",
"h  c #636E6E",
"j  c #617679",
"k  c #657A7C",
"l  c #810000",
"z  c #8E0000",
"x  c #8F0D0D",
"c  c #840E0E",
"v  c #930F0F",
"b  c #990E0E",
"n  c #831616",
"m  c #8B1616",
"M  c #8D1A1A",
"N  c #941414",
"B  c #9D1010",
"V  c #961919",
"C  c #9D1A1A",
"Z  c #A50F0F",
"A  c #A41A1A",
"S  c #AA1C1C",
"D  c #AB1111",
"F  c #B21D1D",
"G  c #FF0C0C",
"H  c #FF1414",
"J  c #FF1B1B",
"K  c #FF2424",
"L  c #FF2929",
"P  c #FF3535",
"I  c #FF3C3C",
"U  c #FF4040",
"Y  c #FF4F4F",
"T  c #FE5353",
"R  c #FE5E5E",
"E  c #FD6363",
"W  c #FF6C6C",
"Q  c #FE7B7B",
"!  c #FF7373",
"~  c #687E80",
"^  c #627B80",
"/  c #718789",
"(  c #748A8C",
")  c #7B898A",
"_  c #658692",
"`  c #678894",
"'  c #6D8E9C",
"]  c #708F9A",
"[  c #7D9394",
"{  c #79999C",
"}  c #7FA1A3",
"|  c #809798",
" . c #869C9E",
".. c #899C9D",
"X. c #8A9696",
"o. c #909A9B",
"O. c #84A3A5",
"+. c #89A1A2",
"@. c #9BA5A6",
"#. c #95ACAD",
"$. c #97A3A4",
"%. c #99AFB0",
"&. c #93AEB4",
"*. c #96BBBE",
"=. c #98BCBE",
"-. c #A1AEAF",
";. c #A1B2B3",
":. c #A1B6B8",
">. c #ACB7B8",
",. c #AABBBC",
"<. c #A5BBBC",
"1. c #B1BDBE",
"2. c #FF8484",
"3. c #FE8B8B",
"4. c #FF9393",
"5. c #FD9D9D",
"6. c #FCA4A4",
"7. c #FBB4B4",
"8. c #98BEC0",
"9. c #ACBFC1",
"0. c #A4BBC0",
"q. c #94C0D8",
"w. c #AFC6C7",
"e. c #A2C7CA",
"r. c #A4CBCD",
"t. c #B3C3C4",
"y. c #BBC4C5",
"u. c #B4C7C8",
"i. c #B5CACB",
"p. c #BBCCCD",
"a. c #A7CFD2",
"s. c #A8CFD1",
"d. c #B5CED0",
"f. c #BDCFD0",
"g. c #A7D0D2",
"h. c #AAD1D3",
"j. c #ADD5D8",
"k. c #B1D4D6",
"l. c #BBD3D5",
"z. c #B1D6D9",
"x. c #BEDBDD",
"c. c #BCD7D9",
"v. c #A2CAE0",
"b. c #C2CBCC",
"n. c #C4CFD0",
"m. c #C6D6D7",
"M. c #CAD4D5",
"N. c #C7D6D8",
"B. c #C8D7D8",
"V. c #C2DBDD",
"C. c #CCDADB",
"Z. c #D2DCDD",
"A. c #FECDCD",
"S. c #FED5D5",
"D. c #FEDCDC",
"F. c #C8DFE0",
"G. c #D3DFE0",
"H. c #C7E1E2",
"J. c #CFE0E2",
"K. c #D5E3E4",
"L. c #D8E5E6",
"P. c #D7E7E8",
"I. c #D9E7E8",
"U. c #DBE9EA",
"Y. c #DBEEF3",
"T. c #E1EEEF",
"R. c #FFE8E8",
"E. c #FEE2E2",
"W. c #E1EFF0",
"Q. c #E6F2F4",
"!. c #E9F7F8",
"~. c #EBFAFB",
/* pixels */
"v.K.F.j.k.k.k.j.k.k.k.k.k.j.k.k.k.j.k.k.k.j.k.k.k.k.k.k.k.k.k.k.k.k.k.k.k.k.k.k.k.k.k.k.k.k.j.k.k.k.k.k.k.k.k.k.k.k.k.k.k.e.d k ",
"q.V.l.a.h.a.h.a.h.a.h.r.h.g.h.g.h.g.h.a.s.a.a.a.h.a.s.a.s.s.s.s.h.r.g.r.g.s.s.s.a.h.a.h.a.s.a.h.r.h.g.h.g.h.a.g.g.h.a.r.r.8.t s ",
"' u / C.x.s.h.g.h.h.h.h.h.h.h.h.h.h.h.h.h.s.h.h.h.h.h.h.h.s.h.s.h.h.h.h.g.h.h.s.h.s.s.h.h.s.h.h.g.h.g.h.g.h.h.h.g.h.h.} t _ 8.e.",
"_ w ^ B.c.s.h.a.h.s.h.g.h.g.h.g.h.g.h.g.s.h.s.h.h.a.h.a.h.s.h.h.h.h.g.h.h.s.h.h.h.s.h.h.g.h.g.h.h.h.h.h.h.h.g.h.r.h.r.{ w f e.j.",
"` w u u ( J.x.a.h.g.h.g.h.h.h.g.h.h.h.g.h.g.h.g.s.h.h.h.s.h.s.s.s.h.h.s.s.s.h.g.s.h.s.h.h.s.h.h.g.h.g.h.h.h.h.h.j.} t f *.r.r.g.",
"` w t 2 ^ N.l.h.h.h.h.h.h.h.h.g.h.h.h.h.h.h.s.h.s.h.s.h.s.h.h.h.h.h.s.s.h.h.s.h.s.h.h.s.h.h.a.h.h.h.g.h.h.h.h.r.r.{ t g e.j.g.g.",
"` w u 9 a t ( G.x.a.h.r.h.g.h.a.s.r.s.s.h.r.h.h.h.r.s.s.h.s.s.s.g.s.s.s.s.h.s.g.s.h.a.s.a.s.s.s.a.s.r.h.r.h.h.O.t s 8.r.a.a.g.g.",
"` w y w y 3 ~ f.l.h.k.h.k.h.k.h.k.h.k.j.k.h.h.h.j.j.k.h.j.h.k.h.h.k.k.h.k.h.k.h.h.k.h.k.h.j.h.j.h.j.k.k.j.h.h.O.u g e.k.a.g.g.g.",
"` w y 9 y 9 y r / K.K.K.K.K.K.K.K.K.K.K.K.K.K.K.K.K.K.K.K.K.K.K.K.K.K.K.K.K.K.K.K.K.K.K.K.K.K.K.K.K.K.K.K.K.K.V.g.g.g.h.g.h.g.g.",
"` w y 9 y 9 y 9 / K.K.K.K.K.K.K.K.K.K.K.K.K.K.K.K.K.K.K.K.K.K.K.K.K.K.K.K.K.K.K.K.K.K.K.K.K.K.K.K.K.K.K.K.K.K.V.g.g.h.h.a.h.a.g.",
"` w y 9 y 9 y 9 / K.K.K.P.K.K.K.K.K.K.K.K.K.K.K.K.K.K.K.K.K.L.K.K.K.K.K.K.K.K.K.K.G.K.K.K.K.K.K.K.K.K.K.K.K.K.V.g.h.g.h.h.h.a.g.",
"` w y 9 y 9 y 9 / G.K.K.K.K.K.K.K.K.K.L.U.T.T.T.U.K.K.K.K.P.K.K.K.K.K.K.K.K.G.I.W.T.W.W.L.K.K.K.K.K.P.K.K.K.K.V.h.h.g.h.a.h.g.g.",
"` w y w y 9 y 9 / K.L.L.K.K.K.P.K.L.Q.Z.;.;.;.;.p.Q.P.G.K.K.K.K.K.P.K.K.G.U.Q.b.%.;.%.;.Z.Q.L.K.P.K.K.K.K.K.L.V.h.h.h.h.a.h.a.g.",
"` w y 3 y 9 y 9 / K.K.K.K.K.K.K.U.C.1.a   o o   , ,.b.Q.P.K.K.K.K.K.K.U.Q.p.,.,   X X   j 1.C.U.K.K.K.K.K.K.K.V.g.h.g.h.a.h.g.g.",
"_ w y 9 y 9 y 9 / K.K.K.K.K.K.P.K.i   X ; J H Z o . , ;.y.Q.Z.K.K.G.W.y.-.@ . o A K L : X   p K.P.K.K.K.K.K.K.V.h.s.g.h.r.j.g.a.",
"` w y 9 y 9 y 3 / K.L.K.K.K.U.K.i   - P W E W T J D X   $ M.U.K.K.U.B.$ . o S K K K K K K :   p U.U.K.K.K.K.K.V.h.h.h.h.s.h.a.a.",
"` w u 9 t 9 t 9 / K.K.K.K.K.Z.i   - L 6.E.S.R.3.I T K S   @ C.U.U.M.$   S K K K K K K K K K :   h C.L.K.K.K.K.V.g.h.g.h.h.h.a.a.",
"` w t 9 u w t 9 / K.K.K.K.!.@.  n L 6.4.H K J H Q 3.H L F   $ M.M.#   S K K K K K K K K K K K :   @.!.Z.K.K.K.F.h.h.g.h.a.h.h.a.",
"` w u 9 t 9 u w / K.K.K.K.C.y & P 5.5.H L K K K J K K K K F   1 ,   S K K K K K K K K K K K K K & y C.L.K.K.K.V.h.h.g.h.a.h.a.a.",
"` w y 9 y 9 t 9 / K.P.C.Q...  l 2.D.G L K K K K K K K K K K A O O S K K K K K K K K K K K K K K n   o.Q.K.K.K.V.g.h.g.h.a.h.a.a.",
"` w y 9 y 9 y 9 / Z.K.K.Q. .+ U 5.4.J K K K K K K K K K K K K K L K K K K K K K K K K K K K K K L + ..Q.K.K.K.V.h.s.a.j.a.j.a.a.",
"` w y 9 y w y 9 / K.K.K.Q.+.O 3.A.G L K K K K K K K K K K K K K K K K K K K K K K K K K K K K K L O ..Q.G.K.K.V.s.s.a.h.a.h.a.a.",
"` w y 9 y 9 y 9 / K.K.K.Q.+.+ 2.S.J K K K K K K K K K K K K K K K K K K K K K K K K K K K K K K L O ..Q.K.K.K.V.h.h.s.h.a.j.a.a.",
"` w y 9 y 9 y 9 / K.K.K.Q. .& R 3.J K K K K K K K K K K K K K K K K K K K K K K K K K K K K K K L O ..Q.Z.K.K.V.h.s.s.s.a.h.a.a.",
"` w y w y w y w ~ G.I.G.Q. .& K J K K K K K K K K K K K K J K K K K K K K K K K K K K K K K K K K O ..Q.K.K.K.V.h.s.g.h.a.h.h.a.",
"` w w w w w y w ( G.K.K.Q. .& L K K K K K K K K K K K K K K K K K K K K K K K K K K K K K K K K L O ..Q.K.K.K.V.h.h.h.h.a.h.a.a.",
"` w t w y w t 9 ( G.I.G.Q. .+ L K K K K K K K K K K K K K K K K K K K K K K K K K K K K K K K K L O  .Q.G.K.K.V.s.s.h.h.h.h.a.a.",
"` w e w t w u 9 / K.P.G.!.| * L K K K K K K K K K K K K K K K K K K K K K K K K K K K K K K K K L +  .Q.K.K.K.V.h.h.g.h.a.h.a.a.",
"` w t 9 t w u 9 / G.P.G.!.) . F K K K K K K K K K K K K K K K K K K K K K K K K K K K K K L K K A   ..Q.K.K.K.V.s.h.s.s.a.h.a.a.",
"` w u 9 w w t 9 / K.P.G.W.9.> & K K K K K K K K K K K K K K K K K K K K K K K K K K K K L H J L O 1 b.U.K.K.K.V.h.s.s.j.a.h.a.a.",
"` w u 9 u w e 9 / G.P.K.G.~.X.. C L K K K K K K K K K K K K K K K K K K K K K K K K K K H 2.R b   $.!.Z.L.K.K.V.h.s.a.s.a.a.a.a.",
"` w t 9 y w u 3 / K.P.K.G.U.9.% + L K K K K K K K K K K K K K K K K K K K K K K K K K K Q 7.T O 1 b.U.K.K.K.K.V.h.h.s.j.a.j.a.g.",
"` w y 9 y 9 y 9 / K.I.K.K.G.~...  C K K K K K K K K K K K K K K J K K K K K K K K K L G D.! z   @.!.K.K.K.L.K.V.h.h.g.h.g.h.h.a.",
"` w y 9 y 9 y 9 / K.K.K.K.K.C.>.> = L K K K K K K K K K K K K K K K K K K K K K K K H 3.6.I O 4 b.K.K.K.K.P.K.V.h.h.h.h.a.h.a.a.",
"` w y 9 y 9 y 9 / K.K.K.L.K.i.F.(   S K K K K K K K K K K K K K K K K K K K K K L H 3.7.I B   @.!.K.K.K.K.K.K.V.h.s.g.h.h.h.a.a.",
"` w y 9 y 9 y 9 / K.K.K.K.J.f.p.,.$   V K K K K K K K K K K K K K K K K K K K K G 3.7.P v   0 M.K.K.K.K.K.K.L.V.h.h.g.h.a.h.a.a.",
"` w y w y 9 y 9 / K.K.K.K.J.p.i.m.t.,   C L K K K K K K K K K K K K K K K K L H 3.7.P N   8 K.U.K.K.K.P.K.K.K.V.s.s.s.j.a.h.a.a.",
"` w y 3 y 9 y 9 / K.K.K.K.K.V.m.i.l.b.<   S K K K K K K K K K K K K K K K K J 4.7.P x   6 K.P.K.K.K.K.K.K.K.K.V.s.s.a.s.a.h.a.a.",
"` w y 9 y 9 y 9 / K.K.K.K.K.K.K.p.i.K.Z.6   C K K K K K K K K K K K K K K J H E I v   0 L.P.K.K.K.K.P.K.L.K.K.V.h.j.h.j.a.a.a.g.",
"` w y 9 y 9 y 3 / K.K.K.K.K.m.m.l.C.C.U.G.<   V K J K K K K K K K K K K J 5.Q G V   0 L.I.K.K.L.K.K.K.K.K.K.P.V.s.s.a.s.a.j.a.g.",
"` w u w t 9 t w / K.K.K.K.K.p.i.C.K.K.K.U.C.<   A K K K K K K K K K K K K R Y m   7 K.P.K.K.K.K.K.K.K.K.L.K.K.V.s.s.a.h.s.h.h.a.",
"` w t w t w t 9 / K.K.K.K.K.C.V.K.K.K.K.K.U.C.5   A K K K K K K K K K K K J N   7 Z.I.K.K.K.K.K.K.K.L.K.K.K.P.V.h.s.s.s.a.h.a.a.",
"` w u 9 t 9 y w / K.K.K.K.K.K.K.K.K.K.P.K.K.P.K.<   C K K K K K K K K K K M   q L.U.K.K.K.K.P.K.L.K.K.P.K.K.K.V.s.s.h.j.a.h.a.a.",
"` w t 9 y w t 9 / K.P.K.K.K.K.K.K.K.K.K.K.L.Z.U.Z.5   A K K K K K K K K m   e L.P.Z.L.K.L.K.K.K.K.K.K.K.L.K.K.V.h.h.h.h.a.h.a.a.",
"` w y 9 y 9 y 9 / K.K.K.K.K.K.K.K.K.L.K.K.L.K.G.U.Z.5   C L K K K K K m   0 K.P.K.K.K.L.K.K.L.K.P.L.K.K.K.L.K.V.h.h.s.s.a.j.a.a.",
"` w y 9 y 9 y 9 / K.K.K.K.K.K.U.L.K.K.K.K.K.K.K.K.P.K.5   V K K K K :   i L.K.K.K.L.K.K.K.K.K.K.K.K.K.K.K.P.K.V.s.s.h.s.s.h.a.a.",
"` w y 9 t 9 y w / K.P.K.K.K.K.K.K.K.L.K.K.L.L.K.L.K.P.Z.5   V K K n   i K.P.K.K.K.K.K.K.L.K.K.K.K.K.L.K.K.K.K.V.h.h.a.j.a.j.a.a.",
"` w y 9 y 9 y 9 / K.L.K.L.K.K.L.K.K.K.K.K.K.K.K.K.K.K.U.Z.5   S M   i K.L.K.K.K.L.K.K.L.K.K.L.K.K.P.K.K.K.K.K.V.h.s.s.s.a.h.a.a.",
"` w y w t w t 3 / G.P.K.K.K.K.P.K.K.K.K.P.K.K.K.K.K.K.K.I.K.7     e U.I.K.K.K.K.K.K.K.I.K.K.K.K.L.K.K.L.L.K.K.V.h.h.g.h.h.h.h.g.",
"` w e w e w u w / K.P.K.K.K.K.K.K.L.L.K.K.K.P.K.L.K.K.K.K.I.I.% 7 U.L.K.K.L.K.K.K.K.K.K.K.K.L.K.K.K.K.K.K.K.K.V.h.h.g.h.r.h.g.g.",
"` w t 9 y w y w / K.P.K.P.P.P.K.K.K.K.K.K.K.K.K.K.K.K.K.L.K.U.n.N.U.K.K.K.K.K.L.P.K.K.K.L.K.L.K.K.K.P.K.K.K.L.V.h.h.a.h.a.j.a.a.",
"` w t 9 w w y 3 / G.K.K.G.G.P.K.K.K.K.K.L.K.L.K.K.I.K.K.K.K.K.P.P.K.L.K.K.K.K.K.K.K.L.K.K.K.K.K.K.L.K.K.L.K.K.V.h.h.g.h.a.h.a.a.",
"` w t 9 u 9 u w / G.K.G.P.G.P.G.K.K.K.K.K.K.K.K.K.K.K.K.K.K.K.K.K.K.K.K.K.K.K.K.K.K.K.K.K.K.K.K.K.K.K.K.K.K.K.V.s.s.a.j.a.h.s.a.",
"` w y 9 t 9 t 3 / I.I.P.I.I.I.U.I.I.I.I.I.I.L.I.I.I.I.I.I.I.I.I.I.I.I.I.I.I.L.I.P.U.I.I.U.P.L.I.I.P.P.L.U.L.L.V.s.s.a.s.a.s.s.a.",
"` w u 9 u w a t ( m.F.m.B.B.B.B.N.M.B.N.B.N.V.N.m.m.m.m.m.m.B.B.N.N.N.N.B.N.N.N.N.N.N.N.m.m.m.m.B.B.m.N.N.N.N.l.h.h.h.j.s.a.a.a.",
"` w u 9 w w  .u.#.w a e a t a w a t a t a t u t a y a t a t y y y y y y y y y y y y y a t a t a y a t a t a t j N.H.s.s.a.j.a.a.",
"` w y 9 a a ..9.+.w t 9 t w w w t 9 t 9 t 3 t 9 t 9 t 9 t w r w t 9 9 t w w 9 t 9 t r t 9 t 9 t 9 t 9 t 9 t 9 d y.l.g.h.h.h.a.a.",
"` w t 9 | u.%.t y w t w u w t w y 9 y r t r t 9 y w t t t w t t t t t 9 t t t t 9 t r t 9 y r t w y 9 y 9 y 9 y r k C.H.g.h.a.a.",
"` w s a  .<.+.w w w e 9 t w t w t r t w t 9 t r t t t 9 t 9 t r t t 9 t t t 9 t t t r t r t w y w y w y 9 y w y 3 d t.d.a.h.h.a.",
"_ w [ p.%.w y w u w t w y w t w y 9 y w y r t r y 9 y 9 t w t w 9 t t t r y 9 t 9 y 9 y 9 t 9 y 9 y 9 y 9 y 9 y w y w k B.F.a.a.",
"] f  .:.+.w y 9 t 9 t 9 y w y w y 9 y r y 9 y 9 t t t 9 t t t t t t t t t t t t t t w y w y 9 y t y 9 y w y w y w y w j w.i.k.z.",
"&.w.%.9 w 2 w 9 t 9 t 3 w 9 w 9 r 3 r 9 t 9 9 9 w 9 w 9 w 9 w 9 9 9 9 9 9 9 9 9 9 9 9 9 9 w 9 w 9 w 3 t 9 w 9 w 3 w 3 w 3 g P.Y.",
"0.f.<.j k j k d k j k j j j k j k h k j k j k j k j k j j j k j j j j k j j j k j j j k j k j j j k d k d k j k d k d ^ d [ U.W."
};
