/* XPM */
static char *result[] = {
/* columns rows colors chars-per-pixel */
"64 63 138 2 ",
"   c #000D15",
".  c #030F18",
"X  c #05121A",
"o  c #09161E",
"O  c #0C1F1B",
"+  c #0F211D",
"@  c #10231F",
"#  c #0B1720",
"$  c #0C1922",
"%  c #111E26",
"&  c #111D29",
"*  c #122521",
"=  c #152824",
"-  c #182B27",
";  c #132029",
":  c #172B28",
">  c #1A2D29",
",  c #1E312D",
"<  c #192530",
"1  c #1E2A34",
"2  c #1F3330",
"3  c #222F37",
"4  c #222F38",
"5  c #223633",
"6  c #253935",
"7  c #243039",
"8  c #293E39",
"9  c #2B403C",
"0  c #2F4440",
"q  c #314641",
"w  c #354B46",
"e  c #374D48",
"r  c #384E4A",
"t  c #3C524E",
"y  c #3C575A",
"u  c #3F595B",
"i  c #445C57",
"p  c #425B5E",
"a  c #4A625D",
"s  c #445E62",
"d  c #476063",
"f  c #4A6365",
"g  c #4D6568",
"h  c #4E696C",
"j  c #536B66",
"k  c #526B6D",
"l  c #5A736E",
"z  c #566E70",
"x  c #547175",
"c  c #5D7476",
"v  c #5F7974",
"b  c #597579",
"n  c #5D7A7D",
"m  c #607A75",
"M  c #617679",
"N  c #657A7C",
"B  c #67817C",
"V  c #627B80",
"C  c #687E80",
"Z  c #6F8A85",
"A  c #728D87",
"S  c #708688",
"D  c #738B8B",
"F  c #658692",
"G  c #678894",
"H  c #6D8E9C",
"J  c #708F9A",
"K  c #7C9294",
"L  c #79999C",
"P  c #7FA1A3",
"I  c #809698",
"U  c #869C9E",
"Y  c #8B989D",
"T  c #85A29C",
"R  c #8E9BA0",
"E  c #81A3A5",
"W  c #8AA1A2",
"Q  c #8EABA6",
"!  c #85A5A8",
"~  c #94A2A7",
"^  c #97A4A8",
"/  c #95ACAD",
"(  c #94B2AC",
")  c #93AEB4",
"_  c #9EACB1",
"`  c #97B5B0",
"'  c #98B6B0",
"]  c #9AB9B3",
"[  c #96BBBE",
"{  c #9DBDBA",
"}  c #A0AEB2",
"|  c #A3B0B4",
" . c #A4B5B8",
".. c #A5BBBC",
"X. c #ADBABE",
"o. c #A5C4BE",
"O. c #98BEC0",
"+. c #A4BBC0",
"@. c #ACBFC1",
"#. c #94C0D8",
"$. c #AFC6C7",
"%. c #A2C7CA",
"&. c #A5CCCE",
"*. c #B5C3C7",
"=. c #B7C6C8",
"-. c #B8C7C9",
";. c #B3CACC",
":. c #B9CBCC",
">. c #B2D3CD",
",. c #A7CFD1",
"<. c #A8CFD1",
"1. c #B5CED0",
"2. c #BECFD0",
"3. c #A7D0D2",
"4. c #AAD0D2",
"5. c #ADD5D8",
"6. c #B2D4D6",
"7. c #BAD4D6",
"8. c #B9DAD3",
"9. c #B1D6D9",
"0. c #BCD7D9",
"q. c #B5D9DB",
"w. c #BEDADC",
"e. c #A2CAE0",
"r. c #C6D6D7",
"t. c #C7D7D8",
"y. c #C8D7D9",
"u. c #C4DBDE",
"i. c #CADADB",
"p. c #C8DFE0",
"a. c #C7E1E2",
"s. c #CCE5E6",
"d. c #D4E3E4",
"f. c #D7E7E8",
"g. c #D9E7E8",
"h. c #DDEBEB",
"j. c #DBEEF3",
"k. c #E1F0F4",
/* pixels */
"e.d.p.5.6.5.6.6.6.6.9.6.9.6.6.6.6.5.6.6.6.6.6.6.6.6.6.6.6.6.6.6.6.6.6.6.6.6.6.6.6.6.6.6.6.6.5.6.6.6.5.6.5.6.6.6.6.6.5.6.6.%.v N ",
"#.u.7.,.,.,.<.<.,.,.4.<.<.<.4.,.4.3.4.,.3.,.4.&.4.3.3.,.<.,.4.&.3.3.4.&.3.&.3.4.<.3.<.3.3.3.<.4.<.3.<.4.<.4.<.<.3.4.<.&.&.[ g x ",
"H k D i.p.,.,.,.4.<.,.,.4.4.4.4.4.3.4.4.4.3.4.3.4.4.4.4.4.<.4.4.4.4.4.3.4.4.4.4.<.4.<.4.3.4.4.4.4.4.4.4.3.4.4.4.3.4.4.P h V O.%.",
"F p N y.w.,.,.,.5.,.<.4.4.3.4.3.4.4.4.3.4.4.4.4.4.3.4.3.3.4.4.4.4.4.<.4.<.3.4.4.4.4.4.4.3.4.3.4.<.4.3.4.4.4.4.4.<.<.&.L s b %.5.",
"G s h h D p.p.,.4.,.4.3.4.3.4.3.4.4.4.3.4.3.4.<.4.3.4.4.4.4.4.4.4.4.4.4.4.4.4.3.3.4.3.4.3.4.3.4.3.4.3.4.3.4.<.4.5.P h b O.&.#.3.",
"G s h y C t.7.<.4.4.4.3.5.<.4.4.4.4.4.4.4.4.4.4.4.4.4.4.4.3.4.4.4.3.4.4.4.<.<.4.3.3.4.<.3.4.4.3.4.4.3.4.4.4.4.&.%.L d n %.5.3.3.",
"G s h p h s D i.w.3.4.&.4.&.<.&.<.&.,.&.<.&.<.&.&.,.<.&.&.,.<.&.&.,.3.&.&.<.&.<.<.<.&.<.<.<.&.<.&.<.<.<.&.<.<.E g x O.&.<.4.3.3.",
"G s g p g y C r.6.4.6.q.q.q.q.q.q.q.q.q.q.q.q.q.q.q.q.q.q.q.q.q.q.q.q.q.q.q.q.q.q.q.q.q.q.q.q.q.q.q.q.q.q.5.4.! h B %.6.<.4.3.3.",
"G s g p g p g s S g.d.@.=.=.=.=.*.=.=.=.=.=.*.=.=.=.=.=.=.*.*.*.*.*.*.*.*.*.*.*.*.*.*.*.$.=.*.*.*.*.*.=.*.d.f.u.&.&.3.4.3.4.4.3.",
"G s g p g s g s S d.Y $ & $ # # $ o o $ # o % % o $ % $ % ; ; ; ; ; ; ; ; % ; % ; ; ; ; ; ; ; ; ; ; ; ; # Y f.u.3.3.3.4.3.4.3.3.",
"G s f p g p g y K _ o % - w i w r r r r r r 8 5 t e , w > * = * = = * = = = = = = = = = = * = * = = * = ; o } s.3.3.3.4.4.4.3.3.",
"G s g p g p g i K _ o - m 8.( _ ' ] ] ] ' o.N a o./ 9 T 9 @ = = = = = = = = = = = = = = = = = = = = = - = o | s.3.3.3.4.,.4.,.,.",
"G s g p g p g y K }   i 8.A @ = - = = = = = = = - = = = = = = = = = = = = = = = = = = * = = = = = = = + = # } s.<.<.<.5.3.4.4.,.",
"G s g p g p g p K _   j Q O - * = @ * = = = = = * = = = = = = = = = = = = = * = = = = = = = = = = = * w 6 X } s.<.,.,.,.,.4.,.3.",
"F s g p g p g y K _   a Q O - * = = = = = = = = = = = = = = = = = = = = = = = = = = = = = = = = = = + Z t . | s.<.<.4.5.,.,.,.3.",
"G s g p g p g i K }   j Q O = - = = = = = = * = = = = = = = = = = = = = = = = = = = = = = = = = = = * e 6 # | s.<.<.,.<.,.5.3.3.",
"G s g s g s g p K _   j Q O - - @ - = = = = = = - * = = = = = = = - = = = = = = = = = = = = = = = = @ A t   | s.<.4.3.4.4.4.3.3.",
"F s g u g u g y K }   a Q O - @ @ - - @ = = = = * = = = = = = = * * = = = = = = = = = = = = = = = = * r 6 o | s.<.4.4.4.<.4.3.3.",
"G s h u s s g p K _   j ' O - - - - - - = = = = * - = = = = = = - * = = = = = = = = = = * = = = = = O ] f   | s.<.<.3.4.4.4.3.3.",
"G s g s g s g y K _   i N @ @ - = @ @ - = = = = = = = = = = = = = = = = = = = = = = = = = = = = = = @ B e X | s.<.<.3.4.,.4.,.3.",
"G s g p g s s p K _ X 8 i @ = = = = = = = = = = = = = = = = = = = = = = = = = = = = = = = = = = = = * t 6 o | s.,.4.<.<.,.4.4.,.",
"G s g p g s g p K }   j ( O - = = = = = = = = = = = = = = = = = = = = = = = = = = = = = = = = = = : O ( a    .s.,.4.4.5.3.4.,.,.",
"G s g s g s g p K _ . a Q O - = = = = = = = = = = = = = = = = = = = = = = = - * = = = = = = = = = = @ Q i   } s.,.<.4.4.,.5.,.3.",
"G s g s s s s i K } . a Q O - @ = = = = = - @ = = = = = = = * - = = = = = = * = = = = = = = = = = = * { a   } d.<.<.,.,.,.4.,.3.",
"G s s s f p g p K _   a Q O = = = = = = = = = = = = = = = = * * = = = = = - * - = = = = = = = = = = * l q X | s.<.<.,.4.,.4.4.,.",
"G s g s g p g p K _   j ' O - = = = = = = = = = = = = = = = - = = = = = = * * = = = = = = = = = = - * i 8 o | s.<.4.4.<.3.4.,.,.",
"G s g s g p f p I } X e l @ - @ = = = = = = = = = = = = = = = = = = = = = = = = = = = = = * = = = = @ { a   } s.&.4.<.5.<.,.,.3.",
"G s s p g p g p K } # % + = - - = = = = = = = = = = = = = = = = = = = = = = = = = = = = = = = = = = * ( i   | s.<.4.3.4.<.5.,.,.",
"G s g s g s g p K ^ $ @ @ - @ - @ - = = = = = = = = = = = = = = = = = = = = = = = = = = = = = = = = @ ( i X X.s.,.4.4.<.,.<.<.,.",
"G s s s f p s p I } X e l @ - - = = = = = = * = - * = = = = = = = = = = = = = = = = = = = = = = = = @ ( i X X.s.,.4.<.<.,.5.,.,.",
"G s h s g p g p I }   j ' O @ @ = = = = = = = = = * = = = = = = * - = = = = = = = = = = = = = = = = @ ( i X X.s.,.<.,.5.,.,.,.,.",
"G s g s g p g p D }   a Q O - - = = = = = = = = * - = = = = = = - * = = = = = = = = * = = = = = = - @ ( i X X.s.<.<.<.5.,.5.,.,.",
"G s s p s s g y I }   j Q + - @ = = = = = = = = = = = = = = = = = * = = = = = = = = = = = = = = = = * ( i X X.s.,.<.,.4.<.5.&.,.",
"G s g p g s g i K }   a Q + - - = = = = = = = = = = = = = = = = = = = = = = = = = = = = = = * = = = * ( i X X.s.<.<.,.5.,.4.,.4.",
"G s g p g s g p D }   j ' O - @ = = = = = = = = = = = = = = = = = = = = = = = = = = = = = * - - = = @ ( i . X.s.,.<.4.4.,.5.,.,.",
"G s g p g p g y I } o 6 i @ - - = = = = = = = = = = = = = = = = = = = = = = = = = = = = = = = * = = @ ( i   X.s.,.<.<.4.,.4.3.,.",
"G s g s g p g p K _ . e m @ @ @ = = = = = = = = = = = = = = = = = = = = = = = = = = = = = = = = = = * ( i X X.s.<.<.<.<.,.5.&.,.",
"G s g s g p g i K _   j ( O - - = = = = = = = = = = = = = = = = = = = = = = - * = = = = = = = = = = @ ( i . X.s.<.4.<.5.,.4.<.,.",
"G s g s g p h t I _   j ( O - - = = = = = = = = @ = = = = = = = = = = = = = * - = = = - = * = = = = * ( i X X.s.<.,.,.,.,.,.,.,.",
"G s s p g p f i K _ O 6 i @ @ @ = = = = = = = = = = = = = = = = = = = = = = * = = = * * = - = = = = @ ( i X X.s.,.5.,.5.<.5.,.3.",
"G s g s s s g p I ^ . i m + - - = = = = = = = = = = = = = = = = = = = = * - * * = = = = = = = = = = @ ( p . @.s.,.<.,.<.<.4.<.,.",
"G s s s g s g p I }   j ] O @ - = = = = = = = = = = = = = = = = = = = = = = - = = = = = = = = = = = @ ( i . @.p.<.<.,.5.<.4.4.,.",
"G s h s s p g p I ~ X 6 9 @ - - = = @ = = = = = = = = = @ = = = = = = = = = = = = = = = = = = = = = * / i . @.d.<.<.<.<.,.,.,.,.",
"G s g s g p g y I ^   i A @ - @ = = = = = = = = = = = = = = = = = = = = = = = = = = = = = = = = = = * _ i . @.p.<.<.,.5.,.5.,.3.",
"C s f p g p g p I R . 8 i @ = = = = = = = = = = = = = = = = = = * - = = = = = = = = = = = = = = = = @ ( i . @.p.,.<.<.5.<.4.,.,.",
"H s g p g p g p I ~ o @ o = = = = = = = = = = = = = = = = = = = - * = = = = = = = = = = * = = = = = @ ( i . @.d.,.,.<.<.<.4.,.4.",
"G s g p f p g p I ~ X - @ = = = = = = = = = = = = = = = = = = = = = = = = = = = = = = = - - = = = = * ( i . @.s.,.<.,.5.,.5.,.3.",
"G s f s g s s i I ~ o - = = = = = = = = = = = = = = = = = = = = * = = = = = = = = = = = = * * = = = @ ( i . @.d.,.<.,.,.,.4.3.3.",
"G s h s g p g y I ~ X - = = = = = = = = = = = = = = = = = = = = = = = = = = = = = = - * * = = - = = @ ( i X X.s.<.<.,.4.<.4.4.,.",
"G s s s g p g y K ~ o = = = = * = = = = = = = = = = = = = = = = = = = = = = = = = = * - - = = @ = * = ( i X X.s.<.<.,.5.,.4.,.,.",
"G s g s g p g p K ~ # < = = = = = = = = = = = = = = = = = = = = = = * = = = * = = = - * * - * , - - T >.t X X.s.<.<.<.4.,.5.3.,.",
"G s s s g s g y I ~ . < - = = - = = - = = - = = = = - = - = = - = - - = = - - - = - * - = - @ Y i A 8.a * # X.s.,.<.4.4.,.4.,.,.",
"G s g y g s h y K ^ # % * * @ * % @ @ @ @ @ @ @ @ @ @ @ @ @ @ @ @ @ @ @ @ @ @ @ @ @ @ * @ @ @ 2 = 2 6 * $ & X.s.<.<.<.5.,.5.,.,.",
"H s g s h y f s S g.R < 4 4 3 3 3 3 7 4 7 7 7 7 4 7 3 3 3 7 4 3 4 4 4 4 4 4 4 4 4 4 4 4 7 7 7 3 3 1 1 7 1 _ h.u.<.<.,.<.,.4.,.,.",
"C s h u g s h k D t.y.=.-.-.-.*.-.-.-.-.=.=.=.=.-.=.=.=.-.*.=.*.-.=.-.-.-.-.-.=.-.-.=.-.=.=.@.r.=.-.-.-.=.i.i.6.4.5.4.5.<.,.,.,.",
"H s g s f s I @./ d k g z g z g z g z g z g z k z k z h z k z k k k k k k k k k k k k k g z g z h z g z g k d M r.p.,.<.,.5.,.,.",
"G s f s k h U $.R u f u g u d p g i s s s s s p f p f p s p s p p s s p s p p s p s s s p s p s p s p s i g p z *.7.4.4.4.4.3.,.",
"G s f p I $./ f h s f s g s g s g p g s g s g s g p g f g s g g s f f s f g s g p g s j s g p g s g s g s h p h s N i.a.3.4.3.,.",
"G s k k U ..W d f s g p f s g p g p g s g p g s g p f p f s s s f s f f s f s g s g p g s g p g s g p g p s s g p c *.1.,.4.4.,.",
"G s I :.' s g s g p g p g s g p g p g s g p s s g s f p g s g s f s s f f f s f p g s g s g p g s g s g s g p h p g p N i.a.,.,.",
"H b U  .R s g s g s g s g s g s g p g s g s s s g s g s s s g g g s g s f g s f s s s g s g s g s g s g s g s h s h s c @.;.6.9.",
") *.) u s y d u d u d y d u d u p p s p s p s p p p s i p p s p p p p p p s p p p s s s p s p s p s i s p s y s y d y s y N f.j.",
"+.:...M N M N c N M N c N M N c N M N M N M N M N M N M N M N M N M M N M M N N M M M N M M c N M N M N c C c N c N c C c K h.k."
};
